<?xml version="1.0" encoding="utf-8"?>
<!-- Generator: Adobe Illustrator 23.0.3, SVG Export Plug-In . SVG Version: 6.00 Build 0)  -->
<svg version="1.1" id="Layer_1" xmlns="http://www.w3.org/2000/svg" xmlns:xlink="http://www.w3.org/1999/xlink" x="0px" y="0px"
	 viewBox="0 0 75 75" style="enable-background:new 0 0 75 75;" xml:space="preserve">
<style type="text/css">
	.st0{fill:#658292;}
</style>
<g>
	<path class="st0" d="M34.4,20l-6.9,17.9h5l1.1-3h6.1l1.5,3h5L39.4,20H34.4z M34.9,31l1.9-6.2l1.5,6.2H34.9z M40.1,34.8l0.6,1.5
		l-0.8-1.5H40.1z"/>
	<path class="st0" d="M64.9,26.4c-1.5-4.6-5.7-8-10.3-8c-1.5,0-3,0-4.2,0.8C48.5,12,42.8,7,36.3,7c-6.1,0-11.4,4.2-13.7,10.7
		c-5.3-0.8-10.3,3-11.4,8.8h-0.4c-4.2,0-8,4.2-8,9.1v0.8c0,5,3.8,9.1,8,9.1h24.8v10.3H22.2c-0.8,0-1.5,0.8-1.5,1.5v3H7.4
		c-0.8,0-1.5,0.4-1.5,1.1S6.6,63,7.4,63h13.3v1.9c0,0.8,0.8,1.5,1.5,1.5h29.7c0.8,0,1.5-0.8,1.5-1.5V63h13.7c0.8,0,1.5-0.4,1.5-1.1
		c0-0.8-0.8-1.5-1.5-1.5H53.5v-3c0-0.8-0.8-1.5-1.5-1.5H38.6V45.5h25.2c4.6,0,8-4.2,8.4-9.1v-0.8C72.1,31,69.1,27.2,64.9,26.4z
		 M69.1,36c0,3.4-2.3,6.5-5.3,6.5h-46h-0.1H9c-2.1-0.9-3.5-3.4-3.5-6.1v-0.8c0-3.4,2.3-6.5,5.3-6.5h1.5c0.8,0,1.5-0.4,1.5-1.1
		c0.8-5.3,5-8.8,9.5-7.6c0.4,0.4,0.8,0,1.1,0c0.4,0,0.8-0.4,0.8-0.8c1.5-6.1,6.1-9.9,11.1-9.9c5.7,0,10.7,5,11.4,11.8
		c0,0.4,0.4,0.8,0.8,1.1c0.8,0.4,1.1,0.4,1.5,0c1.1-1.1,2.7-1.5,4.2-1.5c3.8,0,6.9,2.7,8,6.9c0,0.8,0.8,1.1,1.5,1.1
		c3,0,5.3,3,5.3,6.5V36z"/>
</g>
</svg>
