<!-- Generated by IcoMoon.io -->
<svg version="1.1" xmlns="http://www.w3.org/2000/svg" width="1024" height="1024" viewBox="0 0 1024 1024">
<g id="icomoon-ignore">
</g>
<path d="M643.561 707.654h-584.709c-10.571 0-19.116-8.59-19.116-19.116v-536.944c0-10.526 8.545-19.116 19.116-19.116s19.116 8.59 19.116 19.116v517.828h565.593c10.526 0 19.116 8.545 19.116 19.116s-8.59 19.116-19.116 19.116zM868.446 454.653c-10.571 0-19.116-8.59-19.116-19.116v-267.617h-790.482c-10.571 0-19.116-8.59-19.116-19.116s8.545-19.116 19.116-19.116h809.598c10.526 0 19.116 8.545 19.116 19.116v286.733c0 10.526-8.59 19.116-19.116 19.116zM639.333 887.562h-359.819c-10.526 0-19.116-8.545-19.116-19.116s8.59-19.116 19.116-19.116h359.819c10.526 0 19.116 8.545 19.116 19.116s-8.59 19.116-19.116 19.116zM643.561 572.721h-584.709c-10.571 0-19.116-8.59-19.116-19.116s8.545-19.116 19.116-19.116h584.709c10.526 0 19.116 8.545 19.116 19.116s-8.59 19.116-19.116 19.116zM971.536 890.353h-238.020c-10.526 0-19.116-8.545-19.116-19.116v-356.987c0-10.526 8.545-19.116 19.116-19.116h238.020c10.526 0 19.116 8.545 19.116 19.116v357.032c0 10.526-8.59 19.071-19.116 19.071zM752.631 852.122h199.792v-318.756h-199.792v318.756zM756.005 415.298c-4.858 0-9.806-1.843-13.537-5.578l-134.934-134.934c-7.466-7.466-7.466-19.611 0-27.075s19.611-7.466 27.075 0l134.934 134.934c7.466 7.466 7.466 19.611 0 27.075-3.732 3.732-8.679 5.578-13.537 5.578zM778.494 302.853c-4.858 0-9.806-1.843-13.537-5.578l-44.978-44.978c-7.466-7.466-7.466-19.611 0-27.075s19.611-7.466 27.075 0l44.978 44.978c7.466 7.466 7.466 19.611 0 27.075-3.732 3.732-8.679 5.578-13.537 5.578zM552.209 887.562c-10.526 0-19.116-8.545-19.116-19.116v-178.516c0-10.526 8.545-19.116 19.116-19.116s19.116 8.545 19.116 19.116v178.516c-0.045 10.526-8.59 19.116-19.116 19.116zM483.306 621.072c0 12.421-10.068 22.489-22.489 22.489s-22.489-10.068-22.489-22.489c0-12.421 10.068-22.489 22.489-22.489s22.489 10.068 22.489 22.489zM369.466 883.334c-10.526 0-19.116-8.545-19.116-19.116v-161.65c0-10.526 8.545-19.116 19.116-19.116s19.116 8.545 19.116 19.116v161.65c0 10.526-8.59 19.116-19.116 19.116zM873.215 809.255c0 10.75-8.724 19.474-19.474 19.474s-19.474-8.724-19.474-19.474c0-10.75 8.724-19.474 19.474-19.474s19.474 8.724 19.474 19.474z"></path>
</svg>
