<?xml version="1.0" encoding="utf-8"?>
<!-- Generator: Adobe Illustrator 26.0.0, SVG Export Plug-In . SVG Version: 6.00 Build 0)  -->
<svg id="Layer_1" style="enable-background:new 0 0 82.3 95.6;" version="1.1" viewBox="0 0 82.3 95.6" x="0px"
     xml:space="preserve"
     xmlns="http://www.w3.org/2000/svg" xmlns:xlink="http://www.w3.org/1999/xlink" y="0px">
<style type="text/css">
	.st0 {
    fill: #658292;
  }

  .st1 {
    opacity: 0.3;
    fill: #658292;
    enable-background: new;
  }

  .st2 {
    opacity: 0.75;
    fill: #658292;
    enable-background: new;
  }

  .st3 {
    enable-background: new;
  }

  .st4 {
    fill: #FFFFFF;
  }
</style>
  <path class="st0" d="M75.2,95.6H7.1c-3.9,0-7.1-3.2-7.1-7.1V76.2c0-3.9,3.2-7.1,7.1-7.1h68.2c3.9,0,7.1,3.2,7.1,7.1v12.4
	C82.3,92.4,79.1,95.6,75.2,95.6z"/>
  <g transform="matrix(2,0,0,2,0,0)">
	<g>
		<path class="st0" d="M16,32.1H6.6c-1.7,0-3.1-1.4-3.1-3.1V3.2c0-1.7,1.4-3.1,3.1-3.1h16.6c0.8,0,1.6,0.3,2.2,0.9l4.5,4.5
			c0.6,0.6,0.9,1.4,0.9,2.2v4.9c0,0.4-0.3,0.8-0.8,0.8s-0.8-0.3-0.8-0.8V7.7c0-0.4-0.2-0.8-0.5-1.1l-4.5-4.5
			c-0.3-0.3-0.7-0.5-1.1-0.5H6.6C5.7,1.6,5,2.3,5,3.2V29c0,0.9,0.7,1.6,1.6,1.6H16c0.4,0,0.7,0.3,0.7,0.8S16.4,32.1,16,32.1z"/>
	</g>
    <g>
		<path class="st0" d="M17.1,16.8c-0.2,0-0.4-0.1-0.5-0.2c-0.3-0.3-0.3-0.8,0-1.1l3-3l-3-3c-0.3-0.3-0.3-0.8,0-1.1s0.8-0.3,1.1,0
			l3.5,3.5c0.3,0.3,0.3,0.8,0,1.1l-3.5,3.5C17.5,16.8,17.3,16.8,17.1,16.8z"/>
	</g>
    <g>
		<path class="st0" d="M12.4,16.8c-0.2,0-0.4-0.1-0.5-0.2l-3.5-3.5c-0.3-0.3-0.3-0.8,0-1.1l3.5-3.5c0.3-0.3,0.8-0.3,1.1,0
			s0.3,0.8,0,1.1l-3,3l3,3c0.3,0.3,0.3,0.8,0,1.1C12.8,16.8,12.6,16.8,12.4,16.8z"/>
	</g>
</g>
  <g>
	<path class="st1" d="M55,32.2c16.2,2.1,13.3,29.3,0,25.3l0.4-0.1c6.4-2,6.4-14.5-0.4-16.5c-13.3-4-16.5,23.1-0.3,25.2H55
		c-9.4,0-17-7.6-17-17S45.7,32.2,55,32.2"/>
    <g>
		<path class="st2" d="M55.4,66.2C39.2,64,41.8,36.8,55.1,40.8l0.3,0.1c-6.4,2-6.8,14.7,0,16.7c13.3,4,16.6-23.1,0.4-25.2l-0.4-0.1
			c9.4,0,17,7.6,17,17S64.7,66.2,55.4,66.2"/>
	</g>
    <g>
		<path class="st0" d="M55.2,67.4c-10,0-18.2-8.2-18.2-18.2S45.2,31,55.2,31s18.2,8.2,18.2,18.2S65.2,67.4,55.2,67.4z M55.2,33.5
			c-8.7,0-15.7,7-15.7,15.7s7,15.7,15.7,15.7s15.7-7,15.7-15.7S63.8,33.5,55.2,33.5z"/>
	</g>
    <g>
		<path class="st0" d="M57.7,59.2c-0.9,0-1.9-0.1-2.9-0.4c-3.5-1-5.8-4.7-5.8-9.2c0-4,1.7-8.5,5.8-9.8c0.7-0.2,1.4,0.2,1.6,0.8
			c0.2,0.7-0.2,1.4-0.8,1.6c-2.8,0.9-4.1,4.5-4.1,7.4c0,2.6,1.1,6,4,6.8c2.6,0.8,4.8,0.2,6.6-1.6c2.9-3,3.7-8.9,2-13.7
			c-0.9-2.5-3.2-6.8-9.1-7.6c-0.7-0.1-1.2-0.7-1.1-1.4c0.1-0.7,0.7-1.2,1.4-1.1c5.4,0.7,9.3,4,11.2,9.2c2,5.7,0.9,12.6-2.6,16.3
			C62.2,58.3,60.1,59.2,57.7,59.2z"/>
	</g>
    <g>
		<path class="st0" d="M55.2,67.4c-0.1,0-0.1,0-0.2,0c-5.4-0.7-9.3-4-11.2-9.2c-2-5.7-0.9-12.6,2.6-16.3c2.4-2.5,5.6-3.3,9.1-2.3
			c3.5,1,5.8,4.7,5.8,9.2c0,4-1.7,8.5-5.8,9.8c-0.7,0.2-1.4-0.2-1.6-0.8c-0.2-0.7,0.2-1.4,0.8-1.6c2.8-0.9,4.1-4.5,4.1-7.4
			c0-2.6-1.1-6-4-6.8c-2.6-0.8-4.8-0.3-6.6,1.6c-2.9,3-3.7,8.9-2,13.7c0.9,2.5,3.2,6.8,9.1,7.6c0.7,0.1,1.2,0.7,1.1,1.4
			C56.3,67,55.8,67.4,55.2,67.4z"/>
	</g>
</g>
  <g class="st3">
	<path class="st4" d="M17.9,79.2c-0.7,0-1.3,0.3-1.7,0.8c-0.4,0.5-0.6,1.3-0.6,2.3c0,2.1,0.8,3.1,2.3,3.1c0.7,0,1.4-0.2,2.4-0.5v1.7
		c-0.8,0.3-1.6,0.5-2.6,0.5c-1.4,0-2.4-0.4-3.1-1.2c-0.7-0.8-1.1-2-1.1-3.5c0-1,0.2-1.8,0.5-2.5s0.9-1.3,1.5-1.7
		c0.7-0.4,1.4-0.6,2.3-0.6s1.8,0.2,2.7,0.7l-0.6,1.6c-0.3-0.2-0.7-0.3-1-0.4C18.6,79.4,18.3,79.2,17.9,79.2z"/>
    <path class="st4" d="M30.7,82.3c0,1.5-0.4,2.7-1.1,3.5c-0.8,0.8-1.9,1.2-3.3,1.2s-2.5-0.4-3.3-1.2s-1.1-2-1.1-3.6
		c0-1.5,0.4-2.7,1.1-3.5c0.8-0.8,1.9-1.2,3.3-1.2s2.5,0.4,3.3,1.2C30.3,79.6,30.7,80.8,30.7,82.3z M23.9,82.3c0,1,0.2,1.8,0.6,2.3
		s1,0.8,1.8,0.8c1.6,0,2.4-1,2.4-3.1s-0.8-3.1-2.3-3.1c-0.8,0-1.4,0.3-1.8,0.8C24.1,80.6,23.9,81.3,23.9,82.3z"/>
    <path class="st4" d="M40.9,87.1h-2.5l-4-7h-0.1c0.1,1.2,0.1,2.1,0.1,2.7v4.4h-1.8v-9.3h2.5l4,7l0,0C39,83.6,39,82.8,39,82.2v-4.4
		h1.8L40.9,87.1L40.9,87.1z"/>
    <path class="st4" d="M45.1,87.1h-1.9v-9.3h5.3v1.6h-3.4v2.4h3.2v1.6h-3.1L45.1,87.1C45.2,87,45.1,87,45.1,87.1z"/>
    <path class="st4" d="M50.3,87.1v-9.3h2v9.3H50.3z"/>
    <path class="st4" d="M58.2,81.8h3.7v4.8c-0.6,0.2-1.2,0.3-1.7,0.4s-1.1,0.1-1.6,0.1c-1.4,0-2.5-0.4-3.2-1.2c-0.7-0.8-1.1-2-1.1-3.5
		s0.4-2.7,1.3-3.5c0.9-0.8,2-1.3,3.6-1.3c1,0,1.9,0.2,2.8,0.6l-0.7,1.6c-0.7-0.3-1.4-0.5-2.1-0.5c-0.9,0-1.5,0.3-2,0.9
		s-0.8,1.3-0.8,2.3s0.2,1.8,0.6,2.3c0.4,0.5,1,0.8,1.8,0.8c0.4,0,0.8,0,1.2-0.1v-1.9h-1.8V81.8z"/>
    <path class="st4" d="M69.5,84.4c0,0.8-0.3,1.5-0.9,2s-1.4,0.7-2.5,0.7c-1,0-1.9-0.2-2.6-0.6v-1.8c0.6,0.3,1.2,0.5,1.6,0.6
		s0.8,0.2,1.2,0.2c0.4,0,0.8-0.1,1-0.2c0.2-0.2,0.3-0.4,0.3-0.7c0-0.2-0.1-0.3-0.2-0.5s-0.2-0.3-0.4-0.4c-0.2-0.1-0.6-0.3-1.2-0.6
		s-1-0.5-1.3-0.8c-0.3-0.2-0.5-0.5-0.7-0.9c-0.2-0.3-0.3-0.7-0.3-1.1c0-0.8,0.3-1.5,0.8-1.9c0.5-0.4,1.3-0.7,2.3-0.7
		c0.5,0,0.9,0.1,1.4,0.2c0.4,0.1,0.9,0.3,1.4,0.5l-0.6,1.5c-0.5-0.2-0.9-0.3-1.2-0.4c-0.3-0.3-0.6-0.3-0.9-0.3
		c-0.4,0-0.7,0.1-0.9,0.3c-0.2,0.2-0.3,0.4-0.3,0.7c0,0.2,0,0.3,0.1,0.5c0.1,0.1,0.2,0.3,0.4,0.4c0.2,0.1,0.6,0.3,1.2,0.7
		c0.9,0.4,1.5,0.8,1.8,1.2C69.4,83.3,69.5,83.8,69.5,84.4z"/>
</g>
</svg>
