<?xml version="1.0" encoding="utf-8"?>
<!-- Generator: Adobe Illustrator 26.1.0, SVG Export Plug-In . SVG Version: 6.00 Build 0)  -->
<svg id="Layer_1" style="enable-background:new 0 0 48 48;" version="1.1" viewBox="0 0 48 48" x="0px"
     xml:space="preserve"
     xmlns="http://www.w3.org/2000/svg" xmlns:xlink="http://www.w3.org/1999/xlink" y="0px">
<style type="text/css">
	.st0 {
    fill: #FFDDA1;
  }

  .st1 {
    fill: #FFBC44;
  }

  .st2 {
    fill: #002567;
  }

  .st3 {
    fill: #E4F1F5;
  }

  .st4 {
    fill: #98B7C0;
  }

  .st5 {
    fill: #FFFFFF;
  }
</style>
  <g transform="matrix(2,0,0,2,0,0)">
	<path class="st0" d="M16,3.5c0.6,0,1,0.4,1,1v16c0,0.6-0.4,1-1,1H2c-0.6,0-1-0.4-1-1v-16c0-0.6,0.4-1,1-1H16z"/>
    <path class="st1" d="M14.5,6c0,0.6-0.4,1-1,1h-9c-0.6,0-1-0.4-1-1V3.5h11V6z M16,21.5c0.6,0,1-0.4,1-1v-12h-5.5c-0.6,0-1,0.4-1,1
		v12H16z"/>
    <g>
		<path class="st2" d="M10,22H2c-0.9,0-1.5-0.6-1.5-1.5v-16C0.5,3.6,1.1,3,2,3h2c0.3,0,0.5,0.2,0.5,0.5S4.3,4,4,4H2
			C1.7,4,1.5,4.2,1.5,4.5v16C1.5,20.8,1.7,21,2,21h8c0.3,0,0.5,0.2,0.5,0.5S10.3,22,10,22z M17,8.5c-0.3,0-0.5-0.2-0.5-0.5V4.5
			C16.5,4.2,16.3,4,16,4h-2c-0.3,0-0.5-0.2-0.5-0.5S13.7,3,14,3h2c0.9,0,1.5,0.6,1.5,1.5V8C17.5,8.3,17.3,8.5,17,8.5z"/>
	</g>
    <g>
		<path class="st3" d="M10.4,2.5H13c0.6,0,1,0.4,1,1v1c0,0.6-0.4,1-1,1H5c-0.6,0-1-0.4-1-1v-1c0-0.6,0.4-1,1-1h2.6"/>
      <path class="st2" d="M13,6H5C4.1,6,3.5,5.4,3.5,4.5v-1C3.5,2.6,4.1,2,5,2h2.6c0.3,0,0.5,0.2,0.5,0.5S7.9,3,7.6,3H5
			C4.7,3,4.5,3.2,4.5,3.5v1C4.5,4.8,4.7,5,5,5h8c0.3,0,0.5-0.2,0.5-0.5v-1C13.5,3.2,13.3,3,13,3h-2.6c-0.3,0-0.5-0.2-0.5-0.5
			S10.1,2,10.4,2H13c0.9,0,1.5,0.6,1.5,1.5v1C14.5,5.4,13.9,6,13,6z"/>
	</g>
    <g>
		<path class="st4" d="M9,3.5c0.8,0,1.5-0.7,1.5-1.5S9.8,0.5,9,0.5S7.5,1.2,7.5,2S8.2,3.5,9,3.5z"/>
      <path class="st2"
            d="M9,4C7.9,4,7,3.1,7,2s0.9-2,2-2s2,0.9,2,2S10.1,4,9,4z M9,1C8.5,1,8,1.5,8,2s0.5,1,1,1s1-0.5,1-1S9.5,1,9,1z"
      />
	</g>
    <g>
		<path class="st5" d="M23,22.5c0,0.6-0.4,1-1,1h-9c-0.6,0-1-0.4-1-1V11c0-0.6,0.4-1,1-1h7.1c0.3,0,0.5,0.1,0.7,0.3l1.9,1.9
			c0.2,0.2,0.3,0.4,0.3,0.7V22.5z"/>
      <path class="st2" d="M22,24h-9c-0.9,0-1.5-0.6-1.5-1.5V11c0-0.9,0.6-1.5,1.5-1.5h7.1c0.4,0,0.7,0.1,1.1,0.4l1.9,1.9
			c0.3,0.3,0.4,0.6,0.4,1.1v9.6C23.5,23.4,22.9,24,22,24z M13,10.5c-0.3,0-0.5,0.2-0.5,0.5v11.5c0,0.3,0.2,0.5,0.5,0.5h9
			c0.3,0,0.5-0.2,0.5-0.5v-9.6c0-0.1,0-0.2-0.2-0.3l-1.9-1.9c-0.1-0.1-0.2-0.2-0.3-0.2H13z"/>
	</g>
    <g>
		<path class="st2" d="M20,18h-5c-0.3,0-0.5-0.2-0.5-0.5S14.7,17,15,17h5c0.3,0,0.5,0.2,0.5,0.5S20.3,18,20,18z M20,15h-5
			c-0.3,0-0.5-0.2-0.5-0.5S14.7,14,15,14h5c0.3,0,0.5,0.2,0.5,0.5S20.3,15,20,15z"/>
	</g>
</g>
</svg>
