<?xml version="1.0" encoding="utf-8"?>
<svg id="Layer_1" style="enable-background:new 0 0 161.1 161.1;" version="1.1" viewBox="0 0 161.1 161.1" x="0px"
     xml:space="preserve"
     xmlns="http://www.w3.org/2000/svg" xmlns:xlink="http://www.w3.org/1999/xlink" y="0px">
<style type="text/css">
	.st0 {
    fill: #0273FB;
  }

  .st1 {
    fill: #FFFFFF;
  }

  .st2 {
    fill: url(#SVGID_1_);
  }

  .st3 {
    fill: url(#SVGID_00000074418441897025351180000011478057226679132546_);
  }

  .st4 {
    fill: url(#SVGID_00000165218393224945261880000012201472827449642680_);
  }

  .st5 {
    fill: url(#SVGID_00000173856205073334435880000005454670643507717311_);
  }
</style>
  <g id="IoT_3_">
	<g id="XMLID_4_">
		<path class="st0" d="M88.6,125.1l0-8c4.2-1,8-2.6,11.5-4.8l5.7,5.7c2,2,5.3,2,7.3,0l4.2-4.2c2-2,2-5.3,0-7.3
			l-5.7-5.7c2.2-3.5,3.8-7.4,4.8-11.6h8c2.8,0,5.2-2.3,5.2-5.2v-6c0-2.9-2.3-5.2-5.2-5.2h-8c-0.9-4.1-2.5-7.9-4.7-11.4l5.7-5.6
			c2-2,2-5.3,0-7.3l-4.2-4.3c-2-2-5.3-2-7.3,0l-5.7,5.6c-3.5-2.2-7.4-3.9-11.5-4.8l0-8c0-2.9-2.3-5.2-5.1-5.2l-6,0
			c-2.8,0-5.2,2.3-5.2,5.2l0,8c-4.2,0.9-8,2.6-11.5,4.8l-5.6-5.7c-2-2-5.3-2-7.3,0L43.8,48c-2,2-2,5.3,0,7.3l5.6,5.7
			c-2.2,3.5-3.9,7.4-4.8,11.6l-8,0c-2.9,0-5.2,2.3-5.2,5.2l0,6c0,2.9,2.3,5.2,5.1,5.2l8,0c0.9,4.2,2.6,8.1,4.8,11.6l-5.7,5.7
			c-2,2-2,5.3,0,7.4l4.2,4.2c2,2,5.3,2,7.3,0l5.7-5.6c3.5,2.2,7.4,3.9,11.5,4.8l0,8c0,2.9,2.3,5.2,5.2,5.2h6
			C86.3,130.2,88.6,127.9,88.6,125.1z" id="XMLID_5_"/>
	</g>
</g>
  <g>
	<path class="st1" d="M66.7,70.1c-0.1-0.2-0.3-0.3-0.5-0.3h-5.8c-0.2,0-0.4,0.1-0.5,0.3l-7.7,20.4c-0.1,0.2,0,0.3,0.1,0.5
		c0.1,0.1,0.2,0.2,0.4,0.2h5.7c0.2,0,0.4-0.1,0.5-0.3l1.2-3.3h6.6l1.2,3.3c0.1,0.2,0.3,0.3,0.5,0.3H74c0.2,0,0.3-0.1,0.4-0.2
		c0.1-0.1,0.1-0.3,0.1-0.5L66.7,70.1z M61.7,82.8l1.6-4.8l1.6,4.8H61.7z"/>
    <path class="st1" d="M88.4,69.8H76.2c-0.3,0-0.5,0.2-0.5,0.5v20.4c0,0.3,0.2,0.5,0.5,0.5h5.3c0.3,0,0.5-0.2,0.5-0.5v-5.3h6.5
		c2.2,0,3.8-0.5,4.8-1.5c1-1,1.5-2.6,1.5-4.8v-2.9c0-2.2-0.5-3.8-1.5-4.8C92.2,70.3,90.6,69.8,88.4,69.8z M88.5,76.1v2.9
		c0,0.9-0.4,1.3-1.3,1.3h-5.3v-5.4h5.3C88.1,74.9,88.5,75.3,88.5,76.1z"/>
    <path class="st1" d="M107.2,74.9c0.3,0,0.5-0.2,0.5-0.5v-4.1c0-0.3-0.2-0.5-0.5-0.5H96.7c-0.3,0-0.5,0.2-0.5,0.5v4.1
		c0,0.3,0.2,0.5,0.5,0.5h2.1v11.3h-2.1c-0.3,0-0.5,0.2-0.5,0.5v4.1c0,0.3,0.2,0.5,0.5,0.5h10.5c0.3,0,0.5-0.2,0.5-0.5v-4.1
		c0-0.3-0.2-0.5-0.5-0.5h-2.1V74.9H107.2z"/>
</g>
  <g>
	<linearGradient gradientUnits="userSpaceOnUse" id="SVGID_1_" x1="39.1153" x2="106.6212" y1="2.1727" y2="71.3412">
    <stop offset="0" style="stop-color:var(--primary)"/>
    <stop offset="1" style="stop-color:var(--secondary)"/>
	</linearGradient>
    <path class="st2" d="M113,128.8c-1.4,0.9-1.7,2.8-0.8,4.2c0.6,0.9,1.5,1.3,2.5,1.3c0.6,0,1.2-0.2,1.7-0.5
		c17.7-12,28.3-31.9,28.3-53.2c0-35.4-28.8-64.2-64.2-64.2c-1.9,0-3.8,0.1-5.8,0.3c-1.5-2.6-4.3-4.4-7.5-4.4c-4.8,0-8.6,3.9-8.6,8.6
		c0,4.8,3.9,8.7,8.6,8.7c4.2,0,7.7-3,8.5-7c1.6-0.1,3.2-0.2,4.8-0.2c32.1,0,58.2,26.1,58.2,58.2C138.7,99.9,129.1,117.9,113,128.8z
		 M67.2,23.5c-1.5,0-2.6-1.2-2.6-2.7c0-1.5,1.2-2.6,2.6-2.6c1.5,0,2.7,1.2,2.7,2.6C69.9,22.3,68.7,23.5,67.2,23.5z"/>

    <linearGradient gradientUnits="userSpaceOnUse" id="SVGID_00000012467501075571943200000008054367176849789069_"
                    x1="3.0087" x2="70.5145" y1="37.4113" y2="106.5799">
                    <stop offset="0" style="stop-color:var(--primary)"/>
                    <stop offset="1" style="stop-color:var(--secondary)"/>
	</linearGradient>
    <path d="M47.6,32.6c1.4-0.9,1.7-2.8,0.8-4.2
		c-0.9-1.4-2.8-1.7-4.2-0.8c-17.4,12-27.8,31.8-27.8,52.9c0,35.4,28.8,64.2,64.2,64.2c1.8,0,3.6-0.1,5.4-0.3
		c1.5,2.7,4.3,4.5,7.6,4.5c4.8,0,8.7-3.9,8.7-8.7s-3.9-8.6-8.7-8.6c-4.2,0-7.7,3-8.5,6.9c-1.5,0.1-3,0.2-4.5,0.2
		c-32.1,0-58.2-26.1-58.2-58.2C22.4,61.4,31.8,43.5,47.6,32.6z M93.5,137.6c1.5,0,2.7,1.2,2.7,2.6c0,1.5-1.2,2.7-2.7,2.7
		c-1.5,0-2.6-1.2-2.6-2.7C90.9,138.8,92.1,137.6,93.5,137.6z" style="fill:url(#SVGID_00000012467501075571943200000008054367176849789069_);"/>

    <linearGradient gradientUnits="userSpaceOnUse" id="SVGID_00000067222877284067276080000017146469877476760729_"
                    x1="21.7029" x2="89.2087" y1="19.1665" y2="88.3351">
                    <stop offset="0" style="stop-color:var(--primary)"/>
                    <stop offset="1" style="stop-color:var(--secondary)"/>
	</linearGradient>
    <path d="M156.5,53.8c1.8-1.6,2.9-3.9,2.9-6.4
		c0-4.8-3.9-8.6-8.7-8.6s-8.6,3.9-8.6,8.6s3.9,8.6,8.6,8.6c0.1,0,0.1,0,0.2,0c2.7,7.9,4.2,16.1,4.2,24.6c0,41.1-33.4,74.5-74.5,74.5
		c-21.2,0-41.4-9.1-55.5-24.8c-1.1-1.2-3-1.3-4.2-0.2c-1.2,1.1-1.3,3-0.2,4.2c15.3,17.1,37.1,26.8,60,26.8
		c44.4,0,80.5-36.1,80.5-80.5C161.1,71.3,159.5,62.3,156.5,53.8z M148,47.3c0-1.5,1.2-2.6,2.6-2.6c1.5,0,2.7,1.2,2.7,2.6
		s-1.2,2.6-2.7,2.6C149.2,50,148,48.8,148,47.3z" style="fill:url(#SVGID_00000067222877284067276080000017146469877476760729_);"/>

    <linearGradient gradientUnits="userSpaceOnUse" id="SVGID_00000072981475177889392010000011717714246425084804_"
                    x1="20.7029" x2="88.2087" y1="20.1425" y2="89.311">
                    <stop offset="0" style="stop-color:var(--primary)"/>
                    <stop offset="1" style="stop-color:var(--secondary)"/>
	</linearGradient>
    <path d="M10,104.4c0,0-0.1,0-0.1,0
		C7.3,96.7,6,88.7,6,80.5C6,39.4,39.4,6,80.5,6c21.1,0,41.3,9,55.4,24.7c1.1,1.2,3,1.3,4.2,0.2c1.2-1.1,1.3-3,0.2-4.2
		C125.1,9.7,103.3,0,80.5,0C36.1,0,0,36.1,0,80.5c0,8.9,1.5,17.7,4.3,26c-1.8,1.6-2.9,3.9-2.9,6.5c0,4.8,3.9,8.6,8.7,8.6
		s8.6-3.9,8.6-8.6S14.8,104.4,10,104.4z M10,115.7c-1.5,0-2.7-1.2-2.7-2.6c0-1.5,1.2-2.7,2.7-2.7c1.5,0,2.6,1.2,2.6,2.7
		C12.7,114.5,11.5,115.7,10,115.7z" style="fill:url(#SVGID_00000072981475177889392010000011717714246425084804_);"/>
</g>
</svg>
