<?xml version="1.0" encoding="utf-8"?>
<!-- Generator: Adobe Illustrator 23.0.3, SVG Export Plug-In . SVG Version: 6.00 Build 0)  -->
<svg version="1.1" id="Layer_1" xmlns="http://www.w3.org/2000/svg" xmlns:xlink="http://www.w3.org/1999/xlink" x="0px" y="0px"
	 viewBox="0 0 75 75" style="enable-background:new 0 0 75 75;" xml:space="preserve">
<style type="text/css">
	.st0{fill:#658292;}
	.st1{fill:none;stroke:#658292;stroke-width:0.6;stroke-linecap:round;stroke-linejoin:round;stroke-miterlimit:10;}
</style>
<g>
	<g>
		<path class="st0" d="M15.1,3.1c-0.9,0-1.2-0.2-1.5-0.4c-0.2-0.2-0.5-0.3-1.4-0.3c-0.8,0-0.9,0.1-1.1,0.3c-0.2,0.1-0.4,0.3-1,0.4
			C9.8,3.1,9.7,3,9.7,2.9c0-0.2,0.1-0.3,0.3-0.3c0.4,0,0.5-0.1,0.7-0.3c0.3-0.2,0.6-0.4,1.5-0.4c1.1,0,1.5,0.2,1.8,0.4
			c0.2,0.1,0.4,0.3,1.2,0.3c0.2,0,0.3,0.1,0.3,0.3S15.2,3.1,15.1,3.1z"/>
	</g>
	<g>
		<path class="st1" d="M9.2,2.8"/>
	</g>
	<g>
		<path class="st0" d="M8.4,3.1C8.4,3.1,8.4,3.1,8.4,3.1c-0.6-0.1-0.8-0.2-1-0.4C7.2,2.6,7.1,2.5,6.3,2.5c-0.8,0-1,0.1-1.2,0.3
			c-0.2,0.1-0.4,0.3-1,0.4C4,3.1,3.8,3,3.8,2.9c0-0.2,0.1-0.3,0.3-0.3c0.4,0,0.5-0.1,0.7-0.2C5,2,5.3,1.9,6.3,1.9
			c1,0,1.3,0.2,1.5,0.4C7.9,2.4,8,2.5,8.4,2.5c0.2,0,0.3,0.2,0.3,0.3C8.7,3,8.5,3.1,8.4,3.1z"/>
	</g>
	<g>
		<path class="st1" d="M3.3,2.8"/>
	</g>
	<g>
		<path class="st0" d="M2.4,3.1C2.4,3.1,2.4,3.1,2.4,3.1c-0.6-0.1-0.8-0.2-1-0.4C1.2,2.6,1.1,2.5,0.3,2.5C0.2,2.5,0,2.3,0,2.2
			s0.1-0.3,0.3-0.3c0.9,0,1.2,0.2,1.5,0.4C1.9,2.4,2,2.5,2.4,2.5c0.2,0,0.3,0.2,0.3,0.3C2.7,3,2.5,3.1,2.4,3.1z"/>
	</g>
	<g>
		<path class="st0" d="M15.1,10c-0.9,0-1.2-0.2-1.5-0.4c-0.2-0.2-0.5-0.3-1.4-0.3c-0.8,0-1,0.1-1.2,0.3c-0.2,0.1-0.4,0.3-0.9,0.4
			c-0.2,0-0.3-0.1-0.3-0.3c0-0.2,0.1-0.3,0.3-0.3c0.4-0.1,0.5-0.1,0.6-0.3c0.3-0.2,0.6-0.4,1.5-0.4c1.1,0,1.5,0.2,1.8,0.4
			c0.2,0.1,0.4,0.3,1.2,0.3c0.2,0,0.3,0.1,0.3,0.3S15.2,10,15.1,10z"/>
	</g>
	<g>
		<path class="st1" d="M9.2,9.7"/>
	</g>
	<g>
		<path class="st0" d="M4.1,10c-0.2,0-0.3-0.1-0.3-0.3c0-0.2,0.1-0.3,0.3-0.3c0.4,0,0.5-0.1,0.7-0.2C5,8.9,5.3,8.7,6.3,8.7
			c1,0,1.3,0.2,1.5,0.4C7.9,9.2,8,9.3,8.4,9.4c0.2,0,0.3,0.2,0.3,0.3c0,0.2-0.2,0.3-0.3,0.3C7.7,9.9,7.5,9.7,7.4,9.6
			C7.2,9.4,7.1,9.3,6.3,9.3c-0.8,0-1,0.1-1.2,0.3C4.9,9.7,4.7,9.9,4.1,10C4.1,10,4.1,10,4.1,10z"/>
	</g>
	<g>
		<path class="st1" d="M3.3,9.7"/>
	</g>
	<g>
		<path class="st0" d="M2.5,10C2.5,10,2.4,10,2.5,10c-0.6-0.1-0.8-0.2-1-0.4C1.3,9.4,1.1,9.3,0.3,9.3C0.2,9.3,0,9.2,0,9
			c0-0.2,0.1-0.3,0.3-0.3c0.9,0,1.2,0.2,1.5,0.4C2,9.2,2.1,9.3,2.5,9.4c0.2,0,0.3,0.2,0.3,0.3C2.7,9.8,2.6,10,2.5,10z"/>
	</g>
	<g>
		<path class="st0" d="M0.3,6.6C0.1,6.6,0,6.4,0,6.3S0.1,6,0.3,6c0.9,0,1.1-0.2,1.4-0.3c0.3-0.2,0.7-0.4,1.5-0.4
			c0.9,0,1.2,0.2,1.4,0.4c0.1,0.1,0.3,0.2,0.7,0.3c0.2,0,0.3,0.2,0.3,0.3c0,0.2-0.2,0.3-0.3,0.3C4.8,6.5,4.5,6.3,4.3,6.1
			C4.1,6,4,5.9,3.3,5.9C2.5,5.9,2.3,6,2,6.2C1.7,6.4,1.3,6.6,0.3,6.6z"/>
	</g>
	<g>
		<path class="st1" d="M6.2,6.3"/>
	</g>
	<g>
		<path class="st0" d="M11.3,6.6C11.3,6.6,11.3,6.6,11.3,6.6c-0.7-0.1-0.9-0.2-1.1-0.4C10,6,9.9,5.9,9.2,5.9C8.3,5.9,8.2,6,8,6.2
			C7.8,6.3,7.6,6.5,7,6.5c-0.2,0-0.3-0.1-0.3-0.3C6.7,6.1,6.8,6,7,5.9c0.4,0,0.5-0.1,0.7-0.2c0.3-0.2,0.6-0.4,1.5-0.4
			c0.9,0,1.2,0.2,1.4,0.4c0.1,0.1,0.2,0.2,0.7,0.3c0.2,0,0.3,0.2,0.3,0.3C11.6,6.4,11.4,6.6,11.3,6.6z"/>
	</g>
	<g>
		<path class="st1" d="M12.1,6.3"/>
	</g>
	<g>
		<path class="st0" d="M12.8,6.5c-0.1,0-0.3-0.1-0.3-0.3c0-0.2,0.1-0.3,0.3-0.3c0.4-0.1,0.5-0.1,0.7-0.3c0.3-0.2,0.6-0.4,1.6-0.4
			c0.2,0,0.3,0.1,0.3,0.3s-0.1,0.3-0.3,0.3c-0.8,0-1,0.1-1.3,0.3C13.6,6.3,13.4,6.4,12.8,6.5C12.9,6.5,12.9,6.5,12.8,6.5z"/>
	</g>
	<g>
		<path class="st0" d="M0.3,13.4c-0.2,0-0.3-0.1-0.3-0.3s0.1-0.3,0.3-0.3c0.9,0,1.1-0.2,1.4-0.3c0.3-0.2,0.7-0.4,1.5-0.4
			c0.9,0,1.2,0.2,1.4,0.4c0.1,0.1,0.3,0.2,0.7,0.3c0.2,0,0.3,0.2,0.3,0.3c0,0.2-0.2,0.3-0.3,0.3c-0.6-0.1-0.8-0.2-1-0.4
			c-0.2-0.1-0.3-0.2-1-0.2c-0.7,0-0.9,0.1-1.2,0.3C1.7,13.2,1.3,13.4,0.3,13.4z"/>
	</g>
	<g>
		<path class="st1" d="M6.2,13.1"/>
	</g>
	<g>
		<path class="st0" d="M11.3,13.4C11.2,13.4,11.2,13.4,11.3,13.4c-0.6-0.1-0.8-0.2-1.1-0.4c-0.2-0.1-0.3-0.3-1-0.3
			c-0.8,0-1,0.1-1.2,0.3S7.6,13.3,7,13.4c-0.2,0-0.3-0.1-0.3-0.3c0-0.2,0.1-0.3,0.3-0.3c0.4,0,0.5-0.1,0.7-0.2
			c0.3-0.2,0.6-0.4,1.5-0.4c0.9,0,1.2,0.2,1.4,0.4c0.1,0.1,0.2,0.2,0.7,0.3c0.2,0,0.3,0.2,0.3,0.3C11.5,13.3,11.4,13.4,11.3,13.4z"
			/>
	</g>
	<g>
		<path class="st1" d="M12.1,13.1"/>
	</g>
	<g>
		<path class="st0" d="M12.8,13.4c-0.1,0-0.3-0.1-0.3-0.3c0-0.2,0.1-0.3,0.3-0.3c0.4-0.1,0.5-0.1,0.7-0.3c0.3-0.2,0.6-0.4,1.6-0.4
			c0.2,0,0.3,0.1,0.3,0.3s-0.1,0.3-0.3,0.3c-0.8,0-1,0.1-1.3,0.3C13.6,13.1,13.4,13.3,12.8,13.4C12.9,13.4,12.8,13.4,12.8,13.4z"/>
	</g>
	<g>
		<path class="st0" d="M6.2,1.7C6,1.7,5.9,1.6,5.9,1.4V0.3C5.9,0.1,6,0,6.2,0s0.3,0.1,0.3,0.3v1.1C6.5,1.6,6.4,1.7,6.2,1.7z"/>
	</g>
	<g>
		<path class="st0" d="M6.2,8.5C6,8.5,5.9,8.3,5.9,8.2V3c0-0.2,0.1-0.3,0.3-0.3S6.5,2.8,6.5,3v5.2C6.5,8.3,6.4,8.5,6.2,8.5z"/>
	</g>
	<g>
		<path class="st0" d="M6.2,15.4c-0.2,0-0.3-0.1-0.3-0.3V9.8c0-0.2,0.1-0.3,0.3-0.3s0.3,0.1,0.3,0.3v5.3C6.5,15.2,6.4,15.4,6.2,15.4
			z"/>
	</g>
	<g>
		<path class="st0" d="M9.2,5.1C9,5.1,8.9,5,8.9,4.8V0.3C8.9,0.1,9,0,9.2,0s0.3,0.1,0.3,0.3v4.5C9.5,5,9.3,5.1,9.2,5.1z"/>
	</g>
	<g>
		<path class="st0" d="M9.2,11.9c-0.2,0-0.3-0.1-0.3-0.3V6.3C8.9,6.2,9,6,9.2,6s0.3,0.1,0.3,0.3v5.3C9.5,11.8,9.3,11.9,9.2,11.9z"/>
	</g>
	<g>
		<path class="st0" d="M9.2,15.4c-0.2,0-0.3-0.1-0.3-0.3v-1.8c0-0.2,0.1-0.3,0.3-0.3s0.3,0.1,0.3,0.3v1.8
			C9.5,15.2,9.3,15.4,9.2,15.4z"/>
	</g>
	<g>
		<path class="st0" d="M3.3,5.2C3.1,5.2,3,5,3,4.9V0.3C3,0.1,3.1,0,3.3,0s0.3,0.1,0.3,0.3v4.6C3.6,5,3.4,5.2,3.3,5.2z"/>
	</g>
	<g>
		<path class="st0" d="M3.3,11.8c-0.2,0-0.3-0.1-0.3-0.3V6.3C3,6.2,3.1,6,3.3,6s0.3,0.1,0.3,0.3v5.2C3.6,11.7,3.4,11.8,3.3,11.8z"/>
	</g>
	<g>
		<path class="st0" d="M3.3,15.4c-0.2,0-0.3-0.1-0.3-0.3v-1.8C3,13.1,3.1,13,3.3,13s0.3,0.1,0.3,0.3v1.8C3.6,15.2,3.4,15.4,3.3,15.4
			z"/>
	</g>
	<g>
		<path class="st0" d="M12.1,1.7c-0.2,0-0.3-0.1-0.3-0.3V0.3c0-0.2,0.1-0.3,0.3-0.3s0.3,0.1,0.3,0.3v1.1C12.4,1.5,12.3,1.7,12.1,1.7
			z"/>
	</g>
	<g>
		<path class="st0" d="M12.1,8.3c-0.2,0-0.3-0.1-0.3-0.3V2.9c0-0.2,0.1-0.3,0.3-0.3s0.3,0.1,0.3,0.3V8C12.4,8.2,12.3,8.3,12.1,8.3z"
			/>
	</g>
	<g>
		<path class="st0" d="M12.1,15.4c-0.2,0-0.3-0.1-0.3-0.3V9.8c0-0.2,0.1-0.3,0.3-0.3s0.3,0.1,0.3,0.3v5.3
			C12.4,15.2,12.3,15.4,12.1,15.4z"/>
	</g>
</g>
</svg>
