<?xml version="1.0" encoding="utf-8"?>
<svg width="24" height="36" viewBox="0 0 24.7 36.3" fill="none" xmlns="http://www.w3.org/2000/svg">
  <path d="M 24.36 12.332 C 24.36 19.236 20.723 26.871 13.121 35.621 C 13.042 35.71 12.498 35.963 12.368 35.968 C 12.238 35.973 11.639 35.736 11.591 35.638 C 4.442 27.705 0.36 18.824 0.36 11.928 C 0.36 5.301 5.733 0.332 12.36 0.332 C 18.987 0.332 24.36 5.705 24.36 12.332 Z" style="stroke-width: 0.6px; stroke: rgb(4, 37, 146); fill: rgb(200, 212, 255);"/>
  <circle cx="12" cy="11.75" r="7.5" style="stroke: rgb(0, 39, 171); stroke-width: 0px;" transform="matrix(1, 0, 0, 0.999999, 0.360211, 0.481889)" fill="white"/>
  <g id="icomoon-ignore" transform="matrix(0.021365, 0, 0, 0.021268, -0.997188, -0.59685)" style=""/>
  <path d="M 20.76 12.196 C 20.76 7.602 16.97 3.832 12.36 3.832 C 7.746 3.832 3.96 7.602 3.96 12.196 C 3.96 16.784 7.746 20.554 12.36 20.554 C 16.97 20.554 20.76 16.784 20.76 12.196 Z M 12.358 19.631 C 8.241 19.631 4.947 16.294 4.86 12.232 C 4.947 8.095 8.243 4.813 12.36 4.732 C 16.477 4.813 19.771 8.095 19.86 12.232 C 19.771 16.294 16.477 19.573 12.36 19.632 L 12.358 19.631 Z" style="fill-rule: nonzero; paint-order: fill; stroke: rgb(0, 39, 171); fill: rgb(0, 39, 171); stroke-width: 0px;"/>
  <path d="M 14.105 14.23 L 7.266 14.23 C 7.143 14.23 7.042 14.128 7.042 14.002 L 7.042 7.634 C 7.042 7.51 7.143 7.407 7.266 7.407 C 7.389 7.407 7.489 7.51 7.489 7.634 L 7.489 13.776 L 14.105 13.776 C 14.229 13.776 14.329 13.878 14.329 14.002 C 14.329 14.128 14.229 14.23 14.105 14.23 Z M 16.737 11.228 C 16.612 11.228 16.512 11.128 16.512 11.002 L 16.512 7.827 L 7.266 7.827 C 7.143 7.827 7.042 7.726 7.042 7.6 C 7.042 7.476 7.143 7.374 7.266 7.374 L 16.737 7.374 C 16.86 7.374 16.96 7.476 16.96 7.6 L 16.96 11.002 C 16.96 11.128 16.86 11.228 16.737 11.228 Z M 14.056 16.363 L 9.847 16.363 C 9.724 16.363 9.624 16.261 9.624 16.136 C 9.624 16.011 9.724 15.91 9.847 15.91 L 14.056 15.91 C 14.18 15.91 14.28 16.011 14.28 16.136 C 14.28 16.261 14.18 16.363 14.056 16.363 Z M 14.105 12.629 L 7.266 12.629 C 7.143 12.629 7.042 12.527 7.042 12.403 C 7.042 12.277 7.143 12.176 7.266 12.176 L 14.105 12.176 C 14.229 12.176 14.329 12.277 14.329 12.403 C 14.329 12.527 14.229 12.629 14.105 12.629 Z M 17.942 16.395 L 15.158 16.395 C 15.034 16.395 14.935 16.295 14.935 16.169 L 14.935 11.934 C 14.935 11.81 15.034 11.708 15.158 11.708 L 17.942 11.708 C 18.065 11.708 18.165 11.81 18.165 11.934 L 18.165 16.17 C 18.165 16.295 18.065 16.395 17.942 16.395 Z M 15.381 15.943 L 17.718 15.943 L 17.718 12.162 L 15.381 12.162 L 15.381 15.943 Z M 15.421 10.762 C 15.363 10.762 15.306 10.739 15.263 10.696 L 13.684 9.095 C 13.597 9.007 13.597 8.863 13.684 8.774 C 13.772 8.685 13.913 8.685 14.002 8.774 L 15.579 10.374 C 15.666 10.464 15.666 10.607 15.579 10.696 C 15.536 10.739 15.478 10.762 15.421 10.762 Z M 15.684 9.428 C 15.628 9.428 15.569 9.407 15.526 9.362 L 14.999 8.828 C 14.913 8.74 14.913 8.596 14.999 8.509 C 15.087 8.419 15.228 8.419 15.316 8.509 L 15.842 9.041 C 15.929 9.13 15.929 9.273 15.842 9.362 C 15.799 9.407 15.74 9.428 15.684 9.428 Z M 13.037 16.363 C 12.914 16.363 12.813 16.261 12.813 16.136 L 12.813 14.019 C 12.813 13.894 12.913 13.792 13.037 13.792 C 13.16 13.792 13.26 13.893 13.26 14.019 L 13.26 16.136 C 13.26 16.261 13.16 16.363 13.037 16.363 Z M 12.232 13.202 C 12.232 13.35 12.114 13.468 11.968 13.468 C 11.823 13.468 11.705 13.35 11.705 13.202 C 11.705 13.056 11.823 12.935 11.968 12.935 C 12.114 12.935 12.232 13.056 12.232 13.202 Z M 10.9 16.313 C 10.776 16.313 10.677 16.212 10.677 16.086 L 10.677 14.17 C 10.677 14.044 10.775 13.942 10.9 13.942 C 11.024 13.942 11.123 14.043 11.123 14.17 L 11.123 16.086 C 11.123 16.211 11.023 16.313 10.9 16.313 Z M 16.792 15.434 C 16.792 15.561 16.689 15.665 16.564 15.665 C 16.438 15.665 16.337 15.561 16.337 15.434 C 16.337 15.305 16.438 15.203 16.564 15.203 C 16.689 15.203 16.792 15.305 16.792 15.434 Z" style="fill: rgb(0, 39, 171); stroke-width: 0.2px; stroke: rgb(0, 39, 171);"/>
</svg>