<?xml version="1.0" encoding="utf-8"?>
<svg width="24" height="24" viewBox="0 0 24 24" fill="none" xmlns="http://www.w3.org/2000/svg">
  <circle cx="12" cy="12" r="11" style="stroke-width: 0.6px; stroke: rgb(4, 37, 146); fill: rgb(60, 96, 222);"/>
  <circle cx="12" cy="12" r="8.5" fill="white" style="" transform="matrix(1.018225, 0, 0, 1.007795, -0.49749, -0.240851)"/>
  <g id="icomoon-ignore" style=""/>
  <path d="M 11.992 21.008 C 7.049 21.016 2.993 16.964 2.993 12.027 C 2.993 7.082 7.049 3.016 11.992 3.008 C 16.932 3 20.993 7.051 20.993 11.995 C 20.993 16.933 16.932 20.999 11.992 21.008 Z M 20.367 11.974 C 20.367 7.359 16.577 3.578 11.966 3.586 C 7.353 3.594 3.567 7.389 3.567 12.004 C 3.567 16.612 7.353 20.394 11.966 20.386 C 16.577 20.377 20.367 16.582 20.367 11.974 Z" style="fill-rule: nonzero; paint-order: fill; stroke-width: 0px; stroke: rgb(4, 37, 146); fill: rgb(4, 37, 146);"/>
  <path d="M 13.932 14.569 L 6.392 14.583 C 6.256 14.584 6.146 14.47 6.146 14.329 L 6.146 7.232 C 6.146 7.095 6.256 6.979 6.392 6.978 C 6.528 6.978 6.639 7.094 6.639 7.231 L 6.639 14.077 L 13.932 14.064 C 14.067 14.064 14.178 14.175 14.178 14.314 C 14.178 14.455 14.067 14.569 13.932 14.569 Z M 16.831 11.218 C 16.695 11.218 16.584 11.106 16.584 10.966 L 16.584 7.426 L 6.392 7.445 C 6.256 7.446 6.146 7.334 6.146 7.195 C 6.146 7.056 6.256 6.942 6.392 6.941 L 16.831 6.923 C 16.969 6.923 17.078 7.037 17.078 7.175 L 17.078 10.966 C 17.078 11.106 16.969 11.218 16.831 11.218 Z M 13.877 16.947 L 9.238 16.955 C 9.102 16.955 8.992 16.842 8.992 16.703 C 8.992 16.562 9.102 16.45 9.238 16.45 L 13.877 16.442 C 14.014 16.442 14.124 16.552 14.124 16.693 C 14.124 16.832 14.014 16.947 13.877 16.947 Z M 13.932 12.785 L 6.392 12.798 C 6.256 12.799 6.146 12.685 6.146 12.546 C 6.146 12.406 6.256 12.295 6.392 12.294 L 13.932 12.281 C 14.067 12.281 14.178 12.391 14.178 12.531 C 14.178 12.669 14.067 12.785 13.932 12.785 Z M 18.16 16.974 L 15.092 16.979 C 14.955 16.979 14.846 16.867 14.846 16.727 L 14.846 12.008 C 14.846 11.87 14.955 11.756 15.092 11.756 L 18.16 11.751 C 18.297 11.751 18.406 11.863 18.406 12.002 L 18.406 16.722 C 18.406 16.861 18.297 16.974 18.16 16.974 Z M 15.337 16.475 L 17.914 16.471 L 17.914 12.255 L 15.337 12.259 L 15.337 16.475 Z M 15.381 10.699 C 15.317 10.7 15.254 10.677 15.209 10.628 L 13.467 8.848 C 13.372 8.749 13.372 8.589 13.467 8.489 C 13.564 8.39 13.719 8.39 13.818 8.488 L 15.555 10.269 C 15.65 10.368 15.65 10.528 15.555 10.627 C 15.509 10.676 15.444 10.699 15.381 10.699 Z M 15.672 9.213 C 15.61 9.213 15.544 9.191 15.498 9.141 L 14.916 8.547 C 14.821 8.45 14.821 8.288 14.916 8.192 C 15.013 8.09 15.169 8.09 15.266 8.192 L 15.844 8.783 C 15.94 8.88 15.94 9.04 15.844 9.141 C 15.798 9.191 15.734 9.213 15.672 9.213 Z M 12.754 16.949 C 12.619 16.949 12.507 16.835 12.507 16.696 L 12.507 14.335 C 12.507 14.195 12.618 14.084 12.754 14.084 C 12.89 14.084 13 14.193 13 14.334 L 13 16.695 C 13 16.834 12.89 16.949 12.754 16.949 Z M 11.866 13.426 C 11.866 13.591 11.735 13.722 11.575 13.723 C 11.416 13.723 11.286 13.592 11.286 13.427 C 11.286 13.265 11.416 13.13 11.575 13.13 C 11.735 13.129 11.866 13.264 11.866 13.426 Z M 10.4 16.895 C 10.261 16.895 10.152 16.785 10.152 16.644 L 10.152 14.507 C 10.152 14.369 10.26 14.255 10.4 14.255 C 10.534 14.254 10.645 14.366 10.645 14.506 L 10.645 16.643 C 10.645 16.783 10.533 16.894 10.4 16.895 Z M 16.893 15.905 C 16.893 16.047 16.781 16.163 16.642 16.163 C 16.503 16.164 16.391 16.048 16.391 15.906 C 16.391 15.762 16.503 15.649 16.642 15.648 C 16.781 15.648 16.893 15.761 16.893 15.905 Z" style="stroke: rgb(0, 39, 171); fill: rgb(4, 37, 146); stroke-width: 0px;"/>
</svg>