<?xml version="1.0" encoding="utf-8"?>
<svg width="24" height="36" viewBox="0 0 24.7 33.2" fill="none" xmlns="http://www.w3.org/2000/svg">
  <path d="M 24.36 11.281 C 24.36 17.581 20.723 24.548 13.121 32.532 C 13.042 32.613 12.498 32.844 12.368 32.848 C 12.238 32.853 11.639 32.637 11.591 32.547 C 4.442 25.309 0.36 17.205 0.36 10.913 C 0.36 4.866 5.733 0.332 12.36 0.332 C 18.987 0.332 24.36 5.235 24.36 11.281 Z" style="stroke-width: 0.6px; stroke: rgb(4, 37, 146); fill: rgb(200, 212, 255);"/>
  <circle cx="12" cy="11.75" r="7.5" style="stroke: rgb(0, 39, 171); stroke-width: 0px;" transform="matrix(1.120066, -0.002022, 0, 1.126508, -1.056294, -1.03902)" fill="white"/>
  <g id="icomoon-ignore" transform="matrix(0.021365, 0, 0, 0.021268, -0.997188, -0.59685)" style=""/>
  <path d="M 12.425 21.222 C 7.482 21.23 3.426 17.178 3.426 12.241 C 3.426 7.296 7.482 3.23 12.425 3.222 C 17.365 3.214 21.426 7.265 21.426 12.209 C 21.426 17.147 17.365 21.213 12.425 21.222 Z M 20.8 12.188 C 20.8 7.573 17.01 3.792 12.399 3.8 C 7.786 3.808 4 7.603 4 12.218 C 4 16.826 7.786 20.608 12.399 20.6 C 17.01 20.591 20.8 16.796 20.8 12.188 Z" style="fill-rule: nonzero; paint-order: fill; stroke: rgb(0, 39, 171); fill: rgb(0, 39, 171); stroke-width: 0px;"/>
  <path d="M 14.355 14.398 L 6.815 14.412 C 6.679 14.413 6.569 14.299 6.569 14.158 L 6.569 7.061 C 6.569 6.924 6.679 6.808 6.815 6.807 C 6.951 6.807 7.062 6.923 7.062 7.06 L 7.062 13.906 L 14.355 13.893 C 14.49 13.893 14.601 14.004 14.601 14.143 C 14.601 14.284 14.49 14.398 14.355 14.398 Z M 17.254 11.047 C 17.118 11.047 17.007 10.935 17.007 10.795 L 17.007 7.255 L 6.815 7.274 C 6.679 7.275 6.569 7.163 6.569 7.024 C 6.569 6.885 6.679 6.771 6.815 6.77 L 17.254 6.752 C 17.392 6.752 17.501 6.866 17.501 7.004 L 17.501 10.795 C 17.501 10.935 17.392 11.047 17.254 11.047 Z M 14.3 16.776 L 9.661 16.784 C 9.525 16.784 9.415 16.671 9.415 16.532 C 9.415 16.391 9.525 16.279 9.661 16.279 L 14.3 16.271 C 14.437 16.271 14.547 16.381 14.547 16.522 C 14.547 16.661 14.437 16.776 14.3 16.776 Z M 14.355 12.614 L 6.815 12.627 C 6.679 12.628 6.569 12.514 6.569 12.375 C 6.569 12.235 6.679 12.124 6.815 12.123 L 14.355 12.11 C 14.49 12.11 14.601 12.22 14.601 12.36 C 14.601 12.498 14.49 12.614 14.355 12.614 Z M 18.583 16.803 L 15.515 16.808 C 15.378 16.808 15.269 16.696 15.269 16.556 L 15.269 11.837 C 15.269 11.699 15.378 11.585 15.515 11.585 L 18.583 11.58 C 18.72 11.58 18.829 11.692 18.829 11.831 L 18.829 16.551 C 18.829 16.69 18.72 16.803 18.583 16.803 Z M 15.76 16.304 L 18.337 16.3 L 18.337 12.084 L 15.76 12.088 L 15.76 16.304 Z M 15.804 10.528 C 15.74 10.529 15.677 10.506 15.632 10.457 L 13.89 8.677 C 13.795 8.578 13.795 8.418 13.89 8.318 C 13.987 8.219 14.142 8.219 14.241 8.317 L 15.978 10.098 C 16.073 10.197 16.073 10.357 15.978 10.456 C 15.932 10.505 15.867 10.528 15.804 10.528 Z M 16.095 9.042 C 16.033 9.042 15.967 9.02 15.921 8.97 L 15.339 8.376 C 15.244 8.279 15.244 8.117 15.339 8.021 C 15.436 7.919 15.592 7.919 15.689 8.021 L 16.267 8.612 C 16.363 8.709 16.363 8.869 16.267 8.97 C 16.221 9.02 16.157 9.042 16.095 9.042 Z M 13.177 16.778 C 13.042 16.778 12.93 16.664 12.93 16.525 L 12.93 14.164 C 12.93 14.024 13.041 13.913 13.177 13.913 C 13.313 13.913 13.423 14.022 13.423 14.163 L 13.423 16.524 C 13.423 16.663 13.313 16.778 13.177 16.778 Z M 12.289 13.255 C 12.289 13.42 12.158 13.551 11.998 13.552 C 11.839 13.552 11.709 13.421 11.709 13.256 C 11.709 13.094 11.839 12.959 11.998 12.959 C 12.158 12.958 12.289 13.093 12.289 13.255 Z M 10.823 16.724 C 10.684 16.724 10.575 16.614 10.575 16.473 L 10.575 14.336 C 10.575 14.198 10.683 14.084 10.823 14.084 C 10.957 14.083 11.068 14.195 11.068 14.335 L 11.068 16.472 C 11.068 16.612 10.956 16.723 10.823 16.724 Z M 17.316 15.734 C 17.316 15.876 17.204 15.992 17.065 15.992 C 16.926 15.993 16.814 15.877 16.814 15.735 C 16.814 15.591 16.926 15.478 17.065 15.477 C 17.204 15.477 17.316 15.59 17.316 15.734 Z" style="fill: rgb(0, 39, 171); stroke: rgb(0, 39, 171); stroke-width: 0.1px;"/>
</svg>