<?xml version="1.0" encoding="utf-8"?>
<svg xmlns="http://www.w3.org/2000/svg" viewBox="-73.1 59 70 70.7" width="279.555px" height="145.215px">
  <defs>
    <linearGradient id="linear-gradient" x1="227.21" y1="736.42" x2="159.95" y2="707.42" gradientTransform="matrix(0.989374, 0.145392, -0.145392, 0.989374, -112.474937, -652.052246)" gradientUnits="userSpaceOnUse">
      <stop offset="0.26" stop-color="#035ce6"/>
      <stop offset="0.32" stop-color="#1478c0"/>
      <stop offset="0.4" stop-color="#2ba08d"/>
      <stop offset="0.48" stop-color="#3dbf64"/>
      <stop offset="0.55" stop-color="#4bd547"/>
      <stop offset="0.61" stop-color="#53e336"/>
      <stop offset="0.66" stop-color="#56e830"/>
      <stop offset="0.68" stop-color="#5ce058"/>
      <stop offset="0.71" stop-color="#63d884"/>
      <stop offset="0.73" stop-color="#6ad1aa"/>
      <stop offset="0.76" stop-color="#6fcbc9"/>
      <stop offset="0.79" stop-color="#73c7e0"/>
      <stop offset="0.82" stop-color="#75c4f1"/>
      <stop offset="0.85" stop-color="#77c2fb"/>
      <stop offset="0.89" stop-color="#78c2ff"/>
    </linearGradient>
    <style>.cls-1{fill:url(#linear-gradient);}.cls-1,.cls-2,.cls-3,.cls-4{stroke-width:0px;}.cls-2{fill:#022b6b;}.cls-3{fill:#fff;}.cls-4{fill:#67ce4d;}</style>
  </defs>
  <path class="cls-4" d="M -24.424 126.918 C -28.704 128.238 -33.314 128.638 -38.034 127.948 C -46.784 126.658 -54.184 121.838 -58.944 115.138 C -60.874 112.418 -62.374 109.408 -63.364 106.188 C -63.184 106.188 -62.994 106.208 -62.804 106.208 C -62.034 106.208 -61.274 106.108 -60.554 105.928 C -59.364 109.548 -57.454 112.878 -54.974 115.728 C -50.654 120.698 -44.624 124.208 -37.624 125.228 C -33.464 125.838 -29.394 125.508 -25.594 124.398 C -25.314 125.298 -24.924 126.138 -24.424 126.918 Z"/>
  <path class="cls-1" d="M -15.944 129.708 C -16.344 129.708 -16.754 129.678 -17.154 129.618 C -21.654 128.958 -24.784 124.758 -24.124 120.248 C -23.974 119.228 -23.634 118.248 -23.114 117.348 C -22.524 116.318 -22.654 115.028 -23.434 114.148 C -23.964 113.548 -24.724 113.218 -25.494 113.218 C -25.854 113.218 -26.224 113.288 -26.574 113.438 C -28.774 114.378 -31.094 114.848 -33.464 114.848 C -34.334 114.848 -35.214 114.788 -36.074 114.658 C -43.434 113.578 -49.404 107.958 -50.934 100.668 C -51.174 99.508 -52.134 98.638 -53.314 98.498 C -53.414 98.488 -53.524 98.478 -53.624 98.478 C -54.684 98.478 -55.664 99.088 -56.124 100.068 C -57.334 102.668 -59.944 104.358 -62.784 104.358 C -63.144 104.358 -63.504 104.328 -63.864 104.278 C -65.804 103.998 -67.514 102.968 -68.684 101.398 C -69.854 99.828 -70.344 97.888 -70.054 95.948 C -69.524 92.368 -66.414 89.678 -62.804 89.678 C -62.444 89.678 -62.084 89.708 -61.724 89.758 C -59.784 90.038 -58.074 91.068 -56.904 92.638 C -56.594 93.048 -56.334 93.498 -56.124 93.948 C -55.674 94.928 -54.694 95.548 -53.624 95.548 C -53.524 95.548 -53.414 95.548 -53.314 95.528 C -52.134 95.398 -51.174 94.518 -50.934 93.358 C -49.204 85.148 -41.874 79.188 -33.514 79.188 C -32.644 79.188 -31.764 79.248 -30.904 79.378 C -30.034 79.508 -29.174 79.698 -28.344 79.948 C -28.084 80.028 -27.814 80.068 -27.554 80.068 C -26.654 80.068 -25.784 79.618 -25.264 78.838 C -24.594 77.828 -24.654 76.508 -25.424 75.568 C -25.524 75.438 -25.634 75.308 -25.724 75.178 C -27.334 73.018 -28.004 70.358 -27.614 67.688 C -26.894 62.768 -22.604 59.058 -17.644 59.058 C -17.154 59.058 -16.654 59.098 -16.164 59.168 C -13.494 59.558 -11.144 60.968 -9.534 63.128 C -7.924 65.288 -7.254 67.948 -7.644 70.618 C -8.364 75.538 -12.654 79.248 -17.614 79.248 C -18.104 79.248 -18.604 79.208 -19.094 79.138 C -19.234 79.118 -19.364 79.108 -19.504 79.108 C -20.554 79.108 -21.564 79.698 -22.024 80.668 C -22.544 81.758 -22.334 83.058 -21.444 83.868 C -20.624 84.618 -19.864 85.468 -19.194 86.368 C -16.354 90.188 -15.164 94.888 -15.864 99.598 C -16.364 103.008 -17.854 106.198 -20.174 108.808 C -20.964 109.698 -21.094 110.978 -20.504 112.008 C -20.004 112.878 -19.094 113.388 -18.124 113.388 C -17.944 113.388 -17.764 113.368 -17.574 113.338 C -17.044 113.228 -16.514 113.178 -15.974 113.178 C -15.574 113.178 -15.164 113.208 -14.764 113.268 C -10.264 113.928 -7.134 118.128 -7.794 122.638 C -8.384 126.658 -11.894 129.698 -15.954 129.698 L -15.944 129.708 Z"/>
  <circle class="cls-2" cx="-33.494" cy="97.028" r="15.63"/>
  <path class="cls-3" d="M -40.554 88.778 L -36.444 88.778 L -31.554 97.058 C -31.304 97.518 -30.424 99.158 -30.424 99.158 L -30.374 99.158 C -30.374 99.158 -30.424 97.178 -30.424 96.598 L -30.424 88.778 L -26.434 88.778 L -26.434 105.278 L -30.544 105.278 L -35.384 97.108 C -35.664 96.668 -36.564 94.898 -36.564 94.898 L -36.614 94.898 C -36.614 94.898 -36.564 97.018 -36.564 97.598 L -36.564 105.278 L -40.554 105.278 L -40.554 88.778 Z"/>
</svg>