<?xml version="1.0" encoding="utf-8"?>
<!-- Generator: Adobe Illustrator 22.1.0, SVG Export Plug-In . SVG Version: 6.00 Build 0)  -->
<!DOCTYPE svg PUBLIC "-//W3C//DTD SVG 1.1//EN" "http://www.w3.org/Graphics/SVG/1.1/DTD/svg11.dtd">
<svg version="1.1" id="Layer_1" xmlns="http://www.w3.org/2000/svg" xmlns:xlink="http://www.w3.org/1999/xlink" x="0px" y="0px"
	 viewBox="0 0 72 72" style="enable-background:new 0 0 72 72;" xml:space="preserve">
<style type="text/css">
	.st0{fill:#FFFFFF;}
	.st1{fill:#D9DFE3;}
	.st2{fill:none;stroke:#648293;stroke-width:1.2379;stroke-linecap:round;stroke-linejoin:round;stroke-miterlimit:10;}
</style>
<polygon class="st0" points="55.7,42.1 53,43.6 53,13.8 40.9,8.4 19.3,8.4 7.1,13.8 7.1,54.2 19.3,59.6 40.9,59.6 44.9,57.8 
	44.9,60.3 55.7,66.4 66.5,60.3 66.5,48.1 "/>
<polygon class="st1" points="66.5,48.1 66.5,60.3 55.7,66.4 44.9,60.3 "/>
<polygon class="st1" points="44.9,48.1 53,43.6 53,13.8 40.9,19.1 30.1,19.1 30.1,59.6 40.9,59.6 44.9,57.8 "/>
<g>
	<polyline class="st2" points="53,35.3 53,13.8 40.9,19.1 19.3,19.1 7.1,13.8 7.1,54.2 	"/>
	<polyline class="st2" points="53,27.2 40.9,32.6 19.3,32.6 7.1,27.2 	"/>
	<polyline class="st2" points="39.5,46.1 19.3,46.1 7.1,40.7 	"/>
	<polyline class="st2" points="39.5,59.6 19.3,59.6 7.1,54.2 	"/>
	<polyline class="st2" points="7.1,13.8 19.3,8.4 40.9,8.4 53,13.8 	"/>
</g>
<polygon class="st2" points="66.5,60.3 55.7,66.4 44.9,60.3 44.9,48.1 55.7,42.1 66.5,48.1 "/>
<g>
	<line class="st2" x1="59.7" y1="50.2" x2="51.7" y2="58.3"/>
	<line class="st2" x1="59.7" y1="58.3" x2="51.7" y2="50.2"/>
</g>
</svg>
