<?xml version="1.0" encoding="utf-8"?>
<svg width="24" height="36" viewBox="0 0 24.7 33.2" fill="none" xmlns="http://www.w3.org/2000/svg">
  <path d="M 24.361 11.304 C 24.361 17.604 20.724 24.571 13.122 32.555 C 13.043 32.636 12.499 32.867 12.369 32.871 C 12.239 32.876 11.64 32.66 11.592 32.57 C 4.443 25.332 0.361 17.228 0.361 10.936 C 0.361 4.889 5.734 0.355 12.361 0.355 C 18.988 0.355 24.361 5.258 24.361 11.304 Z" style="stroke-width: 0.6; fill: rgb(254, 192, 202); stroke: rgb(172, 0, 28);"/>
  <g id="icomoon-ignore" transform="matrix(0.021365, 0, 0, 0.021268, -0.996031, -0.573882)" style=""/>
  <circle cx="12" cy="11.75" r="10.75" fill="white" style="stroke: rgb(0, 39, 171); stroke-width: 0px;" transform="matrix(0.604022, 0, 0, 0.611585, 5.136378, 4.040453)"/>
  <path d="M 14.947 11.782 C 15.059 11.444 15.059 11.107 15.059 10.545 L 15.059 9.87 C 15.059 9.309 15.059 8.971 14.724 8.633 C 14.391 8.409 14.059 8.297 13.502 8.297 L 10.168 8.297 L 10.168 13.917 L 11.724 13.917 L 11.724 12.232 L 12.837 12.232 L 13.725 13.917 L 15.17 13.917 L 14.168 12.232 C 14.502 12.119 14.724 12.119 14.947 11.782 Z M 13.725 10.319 C 13.725 10.657 13.614 10.994 13.281 10.994 L 11.724 10.994 L 11.724 9.309 L 13.169 9.309 C 13.502 9.309 13.725 9.533 13.725 9.87 L 13.725 10.319 Z M 18.06 11.22 C 18.06 8.071 15.503 5.486 12.391 5.486 C 9.278 5.486 6.722 8.071 6.722 11.22 C 6.722 14.366 9.278 16.952 12.391 16.952 C 15.503 16.952 18.06 14.366 18.06 11.22 Z M 12.391 16.279 C 9.612 16.279 7.388 14.03 7.388 11.22 C 7.388 8.409 9.612 6.16 12.391 6.16 C 15.17 6.16 17.393 8.409 17.393 11.22 C 17.393 14.03 15.17 16.279 12.391 16.279 Z M 12.947 4.586 C 16.06 4.813 18.726 7.509 18.949 10.657 C 18.949 10.882 19.06 10.994 19.282 10.994 C 19.505 10.994 19.616 10.767 19.616 10.657 C 19.394 8.071 17.726 5.711 15.503 4.586 L 18.505 4.586 L 18.06 5.036 C 17.949 5.148 17.949 5.376 18.06 5.486 C 18.169 5.598 18.169 5.598 18.282 5.598 C 18.393 5.598 18.393 5.598 18.505 5.486 L 19.505 4.474 C 19.616 4.362 19.616 4.362 19.616 4.25 C 19.616 4.136 19.616 4.136 19.505 4.024 L 18.505 3.013 C 18.393 2.901 18.169 2.901 18.06 3.013 C 17.949 3.125 17.949 3.351 18.06 3.462 L 18.505 3.912 L 12.947 3.912 C 12.724 3.912 12.614 4.024 12.614 4.25 C 12.614 4.474 12.724 4.586 12.947 4.586 Z M 5.167 10.657 C 5.167 10.882 5.277 10.994 5.5 10.994 C 5.722 10.994 5.833 10.882 5.833 10.657 C 6.056 7.509 8.723 4.813 11.835 4.586 C 12.058 4.586 12.169 4.362 12.169 4.25 C 12.169 4.024 11.945 3.912 11.835 3.912 C 9.168 4.136 6.945 5.824 5.833 8.071 L 5.833 5.036 L 6.278 5.486 C 6.388 5.598 6.613 5.598 6.722 5.486 C 6.832 5.376 6.832 5.148 6.722 5.036 L 5.722 4.024 C 5.611 3.912 5.387 3.912 5.277 4.024 L 4.277 5.036 C 4.167 5.148 4.167 5.376 4.277 5.486 C 4.387 5.598 4.387 5.598 4.499 5.598 C 4.61 5.598 4.611 5.598 4.721 5.486 L 5.167 5.036 L 5.167 10.657 Z M 11.835 17.851 C 8.723 17.626 6.056 14.929 5.833 11.782 C 5.833 11.556 5.611 11.444 5.5 11.444 C 5.277 11.444 5.167 11.67 5.167 11.782 C 5.387 14.366 7.056 16.727 9.278 17.851 L 6.278 17.851 L 6.722 17.402 C 6.832 17.29 6.832 17.063 6.722 16.952 C 6.613 16.84 6.388 16.84 6.278 16.952 L 5.277 17.964 C 5.167 18.077 5.167 18.077 5.167 18.188 C 5.167 18.302 5.167 18.414 5.277 18.414 L 6.278 19.425 C 6.388 19.537 6.388 19.537 6.499 19.537 C 6.612 19.537 6.613 19.537 6.722 19.425 C 6.832 19.312 6.832 19.089 6.722 18.976 L 6.278 18.526 L 11.835 18.526 C 12.058 18.526 12.169 18.414 12.169 18.188 C 12.169 17.964 12.058 17.851 11.835 17.851 Z M 20.505 16.952 C 20.394 16.84 20.172 16.84 20.061 16.952 L 19.616 17.402 L 19.616 11.782 C 19.616 11.556 19.505 11.444 19.282 11.444 C 19.172 11.444 18.949 11.556 18.949 11.782 C 18.726 14.929 16.06 17.626 12.947 17.851 C 12.724 17.851 12.614 18.077 12.614 18.188 C 12.614 18.414 12.724 18.526 12.947 18.526 C 15.503 18.302 17.837 16.615 18.949 14.366 L 18.949 17.402 L 18.505 16.952 C 18.393 16.84 18.169 16.84 18.06 16.952 C 17.949 17.063 17.949 17.29 18.06 17.402 L 19.06 18.414 C 19.172 18.526 19.172 18.526 19.282 18.526 C 19.394 18.526 19.394 18.526 19.505 18.414 L 20.505 17.402 C 20.615 17.29 20.615 17.063 20.505 16.952 Z" style="fill-rule: nonzero; paint-order: fill; fill: rgb(236, 1, 39); stroke: rgb(236, 1, 39); stroke-width: 0.2;"/>
</svg>