<?xml version="1.0" encoding="utf-8"?>
<svg width="24" height="36" viewBox="0 0 24.7 36.3" fill="none" xmlns="http://www.w3.org/2000/svg">
  <path d="M 24.338 12.346 C 24.338 19.25 20.701 26.885 13.099 35.635 C 13.02 35.724 12.476 35.977 12.346 35.982 C 12.216 35.987 11.617 35.75 11.569 35.652 C 4.42 27.719 0.338 18.838 0.338 11.942 C 0.338 5.315 5.711 0.346 12.338 0.346 C 18.965 0.346 24.338 5.719 24.338 12.346 Z" style="stroke-width: 0.6px; stroke: rgb(41, 4, 11); fill: rgb(255, 201, 210);"/>
  <circle cx="12" cy="11.75" r="10.75" fill="white" style="stroke: rgb(0, 39, 171); stroke-width: 0px;" transform="matrix(0.647515, 0, 0, 0.645304, 4.522299, 4.635705)"/>
  <g id="icomoon-ignore" transform="matrix(0.021365, 0, 0, 0.021268, -1.019067, -0.583549)" style=""/>
  <path d="M 15.04 12.803 C 15.16 12.447 15.16 12.091 15.16 11.498 L 15.16 10.786 C 15.16 10.194 15.16 9.837 14.801 9.481 C 14.444 9.244 14.088 9.126 13.491 9.126 L 9.917 9.126 L 9.917 15.056 L 11.585 15.056 L 11.585 13.278 L 12.778 13.278 L 13.73 15.056 L 15.279 15.056 L 14.205 13.278 C 14.563 13.159 14.801 13.159 15.04 12.803 Z M 13.73 11.26 C 13.73 11.616 13.611 11.972 13.254 11.972 L 11.585 11.972 L 11.585 10.194 L 13.134 10.194 C 13.491 10.194 13.73 10.43 13.73 10.786 L 13.73 11.26 Z M 18.377 12.21 C 18.377 8.888 15.636 6.16 12.3 6.16 C 8.963 6.16 6.223 8.888 6.223 12.21 C 6.223 15.53 8.963 18.259 12.3 18.259 C 15.636 18.259 18.377 15.53 18.377 12.21 Z M 12.3 17.548 C 9.321 17.548 6.937 15.175 6.937 12.21 C 6.937 9.244 9.321 6.871 12.3 6.871 C 15.279 6.871 17.662 9.244 17.662 12.21 C 17.662 15.175 15.279 17.548 12.3 17.548 Z M 12.896 5.211 C 16.233 5.45 19.091 8.295 19.33 11.616 C 19.33 11.854 19.449 11.972 19.687 11.972 C 19.926 11.972 20.045 11.733 20.045 11.616 C 19.807 8.888 18.019 6.398 15.636 5.211 L 18.854 5.211 L 18.377 5.686 C 18.258 5.804 18.258 6.044 18.377 6.16 C 18.494 6.278 18.494 6.278 18.615 6.278 C 18.734 6.278 18.734 6.278 18.854 6.16 L 19.926 5.093 C 20.045 4.974 20.045 4.974 20.045 4.856 C 20.045 4.736 20.045 4.736 19.926 4.618 L 18.854 3.551 C 18.734 3.433 18.494 3.433 18.377 3.551 C 18.258 3.669 18.258 3.908 18.377 4.025 L 18.854 4.5 L 12.896 4.5 C 12.657 4.5 12.539 4.618 12.539 4.856 C 12.539 5.093 12.657 5.211 12.896 5.211 Z M 4.556 11.616 C 4.556 11.854 4.674 11.972 4.913 11.972 C 5.151 11.972 5.27 11.854 5.27 11.616 C 5.509 8.295 8.368 5.45 11.704 5.211 C 11.943 5.211 12.062 4.974 12.062 4.856 C 12.062 4.618 11.822 4.5 11.704 4.5 C 8.845 4.736 6.462 6.517 5.27 8.888 L 5.27 5.686 L 5.747 6.16 C 5.865 6.278 6.106 6.278 6.223 6.16 C 6.341 6.044 6.341 5.804 6.223 5.686 L 5.151 4.618 C 5.032 4.5 4.792 4.5 4.674 4.618 L 3.602 5.686 C 3.484 5.804 3.484 6.044 3.602 6.16 C 3.72 6.278 3.72 6.278 3.839 6.278 C 3.959 6.278 3.96 6.278 4.078 6.16 L 4.556 5.686 L 4.556 11.616 Z M 11.704 19.207 C 8.368 18.97 5.509 16.124 5.27 12.803 C 5.27 12.565 5.032 12.447 4.913 12.447 C 4.674 12.447 4.556 12.685 4.556 12.803 C 4.792 15.53 6.581 18.021 8.963 19.207 L 5.747 19.207 L 6.223 18.733 C 6.341 18.615 6.341 18.376 6.223 18.259 C 6.106 18.14 5.865 18.14 5.747 18.259 L 4.674 19.326 C 4.556 19.446 4.556 19.446 4.556 19.563 C 4.556 19.683 4.556 19.801 4.674 19.801 L 5.747 20.868 C 5.865 20.986 5.865 20.986 5.984 20.986 C 6.105 20.986 6.106 20.986 6.223 20.868 C 6.341 20.749 6.341 20.513 6.223 20.394 L 5.747 19.919 L 11.704 19.919 C 11.943 19.919 12.062 19.801 12.062 19.563 C 12.062 19.326 11.943 19.207 11.704 19.207 Z M 20.998 18.259 C 20.879 18.14 20.641 18.14 20.522 18.259 L 20.045 18.733 L 20.045 12.803 C 20.045 12.565 19.926 12.447 19.687 12.447 C 19.569 12.447 19.33 12.565 19.33 12.803 C 19.091 16.124 16.233 18.97 12.896 19.207 C 12.657 19.207 12.539 19.446 12.539 19.563 C 12.539 19.801 12.657 19.919 12.896 19.919 C 15.636 19.683 18.138 17.903 19.33 15.53 L 19.33 18.733 L 18.854 18.259 C 18.734 18.14 18.494 18.14 18.377 18.259 C 18.258 18.376 18.258 18.615 18.377 18.733 L 19.449 19.801 C 19.569 19.919 19.569 19.919 19.687 19.919 C 19.807 19.919 19.807 19.919 19.926 19.801 L 20.998 18.733 C 21.116 18.615 21.116 18.376 20.998 18.259 Z" style="fill-rule: nonzero; paint-order: fill; fill: rgb(236, 1, 39); stroke: rgb(236, 1, 39); stroke-width: 0.2px;"/>
</svg>