<?xml version="1.0" encoding="utf-8"?>
<svg width="24" height="24" viewBox="0 0 24 24" fill="none" xmlns="http://www.w3.org/2000/svg">
  <circle cx="12" cy="12" r="11.5" style="stroke-width: 0.6px; fill: rgb(191, 192, 194); stroke: rgb(92, 95, 103);"/>
  <circle cx="12" cy="12" r="8.5" fill="white"/>
  <g id="icomoon-ignore" style=""/>
  <path d="M 12.425 21.222 C 7.482 21.23 3.426 17.178 3.426 12.241 C 3.426 7.296 7.482 3.23 12.425 3.222 C 17.365 3.214 21.426 7.265 21.426 12.209 C 21.426 17.147 17.365 21.213 12.425 21.222 Z M 20.8 12.188 C 20.8 7.573 17.01 3.792 12.399 3.8 C 7.786 3.808 4 7.603 4 12.218 C 4 16.826 7.786 20.608 12.399 20.6 C 17.01 20.591 20.8 16.796 20.8 12.188 Z" style="fill-rule: nonzero; paint-order: fill; stroke-width: 0px; stroke: rgb(92, 95, 103); fill: rgb(92, 95, 103);"/>
  <path d="M 12.499 14.546 C 12.09 14.546 11.816 14.264 11.816 13.844 L 11.816 11.886 C 11.816 11.466 12.09 11.184 12.499 11.184 C 13.522 11.184 14.41 10.272 14.41 9.222 C 14.41 8.171 13.522 7.263 12.499 7.263 C 11.477 7.263 10.589 8.171 10.589 9.222 C 10.589 9.642 10.319 9.923 9.91 9.923 C 9.501 9.923 9.227 9.642 9.227 9.222 C 9.227 7.402 10.728 5.86 12.499 5.86 C 14.271 5.86 15.772 7.402 15.772 9.222 C 15.772 10.835 14.68 12.163 13.183 12.516 L 13.183 13.844 C 13.183 14.264 12.909 14.546 12.499 14.546 Z M 12.569 18.117 C 11.955 18.117 11.477 17.626 11.477 16.995 C 11.477 16.437 11.886 15.945 12.499 15.878 C 12.774 15.806 13.044 15.878 13.248 16.016 C 13.522 16.226 13.727 16.575 13.727 16.995 C 13.657 17.626 13.183 18.117 12.569 18.117 Z" style="stroke-width: 1; fill: rgb(92, 95, 103);"/>
</svg>
