<?xml version="1.0" encoding="utf-8"?>
<!-- Generator: Adobe Illustrator 23.0.3, SVG Export Plug-In . SVG Version: 6.00 Build 0)  -->
<svg version="1.1" id="Layer_1" xmlns="http://www.w3.org/2000/svg" xmlns:xlink="http://www.w3.org/1999/xlink" x="0px" y="0px"
	 viewBox="0 0 200 200" style="enable-background:new 0 0 200 200;" xml:space="preserve">
<style type="text/css">
	.st0{fill:none;stroke:#000000;stroke-width:0.6;stroke-linecap:round;stroke-linejoin:round;stroke-miterlimit:10;}
</style>
<g>
	<g>
		<path d="M191.9,42.3c-11.3,0-15-2.5-18.8-5c-2.5-2.5-6.3-3.8-17.5-3.8c-10,0-11.3,1.3-13.8,3.8c-2.5,1.3-5,3.8-12.5,5
			c-3.8,0-5-1.3-5-2.5c0-2.5,1.3-3.8,3.8-3.8c5,0,6.3-1.3,8.8-3.8c3.8-2.5,7.5-5,18.8-5c13.8,0,18.8,2.5,22.5,5
			c2.5,1.3,5,3.8,15,3.8c2.5,0,3.8,1.3,3.8,3.8C196.9,42.3,193.2,42.3,191.9,42.3z"/>
	</g>
	<g>
		<path class="st0" d="M118.1,38.5"/>
	</g>
	<g>
		<path d="M108,42.3L108,42.3c-7.5-1.3-10-2.5-12.5-5c-2.5-1.3-3.8-2.5-13.8-2.5s-12.5,1.3-15,3.8c-2.5,1.3-5,3.8-12.5,5
			c-1.3-1.3-3.8-2.5-3.8-3.8c0-2.5,1.3-3.8,3.8-3.8c5,0,6.3-1.3,8.8-2.5c2.5-5,6.3-6.3,18.8-6.3s16.3,2.5,18.8,5
			c1.3,1.3,2.5,2.5,7.5,2.5c2.5,0,3.8,2.5,3.8,3.8C111.8,41,109.3,42.3,108,42.3z"/>
	</g>
	<g>
		<path class="st0" d="M44.2,38.5"/>
	</g>
	<g>
		<path d="M32.9,42.3L32.9,42.3c-7.5-1.3-10-2.5-12.5-5c-2.5-1.3-3.8-2.5-13.8-2.5c-1.3,0-3.8-2.5-3.8-3.8s1.3-3.8,3.8-3.8
			c11.3,0,15,2.5,18.8,5c1.3,1.3,2.5,2.5,7.5,2.5c2.5,0,3.8,2.5,3.8,3.8C36.7,41,34.2,42.3,32.9,42.3z"/>
	</g>
	<g>
		<path d="M191.9,128.6c-11.3,0-15-2.5-18.8-5c-2.5-2.5-6.3-3.8-17.5-3.8c-10,0-12.5,1.3-15,3.8c-2.5,1.3-5,3.8-11.3,5
			c-2.5,0-3.8-1.3-3.8-3.8c0-2.5,1.3-3.8,3.8-3.8c5-1.3,6.3-1.3,7.5-3.8c3.8-2.5,7.5-5,18.8-5c13.8,0,18.8,2.5,22.5,5
			c2.5,1.3,5,3.8,15,3.8c2.5,0,3.8,1.3,3.8,3.8C196.9,127.4,193.2,128.6,191.9,128.6z"/>
	</g>
	<g>
		<path class="st0" d="M118.1,124.9"/>
	</g>
	<g>
		<path d="M54.2,128.6c-2.5,0-3.8-1.3-3.8-3.8c0-2.5,1.3-3.8,3.8-3.8c5,0,6.3-1.3,8.8-2.5c2.5-3.8,6.3-6.3,18.8-6.3s16.3,2.5,18.8,5
			c1.3,1.3,2.5,2.5,7.5,3.8c2.5,0,3.8,2.5,3.8,3.8c0,2.5-2.5,3.8-3.8,3.8c-8.8-1.3-11.3-3.8-12.5-5c-2.5-2.5-3.8-3.8-13.8-3.8
			s-12.5,1.3-15,3.8C64.2,124.9,61.7,127.4,54.2,128.6L54.2,128.6z"/>
	</g>
	<g>
		<path class="st0" d="M44.2,124.9"/>
	</g>
	<g>
		<path d="M34.2,128.6C34.2,128.6,32.9,128.6,34.2,128.6c-7.5-1.3-10-2.5-12.5-5c-2.5-2.5-5-3.8-15-3.8c-1.3,0-3.8-1.3-3.8-3.8
			c0-2.5,1.3-3.8,3.8-3.8c11.3,0,15,2.5,18.8,5c2.5,1.3,3.8,2.5,8.8,3.8c2.5,0,3.8,2.5,3.8,3.8C36.7,126.1,35.4,128.6,34.2,128.6z"
			/>
	</g>
	<g>
		<path d="M6.6,86.1c-2.5,0-3.8-2.5-3.8-3.8s1.3-3.8,3.8-3.8c11.3,0,13.8-2.5,17.5-3.8c3.8-2.5,8.8-5,18.8-5c11.3,0,15,2.5,17.5,5
			c1.3,1.3,3.8,2.5,8.8,3.8c2.5,0,3.8,2.5,3.8,3.8c0,2.5-2.5,3.8-3.8,3.8c-6.3-1.3-10-3.8-12.5-6.3c-2.5-1.3-3.8-2.5-12.5-2.5
			c-10,0-12.5,1.3-16.3,3.8S19.2,86.1,6.6,86.1z"/>
	</g>
	<g>
		<path class="st0" d="M80.5,82.3"/>
	</g>
	<g>
		<path d="M144.3,86.1L144.3,86.1c-8.8-1.3-11.3-2.5-13.8-5s-3.8-3.8-12.5-3.8c-11.3,0-12.5,1.3-15,3.8c-2.5,1.3-5,3.8-12.5,3.8
			c-2.5,0-3.8-1.3-3.8-3.8c0-1.3,1.3-2.5,3.8-3.8c5,0,6.3-1.3,8.8-2.5c3.8-2.5,7.5-5,18.8-5s15,2.5,17.5,5c1.3,1.3,2.5,2.5,8.8,3.8
			c2.5,0,3.8,2.5,3.8,3.8C148.1,83.6,145.6,86.1,144.3,86.1z"/>
	</g>
	<g>
		<path class="st0" d="M154.4,82.3"/>
	</g>
	<g>
		<path d="M163.1,84.8c-1.3,0-3.8-1.3-3.8-3.8s1.3-3.8,3.8-3.8c5-1.3,6.3-1.3,8.8-3.8c3.8-2.5,7.5-5,20-5c2.5,0,3.8,1.3,3.8,3.8
			s-1.3,3.8-3.8,3.8c-10,0-12.5,1.3-16.3,3.8C173.1,82.3,170.6,83.6,163.1,84.8C164.4,84.8,164.4,84.8,163.1,84.8z"/>
	</g>
	<g>
		<path d="M6.6,171.2c-2.5,0-3.8-1.3-3.8-3.8c0-2.5,1.3-3.8,3.8-3.8c11.3,0,13.8-2.5,17.5-3.8c3.8-2.5,8.8-5,18.8-5
			c11.3,0,15,2.5,17.5,5c1.3,1.3,3.8,2.5,8.8,3.8c2.5,0,3.8,2.5,3.8,3.8c0,2.5-2.5,3.8-3.8,3.8c-7.5-1.3-10-2.5-12.5-5
			c-2.5-1.3-3.8-2.5-12.5-2.5s-11.3,1.3-15,3.8C24.2,168.7,19.2,171.2,6.6,171.2z"/>
	</g>
	<g>
		<path class="st0" d="M80.5,167.5"/>
	</g>
	<g>
		<path d="M144.3,171.2C143.1,171.2,143.1,171.2,144.3,171.2c-7.5-1.3-10-2.5-13.8-5c-2.5-1.3-3.8-3.8-12.5-3.8
			c-10,0-12.5,1.3-15,3.8c-2.5,2.5-5,3.8-12.5,5c-2.5,0-3.8-1.3-3.8-3.8c0-2.5,1.3-3.8,3.8-3.8c5,0,6.3-1.3,8.8-2.5
			c3.8-2.5,7.5-5,18.8-5s15,2.5,17.5,5c1.3,1.3,2.5,2.5,8.8,3.8c2.5,0,3.8,2.5,3.8,3.8C146.8,170,145.6,171.2,144.3,171.2z"/>
	</g>
	<g>
		<path class="st0" d="M154.4,167.5"/>
	</g>
	<g>
		<path d="M163.1,171.2c-1.3,0-3.8-1.3-3.8-3.8c0-2.5,1.3-3.8,3.8-3.8c5-1.3,6.3-1.3,8.8-3.8c3.8-2.5,7.5-5,20-5
			c2.5,0,3.8,1.3,3.8,3.8c0,2.5-1.3,3.8-3.8,3.8c-10,0-12.5,1.3-16.3,3.8C173.1,167.5,170.6,170,163.1,171.2
			C164.4,171.2,163.1,171.2,163.1,171.2z"/>
	</g>
	<g>
		<path d="M80.5,24.7c-2.5,0-3.8-1.3-3.8-3.8V7.2c0-2.5,1.3-3.8,3.8-3.8c2.5,0,3.8,1.3,3.8,3.8V21C84.3,23.5,83,24.7,80.5,24.7z"/>
	</g>
	<g>
		<path d="M80.5,109.9c-2.5,0-3.8-2.5-3.8-3.8V41c0-2.5,1.3-3.8,3.8-3.8s3.8,1.3,3.8,3.8v65.1C84.3,107.4,83,109.9,80.5,109.9z"/>
	</g>
	<g>
		<path d="M80.5,196.2c-2.5,0-3.8-1.3-3.8-3.8v-66.3c0-2.5,1.3-3.8,3.8-3.8s3.8,1.3,3.8,3.8v66.3C84.3,193.7,83,196.2,80.5,196.2z"
			/>
	</g>
	<g>
		<path d="M118.1,67.3c-2.5,0-3.8-1.3-3.8-3.8V7.2c0-2.5,1.3-3.8,3.8-3.8c2.5,0,3.8,1.3,3.8,3.8v56.3
			C121.8,66,119.3,67.3,118.1,67.3z"/>
	</g>
	<g>
		<path d="M118.1,152.4c-2.5,0-3.8-1.3-3.8-3.8V82.3c0-1.3,1.3-3.8,3.8-3.8c2.5,0,3.8,1.3,3.8,3.8v66.3
			C121.8,151.2,119.3,152.4,118.1,152.4z"/>
	</g>
	<g>
		<path d="M118.1,196.2c-2.5,0-3.8-1.3-3.8-3.8V170c0-2.5,1.3-3.8,3.8-3.8c2.5,0,3.8,1.3,3.8,3.8v22.5
			C121.8,193.7,119.3,196.2,118.1,196.2z"/>
	</g>
	<g>
		<path d="M44.2,68.6c-2.5,0-3.8-2.5-3.8-3.8V7.2c0-2.5,1.3-3.8,3.8-3.8s3.8,1.3,3.8,3.8v57.6C47.9,66,45.4,68.6,44.2,68.6z"/>
	</g>
	<g>
		<path d="M44.2,151.2c-2.5,0-3.8-1.3-3.8-3.8V82.3c0-1.3,1.3-3.8,3.8-3.8s3.8,1.3,3.8,3.8v65.1C47.9,149.9,45.4,151.2,44.2,151.2z"
			/>
	</g>
	<g>
		<path d="M44.2,196.2c-2.5,0-3.8-1.3-3.8-3.8V170c0-2.5,1.3-3.8,3.8-3.8s3.8,1.3,3.8,3.8v22.5C47.9,193.7,45.4,196.2,44.2,196.2z"
			/>
	</g>
	<g>
		<path d="M154.4,24.7c-2.5,0-3.8-1.3-3.8-3.8V7.2c0-2.5,1.3-3.8,3.8-3.8s3.8,1.3,3.8,3.8V21C158.1,22.2,156.9,24.7,154.4,24.7z"/>
	</g>
	<g>
		<path d="M154.4,107.4c-2.5,0-3.8-1.3-3.8-3.8V39.8c0-2.5,1.3-3.8,3.8-3.8s3.8,1.3,3.8,3.8v63.8
			C158.1,106.1,156.9,107.4,154.4,107.4z"/>
	</g>
	<g>
		<path d="M154.4,196.2c-2.5,0-3.8-1.3-3.8-3.8v-66.3c0-2.5,1.3-3.8,3.8-3.8s3.8,1.3,3.8,3.8v66.3
			C158.1,193.7,156.9,196.2,154.4,196.2z"/>
	</g>
</g>
</svg>
