<?xml version="1.0" encoding="utf-8"?>
<!-- Generator: Adobe Illustrator 23.0.3, SVG Export Plug-In . SVG Version: 6.00 Build 0)  -->
<svg version="1.1" id="Layer_1" xmlns="http://www.w3.org/2000/svg" xmlns:xlink="http://www.w3.org/1999/xlink" x="0px" y="0px"
	 viewBox="0 0 75 75" style="enable-background:new 0 0 75 75;" xml:space="preserve">
<style type="text/css">
	.st0{fill:#658292;}
</style>
<g>
	<path class="st0" d="M72.2,26.8v-5.6c0-1.9-0.9-3.3-2.3-4.2L44.9,3.8c-0.9-0.5-1.9-0.5-2.8-0.5L6.5,9.9c-2.3,0.5-3.8,2.3-3.8,4.7
		v5.6c0,1.9,0.9,3.3,2.3,4.2l2.4,1.2l-1,0.2c-2.3,0.5-3.8,2.3-3.8,4.7v5.6c0,1.9,0.9,3.3,2.3,4.2l1.7,0.9l-0.3,0
		c-2.3,0.5-3.8,2.3-3.8,4.7v6.1c0,1.9,0.9,3.3,2.3,4.2l24.9,13.1c0.9,0.5,1.4,0.5,2.3,0.5h0.5l35.7-6.6c2.3-0.5,3.8-2.3,3.8-4.7
		v-6.1c0-1.9-0.9-3.3-2.3-4.2l-1.8-0.9l0.3-0.1c2.3-0.5,3.8-2.3,3.8-4.7v-6.1c0-1.9-0.9-3.3-2.3-4.2l-1.7-0.9l0.3-0.1
		C70.8,31.1,72.2,29.2,72.2,26.8z M68.4,51.7c0,0,0.5,0.5,0.5,0.9v6.1c0,0.5-0.5,0.9-0.9,0.9l-35.7,6.6c-0.5,0-0.9,0-0.9,0L6.5,53.1
		c0,0-0.5-0.5-0.5-0.9v-6.1c0-0.5,0.5-0.9,0.9-0.9l4.8-1.2l18.2,9.6c0.9,0.5,1.4,0.5,2.3,0.5h0.5l29.5-5.4L68.4,51.7z M68.4,35.7
		c0,0.5,0.5,0.9,0.9,0.9v6.1c0,0.5-0.5,0.9-0.9,0.9l-35.7,6.6c-0.5,0-0.9,0-0.9,0L6.5,37.2c0,0-0.5-0.5-0.5-0.9v-6.1
		c0-0.5,0.5-0.9,0.9-0.9l5.3-0.9l17.7,9.3c0.9,0.5,1.4,0.5,2.3,0.5c0,0,0.5,0,0.9,0l29-5.4L68.4,35.7z M67.9,27.8l-35.7,6.6
		c-0.5,0-0.9,0-0.9,0L6.5,21.2c0,0-0.5-0.5-0.5-0.9v-6.1c0-0.5,0.5-0.9,0.9-0.9l35.7-6.6c0.5,0,0.5,0,0.9,0.5l24.9,13.1
		c0,0,0.5,0.5,0.5,0.9v5.6C68.9,27.3,68.4,27.8,67.9,27.8z"/>
	<rect x="8.8" y="33.4" class="st0" width="2.8" height="3.3"/>
	<rect x="14.4" y="33.4" class="st0" width="2.8" height="3.3"/>
	<rect x="18.7" y="37.6" class="st0" width="2.8" height="3.3"/>
	<rect x="26.2" y="39" class="st0" width="2.8" height="3.3"/>
	<rect x="31.8" y="43.7" class="st0" width="2.8" height="3.3"/>
	<rect x="37.4" y="39" class="st0" width="2.8" height="3.3"/>
	<rect x="43.1" y="41.9" class="st0" width="2.8" height="3.3"/>
	<rect x="49.2" y="36.2" class="st0" width="2.8" height="3.3"/>
	<rect x="54.8" y="40.4" class="st0" width="2.8" height="3.3"/>
	<rect x="57.6" y="34.8" class="st0" width="2.8" height="3.3"/>
	<rect x="63.3" y="37.6" class="st0" width="2.8" height="3.3"/>
</g>
</svg>
