<?xml version="1.0" encoding="utf-8"?>
<!-- Generator: Adobe Illustrator 23.0.3, SVG Export Plug-In . SVG Version: 6.00 Build 0)  -->
<svg version="1.1" id="Layer_1" xmlns="http://www.w3.org/2000/svg" xmlns:xlink="http://www.w3.org/1999/xlink" x="0px" y="0px"
	 viewBox="0 0 36 36" style="enable-background:new 0 0 36 36;" xml:space="preserve">
<style type="text/css">
	.st0{fill:none;}
	.st1{fill:#658292;}
</style>
<g>
	<path class="st0" d="M31.5,15.9h-3l-0.1-0.5c-0.3-1.2-0.8-2.4-1.4-3.4l-0.3-0.4l2.1-2.1C29,9.3,29.2,9,29.2,8.8S29,8.2,28.9,8
		l-1.3-1.3c-0.4-0.4-1-0.4-1.5,0l-2.1,2l-0.4-0.3c-1-0.7-2.2-1.1-3.4-1.4L19.7,7V4c0-0.6-0.4-1-1-1h-1.9c-0.6,0-1,0.4-1,1v3
		l-0.5,0.1c-1.2,0.3-2.4,0.8-3.4,1.4l-0.4,0.3l-2-2.2C9.1,6.3,8.4,6.3,8,6.6L6.7,7.9C6.4,8.3,6.4,9,6.7,9.4l2,2.2l-0.3,0.4
		c-0.7,1-1.1,2.2-1.4,3.4L7,15.8H4c-0.6,0-1,0.4-1,1v1.9c0,0.6,0.4,1,1,1h3l0.1,0.5c0.3,1.2,0.8,2.4,1.4,3.4L8.8,24l-2.1,2.1
		c-0.2,0.2-0.3,0.4-0.3,0.7c0,0.3,0.1,0.6,0.3,0.7l1.3,1.3c0.4,0.4,1,0.4,1.5,0l2.1-2.1l0.4,0.3c1,0.7,2.2,1.1,3.4,1.4l0.5,0.1v3
		c0,0.6,0.4,1,1,1h1.9c0.3,0,0.5,0,0.7-0.2c0.2-0.2,0.3-0.4,0.3-0.7v-3l0.5-0.1c1.2-0.3,2.4-0.8,3.4-1.4l0.4-0.3l2.1,2.1
		c0.4,0.4,1.1,0.4,1.5,0l1.3-1.3c0.2-0.2,0.3-0.4,0.3-0.7c0-0.3-0.1-0.6-0.3-0.7l-2.1-2.1l0.3-0.4c0.7-1,1.1-2.2,1.4-3.4l0.1-0.5h3
		c0.6,0,1-0.4,1-1v-1.9C32.5,16.3,32.1,15.9,31.5,15.9z M23.4,23.1c-1.4,1.4-3.4,2.2-5.4,2.2c-0.3,0-0.7,0-1-0.1
		c-3.5-0.4-6.2-3.2-6.6-6.6c-0.3-2.4,0.5-4.7,2.2-6.4c1.7-1.7,4-2.5,6.4-2.2c3.4,0.4,6.2,3.2,6.6,6.6C25.9,19.1,25.1,21.4,23.4,23.1
		z"/>
	<path class="st1" d="M31.5,14.7h-2c-0.3-1-0.7-2-1.2-2.9l1.5-1.5c0.4-0.4,0.6-1,0.6-1.6s-0.2-1.2-0.6-1.6l-1.3-1.3
		c-0.8-0.8-2.2-0.8-3.1,0l-1.5,1.4c-0.9-0.5-1.9-0.9-2.9-1.2V4c0-1.2-1-2.2-2.2-2.2h-1.9c-1.2,0-2.2,1-2.2,2.2v2
		c-1,0.3-2,0.7-2.9,1.2l-1.4-1.5C9.5,5,8,5,7.2,5.8L5.9,7.1C5,7.9,5,9.4,5.9,10.2l1.4,1.5c-0.5,0.9-0.9,1.9-1.2,2.9H4
		c-1.2,0-2.2,1-2.2,2.2v1.9c0,1.2,1,2.2,2.2,2.2h2c0.3,1,0.7,2,1.2,2.9l-1.5,1.5c-0.4,0.4-0.6,1-0.6,1.6c0,0.6,0.2,1.2,0.6,1.6
		l1.3,1.3c0.8,0.8,2.2,0.8,3.1,0l1.5-1.5c0.9,0.5,1.9,0.9,2.9,1.2v2c0,1.2,1,2.2,2.2,2.2l1.8,0c0.1,0,0.2,0,0.2,0
		c0.5,0,0.9-0.2,1.3-0.5c0.5-0.4,0.7-1,0.7-1.6v-2c1-0.3,2-0.7,2.9-1.2l1.5,1.5c0.8,0.8,2.3,0.8,3.1,0l1.3-1.3
		c0.4-0.4,0.6-1,0.6-1.6s-0.2-1.2-0.6-1.6l-1.5-1.5c0.5-0.9,0.9-1.9,1.2-2.9h2c1.2,0,2.2-1,2.2-2.2v-1.9
		C33.7,15.7,32.7,14.7,31.5,14.7z M32.5,18.8c0,0.6-0.4,1-1,1h-3l-0.1,0.5c-0.3,1.2-0.8,2.4-1.4,3.4l-0.3,0.4l2.1,2.1
		c0.2,0.2,0.3,0.4,0.3,0.7c0,0.3-0.1,0.6-0.3,0.7L27.6,29c-0.4,0.4-1.1,0.4-1.5,0L24,26.8l-0.4,0.3c-1,0.7-2.2,1.1-3.4,1.4l-0.5,0.1
		v3c0,0.3-0.1,0.5-0.3,0.7c-0.2,0.2-0.4,0.2-0.7,0.2h-1.9c-0.6,0-1-0.4-1-1v-3l-0.5-0.1c-1.2-0.3-2.4-0.8-3.4-1.4l-0.4-0.3l-2.1,2.1
		c-0.5,0.4-1.1,0.4-1.5,0l-1.3-1.3c-0.2-0.2-0.3-0.4-0.3-0.7c0-0.3,0.1-0.6,0.3-0.7L8.8,24l-0.3-0.4c-0.7-1-1.1-2.2-1.4-3.4L7,19.7
		H4c-0.6,0-1-0.4-1-1v-1.9c0-0.6,0.4-1,1-1h3l0.1-0.5c0.3-1.2,0.8-2.4,1.4-3.4l0.3-0.4l-2-2.2C6.4,9,6.4,8.3,6.7,7.9L8,6.6
		c0.3-0.3,1.1-0.3,1.4,0l2,2.2l0.4-0.3c1-0.7,2.2-1.1,3.4-1.4L15.8,7V4c0-0.6,0.4-1,1-1h1.9c0.6,0,1,0.4,1,1v3l0.5,0.1
		c1.2,0.3,2.4,0.8,3.4,1.4L24,8.8l2.1-2c0.5-0.4,1.1-0.4,1.5,0L28.9,8c0.2,0.2,0.3,0.4,0.3,0.7S29,9.3,28.9,9.5l-2.1,2.1L27,12
		c0.7,1,1.1,2.2,1.4,3.4l0.1,0.5h3c0.6,0,1,0.4,1,1V18.8z"/>
	<path class="st0" d="M24.4,16.9c-0.4-2.9-2.7-5.2-5.6-5.6c-0.3,0-0.6-0.1-0.9-0.1c-1.7,0-3.3,0.7-4.5,1.9c-1.4,1.4-2.1,3.4-1.8,5.4
		c0.4,2.9,2.7,5.2,5.6,5.6c2,0.3,4-0.4,5.4-1.8C24,20.9,24.7,18.9,24.4,16.9L24.4,16.9z M19.6,18.4v3.3h-3v-3.2
		c-0.5-0.4-0.8-0.9-0.9-1.5c-0.3-1.7,1.2-3.2,2.9-2.9c0.9,0.1,1.7,0.9,1.9,1.9C20.7,16.9,20.3,17.8,19.6,18.4z"/>
	<path class="st1" d="M19,10.1c-2.4-0.3-4.7,0.5-6.4,2.2c-1.7,1.7-2.5,4-2.2,6.4c0.4,3.5,3.2,6.2,6.6,6.6c0.3,0,0.7,0.1,1,0.1
		c2,0,3.9-0.8,5.4-2.2c1.7-1.7,2.5-4,2.2-6.4C25.2,13.3,22.4,10.5,19,10.1z M17.1,24.7c-3.2-0.4-5.7-2.9-6.1-6.1
		c-0.6-4.6,3.3-8.5,7.9-7.9c3.1,0.4,5.7,2.9,6.1,6.1C25.6,21.4,21.7,25.3,17.1,24.7z"/>
	<path class="st1" d="M18.9,10.7c-4.6-0.6-8.5,3.3-7.9,7.9c0.4,3.2,2.9,5.7,6.1,6.1c4.6,0.6,8.5-3.3,7.9-7.9
		C24.6,13.6,22,11.1,18.9,10.7z M22.6,22.3c-1.4,1.4-3.4,2.1-5.4,1.8c-2.9-0.4-5.2-2.7-5.6-5.6c-0.3-2,0.4-4,1.8-5.4
		c1.2-1.2,2.8-1.9,4.5-1.9c0.3,0,0.6,0,0.9,0.1c2.9,0.4,5.2,2.7,5.6,5.6l0,0C24.7,18.9,24,20.9,22.6,22.3z"/>
	<path class="st1" d="M18.6,14.1c-1.7-0.3-3.2,1.2-2.9,2.9c0.1,0.6,0.4,1.1,0.9,1.5v-2.4h3v2.3c0.7-0.5,1.1-1.4,0.9-2.4
		C20.3,15,19.5,14.2,18.6,14.1z"/>
	<path class="st1" d="M17.6,18.9c-0.4-0.1-0.7-0.2-1-0.4v3.2h3v-3.3C19.1,18.8,18.4,19,17.6,18.9z"/>
	<path class="st1" d="M16.6,16.1v2.4c0.3,0.2,0.6,0.4,1,0.4c0.8,0.1,1.5-0.1,2-0.5v-2.3H16.6z"/>
</g>
</svg>
