<?xml version="1.0" encoding="utf-8"?>
<!-- Generator: Adobe Illustrator 23.0.3, SVG Export Plug-In . SVG Version: 6.00 Build 0)  -->
<svg version="1.1" id="Layer_1" xmlns="http://www.w3.org/2000/svg" xmlns:xlink="http://www.w3.org/1999/xlink" x="0px" y="0px"
	 viewBox="0 0 75 75" style="enable-background:new 0 0 75 75;" xml:space="preserve">
<style type="text/css">
	.st0{fill:#658292;}
</style>
<g>
	<path class="st0" d="M35.6,37.1l-7.7-15.4H9.7L2,37.1l7.7,15.4h18.2L35.6,37.1z M12.6,48.1l-5.8-11l5.8-11H25l5.8,11l-5.8,11H12.6z
		"/>
	<path class="st0" d="M40.4,39l-7.7,15.4l7.7,15.4h18.2l7.7-15.4L58.6,39H40.4z M55.7,65.4H43.3l-5.3-11l5.3-11h12.5l5.3,11
		L55.7,65.4z"/>
	<path class="st0" d="M58.6,34.7l7.7-15.4L58.6,4H40.4l-7.7,15.4l7.7,15.4H58.6z M43.3,8.3h12.5l5.3,11l-5.3,11H43.3l-5.8-11
		L43.3,8.3z"/>
	<path class="st0" d="M68.2,32.8c-2.4,0-4.3,1.9-4.3,4.3c0,2.4,1.9,4.3,4.3,4.3c2.4,0,4.3-1.9,4.3-4.3
		C72.5,34.7,70.6,32.8,68.2,32.8z"/>
	<circle class="st0" cx="24.1" cy="61.1" r="4.3"/>
	<circle class="st0" cx="24.1" cy="12.6" r="4.3"/>
</g>
</svg>
