<?xml version="1.0" encoding="iso-8859-1"?>
<!-- Generator: Adobe Illustrator 19.0.0, SVG Export Plug-In . SVG Version: 6.00 Build 0)  -->
<svg version="1.1" id="Capa_1" xmlns="http://www.w3.org/2000/svg" xmlns:xlink="http://www.w3.org/1999/xlink" x="0px" y="0px"
	 viewBox="0 0 511.999 511.999" style="enable-background:new 0 0 511.999 511.999;" xml:space="preserve">
<g>
	<g>
		<path d="M511.224,131.844L459.592,14.483c-1.463-3.324-4.75-5.469-8.381-5.469H60.789c-3.631,0-6.919,2.145-8.381,5.469
			L0.775,131.844c-1.245,2.831-0.977,6.101,0.713,8.691c1.691,2.591,4.576,4.152,7.668,4.152h17.766V493.83
			c0,5.057,4.1,9.156,9.156,9.156h107.49h224.863h107.49c5.057,0,9.156-4.1,9.156-9.156V237.626c0-5.057-4.1-9.156-9.156-9.156
			s-9.156,4.1-9.156,9.156v247.047h-89.177v-32.465c0-5.057-4.1-9.156-9.156-9.156h-17.196v-32.465c0-5.057-4.1-9.156-9.156-9.156
			h-25.034V227.121c0-5.057-4.1-9.156-9.156-9.156H204.111c-5.057,0-9.156,4.1-9.156,9.156v109.338c0,5.057,4.1,9.156,9.156,9.156
			c5.057,0,9.156-4.1,9.156-9.156V236.278h85.465V401.43h-85.465v-34.083c0-5.057-4.1-9.156-9.156-9.156
			c-5.057,0-9.156,4.1-9.156,9.156v34.083H169.92c-5.057,0-9.156,4.1-9.156,9.156v32.465h-17.196c-5.057,0-9.156,4.1-9.156,9.156
			v32.465H45.235V144.688h111.764l-35.025,35.025c-3.576,3.576-3.576,9.374,0,12.948c3.576,3.576,9.374,3.576,12.948,0
			L255.998,71.585l121.076,121.076c1.787,1.787,4.131,2.682,6.474,2.682s4.687-0.894,6.474-2.682c3.576-3.576,3.576-9.374,0-12.948
			l-35.025-35.025h111.764v62.05c0,5.057,4.1,9.156,9.156,9.156c5.057,0,9.156-4.1,9.156-9.156v-62.05h17.766
			c3.094,0,5.977-1.562,7.668-4.152C512.202,137.944,512.47,134.675,511.224,131.844z M152.724,461.364h130.018
			c5.057,0,9.156-4.1,9.156-9.156c0-5.057-4.1-9.156-9.156-9.156H179.078v-23.309h153.846v23.309h-19.292
			c-5.057,0-9.156,4.1-9.156,9.156c0,5.057,4.1,9.156,9.156,9.156h45.646v23.309H152.724V461.364z M336.688,126.375l-74.214-74.214
			c-3.576-3.576-9.374-3.576-12.948,0l-74.214,74.214H23.187l43.575-99.048h378.473l43.575,99.048H336.688z"/>
	</g>
</g>
<g>
	<g>
		<path d="M431.434,245.763H353.6c-5.057,0-9.156,4.1-9.156,9.156v107.485c0,5.057,4.1,9.156,9.156,9.156h77.834
			c5.057,0,9.156-4.1,9.156-9.156V254.919C440.59,249.862,436.49,245.763,431.434,245.763z M422.277,353.247h-59.521V306.7h37.789
			c5.057,0,9.156-4.1,9.156-9.156s-4.1-9.156-9.156-9.156h-37.789v-24.31h59.521V353.247z"/>
	</g>
</g>
<g>
	<g>
		<path d="M158.399,245.763H80.565c-5.057,0-9.156,4.1-9.156,9.156v107.485c0,5.057,4.1,9.156,9.156,9.156h77.834
			c5.057,0,9.156-4.1,9.156-9.156V254.919C167.555,249.862,163.456,245.763,158.399,245.763z M149.243,353.247H89.722V306.7h59.521
			V353.247z M149.243,288.385H89.722v-24.31h59.521V288.385z"/>
	</g>
</g>
<g>
	<g>
		<circle cx="229.619" cy="323.491" r="9.156"/>
	</g>
</g>
<g>
</g>
<g>
</g>
<g>
</g>
<g>
</g>
<g>
</g>
<g>
</g>
<g>
</g>
<g>
</g>
<g>
</g>
<g>
</g>
<g>
</g>
<g>
</g>
<g>
</g>
<g>
</g>
<g>
</g>
</svg>
