<?xml version="1.0" encoding="iso-8859-1"?>
<!-- Generator: Adobe Illustrator 19.0.0, SVG Export Plug-In . SVG Version: 6.00 Build 0)  -->
<svg version="1.1" id="Capa_1" xmlns="http://www.w3.org/2000/svg" xmlns:xlink="http://www.w3.org/1999/xlink" x="0px" y="0px"
	 viewBox="0 0 414.295 414.295" style="enable-background:new 0 0 414.295 414.295;" xml:space="preserve">
<g>
	<g>
		<path d="M342.804,129.011l69.12-69.12c3.139-3.109,3.164-8.174,0.055-11.314c-1.437-1.451-3.374-2.298-5.415-2.366l0.24,0.48
			l-37.6-1.28l-1.28-37.6c-0.149-4.416-3.849-7.875-8.265-7.726c-2.041,0.069-3.979,0.915-5.415,2.366l-69.04,68.72
			c-1.558,1.568-2.398,3.711-2.32,5.92v8C200.799,28.544,88.417,49.247,31.87,131.331S-3.975,325.798,78.11,382.345
			c82.084,56.547,194.467,35.844,251.014-46.24c42.471-61.651,42.471-143.122,0-204.774h8
			C339.25,131.343,341.294,130.508,342.804,129.011z M345.204,233.811c0.12,90.928-73.495,164.737-164.423,164.857
			c-90.928,0.12-164.737-73.495-164.857-164.423c-0.12-90.928,73.495-164.737,164.423-164.857
			c37.649-0.05,74.177,12.806,103.497,36.423l0.4,13.36l-32,32c-45.521-39.897-114.766-35.337-154.663,10.184
			c-39.897,45.521-35.337,114.766,10.184,154.663c45.521,39.897,114.766,35.337,154.663-10.184
			c35.846-40.9,36.279-101.899,1.016-143.303l32-32l13.2,0.48C332.172,160.12,345.068,196.383,345.204,233.811z M175.444,239.171
			c3.12,3.102,8.16,3.102,11.28,0l16-16c1.559,3.218,2.379,6.744,2.4,10.32c0,13.255-10.745,24-24,24s-24-10.745-24-24
			s10.745-24,24-24c3.576,0.021,7.102,0.841,10.32,2.4l-16,16C172.342,231.011,172.342,236.051,175.444,239.171z M203.124,200.131
			c-18.422-12.192-43.24-7.142-55.432,11.28c-12.192,18.422-7.142,43.24,11.28,55.432c18.422,12.192,43.24,7.142,55.432-11.28
			c8.858-13.385,8.858-30.768,0-44.152l37.92-37.92c33.243,39.472,28.192,98.419-11.28,131.662
			c-39.472,33.243-98.419,28.192-131.662-11.28c-33.243-39.472-28.192-98.419,11.28-131.662c34.782-29.292,85.6-29.292,120.382,0
			L203.124,200.131z M300.404,114.211l-1.12-34.08l53.6-53.6l0.88,26.64c0,4.418,3.582,8,8,8l26.64,0.88l-53.92,53.28
			L300.404,114.211z"/>
	</g>
</g>
<g>
</g>
<g>
</g>
<g>
</g>
<g>
</g>
<g>
</g>
<g>
</g>
<g>
</g>
<g>
</g>
<g>
</g>
<g>
</g>
<g>
</g>
<g>
</g>
<g>
</g>
<g>
</g>
<g>
</g>
</svg>
