<?xml version="1.0" encoding="iso-8859-1"?>
<!-- Generator: Adobe Illustrator 19.0.0, SVG Export Plug-In . SVG Version: 6.00 Build 0)  -->
<svg version="1.1" id="Layer_1" xmlns="http://www.w3.org/2000/svg" xmlns:xlink="http://www.w3.org/1999/xlink" x="0px" y="0px"
	 viewBox="0 0 512.001 512.001" style="enable-background:new 0 0 512.001 512.001;" xml:space="preserve">
<path style="fill:#694B4B;" d="M377.416,291.942c0.527-0.89,1.056-1.604,1.582-2.177c20.048-31.267,30.987-69.525,30.987-109.023
	C409.985,81.081,341.275,0,256.821,0C172.369,0,103.66,81.081,103.66,180.742c0,39.944,11.189,78.609,31.674,110.062
	c0.217,0.303,0.436,0.633,0.654,0.992c0.663,1.004,1.336,2,2.017,2.988c7.66,9.938,17.481,7.643,20.316,6.702
	c0.265-0.1,0.535-0.198,0.803-0.297l0.003-0.001c10.117-3.747,21.351-6.898,33.488-9.378l21.214-4.336l-16-14.59
	c-13.017-11.865-21.488-27.957-23.849-45.31l-1.196-8.769l-8.822-0.718c-14.528-1.181-25.908-13.531-25.908-28.116
	c0-14.535,10.891-26.608,25.334-28.081l9.723-0.993l0.132-7.734c9.801-2.888,53.011-16.856,83.369-46.581
	c7.153,8.349,33.972,35.949,83.8,46.734l0.127,7.582l9.728,0.993c14.437,1.475,25.326,13.547,25.326,28.08
	c0,14.584-11.38,26.933-25.907,28.116l-8.822,0.718l-1.196,8.772c-2.362,17.347-10.83,33.438-23.846,45.305l-16,14.589l21.216,4.334
	c12.676,2.591,24.37,5.918,34.845,9.894C359.718,302.783,370.089,304.277,377.416,291.942z"/>
<path style="fill:#FBCB99;" d="M298.033,326.481v-40.013l-13.793,3.6c-6.175,1.613-12.557,2.431-18.968,2.431h-16.893
	c-6.449,0-12.873-0.83-19.092-2.466l-13.813-3.635v40.056l-41.079,9.83l8.933,31.888l3.704,2.252
	c5.544,3.376,20.665,11.719,41.286,16.24c9.699,2.126,19.476,3.204,29.059,3.205h0.004c23.757,0,47.007-6.558,69.101-19.49
	l3.843-2.246l8.769-31.303L298.033,326.481z"/>
<path style="fill:#EDBA89;" d="M241.532,386.663c-20.622-4.522-35.742-12.864-41.286-16.24l0,0l-8.789-32.29l33.667-8.114v-38.538
	l-9.65-5.084v40.056l-41.079,9.83l8.933,31.888l3.704,2.252c5.544,3.376,20.665,11.719,41.286,16.24
	c9.699,2.126,19.476,3.204,29.059,3.205h0.004c2.164,0,4.321-0.073,6.475-0.182C256.45,389.301,248.97,388.293,241.532,386.663z"/>
<path style="fill:#F5F5F7;" d="M311.432,375.078c-17.499,7.929-35.809,11.949-54.423,11.949c-9.634,0-19.322-1.078-28.792-3.206
	c-8.902-2-17.655-4.895-26.015-8.607l-16.089-7.144l40.711,143.932h60l40.803-144.261L311.432,375.078z"/>
<polygon style="fill:#D2D2D7;" points="186.111,368.068 226.823,512 240.035,512 201.223,374.778 "/>
<g>
	<path style="fill:#324A5E;" d="M396.919,359.046c-4.901-2.801-10.445-5.447-16.238-7.905l-2.621-1.091
		c-17.829-7.3-37.418-12.785-47.716-15.453L280.652,512h140.252c15.63,0,18.407-12.296,18.837-18.223v-52.876
		C439.742,397.671,416.566,371.565,396.919,359.046z"/>
	<path style="fill:#324A5E;" d="M181.657,334.598c-10.298,2.668-29.888,8.152-47.716,15.453l-2.621,1.091
		c-5.793,2.458-11.337,5.104-16.238,7.905c-19.647,12.519-42.823,38.625-42.823,81.855v52.876C72.692,499.704,75.467,512,91.097,512
		h140.252L181.657,334.598z"/>
</g>
<g>
	<path style="fill:#283D4C;" d="M90.429,493.777v-27.96V440.9c0-43.23,23.177-69.336,42.823-81.855
		c4.901-2.801,10.445-5.447,16.238-7.905l2.621-1.091c10.429-4.27,21.448-7.912,30.869-10.74l-1.32-4.713
		c-10.298,2.668-29.888,8.152-47.716,15.453l-2.621,1.091c-5.793,2.458-11.337,5.103-16.238,7.905
		C95.438,371.564,72.261,397.67,72.261,440.9v52.876c0.425,5.84,3.136,17.855,18.168,18.206
		C90.429,511.982,90.429,493.777,90.429,493.777z"/>
	<path style="fill:#283D4C;" d="M380.431,512v-72.637c0-4.562-3.696-8.258-8.258-8.258s-8.258,3.696-8.258,8.258V512H380.431z"/>
	<path style="fill:#283D4C;" d="M147.123,512v-72.637c0-4.562-3.696-8.258-8.258-8.258s-8.258,3.696-8.258,8.258V512H147.123z"/>
</g>
<path style="fill:#FBCB99;" d="M355.939,155.266c-4.441-1.384-9.264-0.576-13.009,2.176c-3.74,2.754-5.951,7.126-5.951,11.773
	v41.635c0,4.644,2.209,9.013,5.951,11.764c2.542,1.872,5.581,2.845,8.661,2.845c1.451,0,2.922-0.215,4.344-0.663
	c2.801-0.871,5.552-2.131,8.177-3.741c1.544-0.946,2.899-2.177,3.997-3.616c1.611-0.831,3.053-1.954,4.257-3.312
	c5.903-6.676,9.155-15.232,9.155-24.099C381.521,174.006,371.241,160.035,355.939,155.266z"/>
<path style="fill:#EDBA89;" d="M170.563,157.441c-3.744-2.752-8.572-3.559-13.007-2.179c-15.301,4.773-25.586,18.744-25.586,34.764
	c0,16.028,10.285,29.998,25.586,34.769c1.423,0.447,2.89,0.663,4.349,0.663c3.075,0,6.114-0.973,8.658-2.843
	c3.746-2.752,5.954-7.122,5.954-11.766v-41.639C176.518,164.567,174.31,160.195,170.563,157.441z"/>
<path style="fill:#FBCB99;" d="M345.802,155.83c0,0,0.061-0.302,0.083-0.782v-0.728c-0.09-1.747-0.859-4.605-4.487-6.377
	l-3.952-0.948c-38.232-9.184-61.118-27.697-71.957-38.766c0,0-0.001-0.001-0.002-0.002c-9.219-8.441-18.778,0-18.778,0l-0.001-0.001
	c-26.04,22.651-58.332,34.447-71.253,38.529l-1.731,0.546c-0.003,0.001-0.004,0.002-0.004,0.002
	c-4.405,1.447-5.655,4.26-5.959,6.261v63.824c0,44.452,36.165,80.617,80.618,80.617h16.893c44.451,0,80.613-36.165,80.613-80.617
	v-61.626L345.802,155.83z"/>
<g>
	<path style="fill:#EDBA89;" d="M262.415,106.014c-8.153-4.446-15.706,2.213-15.706,2.213l-0.001-0.001
		c-26.04,22.651-58.332,34.447-71.253,38.529l-1.731,0.546c-0.003,0.001-0.004,0.002-0.004,0.002
		c-4.405,1.447-5.655,4.26-5.959,6.261v63.824c0,44.452,36.165,80.617,80.618,80.617h13.213c-44.453,0-80.618-36.165-80.618-80.617
		v-59.17c0-7.273,5.335-10.454,8.392-11.686c0.658-0.21,1.349-0.435,2.091-0.682l0.006-0.001h-0.002
		c14.771-4.914,45.903-17.149,70.599-39.514L262.415,106.014z"/>
	<path style="fill:#EDBA89;" d="M263.902,215.764c3.036,0,5.505,2.47,5.505,5.505s-2.47,5.505-5.505,5.505h-14.067
		c-3.036,0-5.505-2.47-5.505-5.505v-26.835c0-3.036,2.47-5.505,5.505-5.505s5.505,2.47,5.505,5.505v21.33H263.902z"/>
</g>
<path style="fill:#563B3B;" d="M135.988,291.797c0.663,1.004,1.336,2,2.017,2.988c7.964,10.335,18.266,7.441,20.62,6.598
	c0.17-0.064,0.333-0.13,0.502-0.194l-1.325-1.793c-24.263-32.854-37.625-74.992-37.625-118.654
	c0-96.392,64.274-175.397,144.903-180.478C262.346,0.093,259.594,0,256.823,0C172.37,0,103.661,81.081,103.661,180.742
	c0,39.944,11.189,78.609,31.674,110.062C135.551,291.107,135.77,291.438,135.988,291.797z"/>
<g>
</g>
<g>
</g>
<g>
</g>
<g>
</g>
<g>
</g>
<g>
</g>
<g>
</g>
<g>
</g>
<g>
</g>
<g>
</g>
<g>
</g>
<g>
</g>
<g>
</g>
<g>
</g>
<g>
</g>
</svg>
