<?xml version="1.0" encoding="utf-8"?>
<!-- Generator: Adobe Illustrator 23.0.3, SVG Export Plug-In . SVG Version: 6.00 Build 0)  -->
<svg version="1.1" id="Layer_1" xmlns="http://www.w3.org/2000/svg" xmlns:xlink="http://www.w3.org/1999/xlink" x="0px" y="0px"
	 viewBox="0 0 75 75" style="enable-background:new 0 0 75 75;" xml:space="preserve">
<style type="text/css">
	.st0{fill:#658292;}
</style>
<g id="Black">
	<g>
		<g>
			<path class="st0" d="M47.6,58.7c-0.5,0-0.5,0-1,0L38,53.4c-0.5-0.5-1-1-1-1.4V41.4c0-0.5,0.5-1,1-1.4l8.6-5.3
				c0.5-0.5,1-0.5,1.9,0l8.6,5.3c0.5,0.5,1,1,1,1.4v10.5c0,0.5-0.5,1-1,1.4l-8.6,5.3C48,58.7,48,58.7,47.6,58.7z M40.4,51l7.2,4.3
				l7.2-4.3v-8.6l-7.2-3.8l-7.2,3.8V51z M56.2,51.9L56.2,51.9L56.2,51.9z"/>
		</g>
		<g>
			<path class="st0" d="M71,54.3h-8.6c-1,0-1.4-1-1.4-1.4c0-0.5,1-1.4,1.4-1.4h6.7V7.4H5.4V51h27.3c1,0,1.9,1,1.9,1.4
				s-1,1.4-1.9,1.4H3.9c-1,0-1.9-1-1.9-1.4V5.9C2,5,3,4,3.9,4H71c1,0,1.4,1,1.4,1.9v47C72.5,53.4,72,54.3,71,54.3z"/>
		</g>
		<g>
			<path class="st0" d="M57.6,71.6c-0.5,0-0.5,0-1-0.5l-9.1-6.7l-9.1,6.7c-0.5,0.5-1.4,0.5-1.9,0c-1,0-1-1-1-1.4l4.3-16.3
				c0.5-1,1.4-1.4,2.4-1s1.4,1,1,1.9l-2.9,11.5l6.2-4.8c0.5-0.5,1.4-0.5,1.9,0l6.2,4.8l-3.4-11.5c-0.5-1,0.5-1.9,1-1.9
				c1,0,1.9,0.5,1.9,1l4.3,16.3c0,0.5,0,1.4-0.5,1.9C58.6,71.6,58.1,71.6,57.6,71.6z"/>
		</g>
		<g>
			<path class="st0" d="M32.7,48.1h-23c-1,0-1.9-1-1.9-1.4v-35c0-1,1-1.9,1.9-1.9h55.6c1,0,1.4,1,1.4,1.9v33.6c0,1-1,1.4-1.4,1.4
				h-2.9c-1,0-1.9-1-1.9-1.4c0-1,1-1.9,1.4-1.9h1.4V13.1H11.1v31.6h21.6c1,0,1.9,1,1.9,1.4C34.6,46.7,33.6,48.1,32.7,48.1z"/>
		</g>
		<g>
			<path class="st0" d="M47.6,52.9L47.6,52.9c-0.5,0-1,0-1-0.5l-4.8-4.8c-0.5-0.5-0.5-1.4,0-2.4l4.3-4.3c0.5-0.5,1.9-0.5,2.4,0
				l4.3,4.3c0.5,0.5,0.5,1,0.5,1s0,1-0.5,1l-4.3,4.8C48.5,52.4,48,52.9,47.6,52.9z M45.6,46.7l1.9,1.9l1.9-1.9l-1.9-1.9L45.6,46.7z"
				/>
		</g>
		<g>
			<path class="st0" d="M18.3,26.5c-0.5,0-1-0.5-1.4-1c-0.5-1-0.5-1.9,0.5-2.4l4.3-2.9c0.5-0.5,1.4-0.5,1.9,0l3.4,2.4l3.4-2.4
				c0.5-0.5,1.4-0.5,1.9,0l3.4,2.4l3.4-2.4c0.5-0.5,1.4-0.5,1.9,0l3.4,2.4l3.4-2.4c1-0.5,1.9-0.5,2.4,0.5c1,1,1,1.9,0,2.4l-4.3,2.9
				c-0.5,0.5-1.4,0.5-1.9,0l-3.4-2.4L37,26.1c-1,0.5-1.4,0.5-1.9,0l-3.8-2.4l-3.4,2.4c-0.5,0.5-1,0.5-1.9,0l-3.4-2.4l-3.4,2.4
				C18.8,26.1,18.8,26.5,18.3,26.5z"/>
		</g>
		<g>
			<path class="st0" d="M18.3,35.2c-0.5,0-1-0.5-1.4-1s-0.5-1.4,0.5-1.9l4.3-2.9c0.5-0.5,1.4-0.5,1.9,0l3.4,2.4l3.4-2.4
				c0.5-0.5,1.4-0.5,1.9,0l3.4,2.4l3.4-2.4c1-0.5,1.9-0.5,2.4,0.5c0.5,1,0.5,1.9-0.5,2.4L37,34.7c-1,0.5-1.4,0.5-1.9,0l-3.8-1.9
				l-3.4,1.9c-0.5,0.5-1,0.5-1.9,0l-3.4-1.9l-3.4,1.9C18.8,35.2,18.8,35.2,18.3,35.2z"/>
		</g>
	</g>
</g>
</svg>
