<?xml version="1.0" encoding="utf-8"?>
<!-- Generator: Adobe Illustrator 23.0.3, SVG Export Plug-In . SVG Version: 6.00 Build 0)  -->
<svg version="1.1" id="Layer_1" xmlns="http://www.w3.org/2000/svg" xmlns:xlink="http://www.w3.org/1999/xlink" x="0px" y="0px"
	 viewBox="0 0 512 512" style="enable-background:new 0 0 512 512;" xml:space="preserve">
<style type="text/css">
	.st0{fill:#D4D9E2;}
</style>
<path class="st0" d="M437,75C388.7,26.6,324.4,0,256,0S123.3,26.6,75,75S0,187.6,0,256c0,68.4,26.6,132.7,75,181s112.6,75,181,75
	s132.7-26.6,181-75s75-112.6,75-181C512,187.6,485.4,123.3,437,75z M366.7,331.4c9.8,9.8,9.8,25.6,0,35.4
	c-4.9,4.9-11.3,7.3-17.7,7.3s-12.8-2.4-17.7-7.3L256,291.4l-75.4,75.4c-4.9,4.9-11.3,7.3-17.7,7.3s-12.8-2.4-17.7-7.3
	c-9.8-9.8-9.8-25.6,0-35.4l75.4-75.4l-75.4-75.4c-9.8-9.8-9.8-25.6,0-35.4c9.8-9.8,25.6-9.8,35.4,0l75.4,75.4l75.4-75.4
	c9.8-9.8,25.6-9.8,35.4,0c9.8,9.8,9.8,25.6,0,35.4L291.4,256L366.7,331.4z"/>
</svg>
