<?xml version="1.0" encoding="utf-8"?>
<!-- Generator: Adobe Illustrator 23.0.3, SVG Export Plug-In . SVG Version: 6.00 Build 0)  -->
<svg version="1.1" id="Layer_1" xmlns="http://www.w3.org/2000/svg" xmlns:xlink="http://www.w3.org/1999/xlink" x="0px" y="0px"
	 viewBox="0 0 75 75" style="enable-background:new 0 0 75 75;" xml:space="preserve">
<style type="text/css">
	.st0{fill:#090000;}
</style>
<g>
	<path class="st0" d="M41.1,37.5L68.4,10c0.9-0.9,0.9-2.5,0-3.4c-0.9-0.9-2.5-0.9-3.4,0L37.6,34L10,6.6c-0.9-0.9-2.5-0.9-3.4,0
		c-0.9,0.9-0.9,2.8,0,3.8L34,37.6L6.6,65c-0.9,0.9-0.9,2.5,0,3.4c0.6,0.3,1.3,0.6,1.9,0.6s1.3-0.3,1.9-0.6l27.2-27.3L65,68.5
		c0.6,0.3,1.3,0.6,1.9,0.6s1.3-0.3,1.6-0.9c0.9-0.9,0.9-2.5,0-3.4L41.1,37.5z"/>
	<polygon class="st0" points="8.4,69.1 8.4,69.1 8.4,69.1 	"/>
</g>
</svg>
