<?xml version="1.0" encoding="utf-8"?>
<!-- Generator: Adobe Illustrator 23.0.3, SVG Export Plug-In . SVG Version: 6.00 Build 0)  -->
<svg version="1.1" id="Layer_1" xmlns="http://www.w3.org/2000/svg" xmlns:xlink="http://www.w3.org/1999/xlink" x="0px" y="0px"
	 viewBox="0 0 75 75" style="enable-background:new 0 0 75 75;" xml:space="preserve">
<style type="text/css">
	.st0{fill:#658292;}
</style>
<path class="st0" d="M72.2,23.6C72.2,23.5,72.2,23.5,72.2,23.6c0-0.1,0-0.1,0-0.1c0,0,0,0,0-0.1c0,0,0,0,0-0.1c0,0,0,0,0,0l-5-8.1
	c0,0,0,0,0,0c0-0.1-0.1-0.1-0.2-0.1c0,0,0,0,0,0c0,0,0,0-0.1,0H59l-4.4-7.9c0,0,0,0,0,0c0,0,0,0,0-0.1c0,0,0,0-0.1,0c0,0,0,0-0.1,0
	c0,0,0,0-0.1,0c0,0,0,0,0,0h-8.1c0,0,0,0,0,0c0,0,0,0-0.1,0c0,0,0,0-0.1,0c0,0,0,0-0.1,0c0,0,0,0,0,0.1c0,0,0,0,0,0L40.9,15h-7.7
	l-4.4-7.9c0,0,0,0,0,0c0,0,0,0,0-0.1c0,0,0,0-0.1,0c0,0,0,0-0.1,0c0,0,0,0-0.1,0c0,0,0,0,0,0h-8.1c0,0,0,0,0,0c0,0,0,0-0.1,0
	c0,0,0,0-0.1,0c0,0,0,0-0.1,0c0,0,0,0,0,0.1c0,0,0,0,0,0L15.2,15H7.3c0,0,0,0,0,0c0,0,0,0-0.1,0c0,0,0,0-0.1,0c0,0,0,0-0.1,0
	c0,0,0,0,0,0.1c0,0,0,0,0,0l-5,8.1c0,0,0,0,0,0c0,0,0,0,0,0.1c0,0,0,0,0,0.1c0,0,0,0,0,0.1c0,0,0,0,0,0.1c0,0,0,0,0,0l4.9,7.9
	L2,39.4c0,0,0,0,0,0c0,0,0,0,0,0.1c0,0,0,0,0,0.1c0,0,0,0,0,0.1c0,0,0,0,0,0.1c0,0,0,0,0,0l4.9,7.9L2,55.5c0,0,0,0,0,0
	c0,0,0,0,0,0.1c0,0,0,0,0,0.1c0,0,0,0,0,0.1c0,0,0,0,0,0.1c0,0,0,0,0,0L7,64c0,0,0,0,0,0c0,0,0.1,0.1,0.1,0.1c0,0,0,0,0,0
	c0,0,0.1,0,0.2,0h8.1c0.1,0,0.1,0,0.2,0c0,0,0,0,0,0c0,0,0.1,0,0.1-0.1c0,0,0,0,0,0l4.9-7.9h7.7l4.4,7.9c0,0,0,0,0,0
	c0,0,0.1,0.1,0.1,0.1c0,0,0,0,0,0c0,0,0.1,0,0.2,0h8.1c0.1,0,0.1,0,0.2,0c0,0,0,0,0,0c0,0,0.1,0,0.1-0.1c0,0,0,0,0,0l4.9-7.9H54
	l4.4,7.9c0,0,0,0,0,0c0,0,0.1,0.1,0.1,0.1c0,0,0,0,0,0c0,0,0.1,0,0.2,0h8.1c0.1,0,0.1,0,0.2,0c0,0,0,0,0,0c0,0,0.1,0,0.1-0.1
	c0,0,0,0,0,0l5-8.1c0,0,0,0,0,0c0,0,0,0,0-0.1c0,0,0,0,0-0.1c0,0,0,0,0-0.1c0,0,0,0,0-0.1c0,0,0,0,0,0l-4.9-7.9l4.9-7.9c0,0,0,0,0,0
	c0,0,0,0,0-0.1c0,0,0,0,0-0.1c0,0,0,0,0-0.1c0,0,0,0,0-0.1c0,0,0,0,0,0l-4.9-7.9L72.2,23.6C72.2,23.6,72.2,23.6,72.2,23.6z
	 M66.6,63.4H59l-4.3-7.7L59,48h7.7l4.8,7.7L66.6,63.4z M40.9,63.4h-7.7l-4.3-7.7l4.3-7.7h7.7l4.8,7.7L40.9,63.4z M15.2,63.4H7.5
	l-4.8-7.7L7.5,48h7.7l4.8,7.7L15.2,63.4z M7.5,15.7h7.7l4.8,7.7l-4.8,7.7H7.5l-4.8-7.7L7.5,15.7z M20.6,7.6h7.7l4.3,7.7l-4.3,7.7
	h-7.7l-4.8-7.7L20.6,7.6z M46.4,7.6H54l4.3,7.7L54,23.1h-7.7l-4.8-7.7L46.4,7.6z M54,39.2h-7.7l-4.8-7.7l4.8-7.7H54l4.3,7.7L54,39.2
	z M40.9,47.3h-7.7l-4.3-7.7l4.3-7.7h7.7l4.8,7.7L40.9,47.3z M20.6,39.2l-4.8-7.7l4.8-7.7h7.7l4.3,7.7l-4.3,7.7H20.6z M40.9,15.7
	l4.8,7.7l-4.8,7.7h-7.7l-4.3-7.7l4.3-7.7H40.9z M7.5,31.8h7.7l4.8,7.7l-4.8,7.7H7.5l-4.8-7.7L7.5,31.8z M20.6,55.3l-4.8-7.7l4.8-7.7
	h7.7l4.3,7.7l-4.3,7.7H20.6z M46.4,55.3l-4.8-7.7l4.8-7.7H54l4.3,7.7L54,55.3H46.4z M66.6,47.3H59l-4.3-7.7l4.3-7.7h7.7l4.8,7.7
	L66.6,47.3z M66.6,31.1H59l-4.3-7.7l4.3-7.7h7.7l4.8,7.7L66.6,31.1z"/>
</svg>
