<?xml version="1.0" encoding="utf-8"?>
<!-- Generator: Adobe Illustrator 23.0.1, SVG Export Plug-In . SVG Version: 6.00 Build 0)  -->
<svg version="1.1" id="Слой_1" xmlns="http://www.w3.org/2000/svg" xmlns:xlink="http://www.w3.org/1999/xlink" x="0px" y="0px"
	 viewBox="0 0 75 75" style="enable-background:new 0 0 75 75;" xml:space="preserve">
<style type="text/css">
	.st0{fill:#C9C9D3;}
</style>
<path class="st0" d="M66.2,1.2H8.8c-3.7,0-6.7,3-6.7,6.7v6.2c0,1.6,0.6,3.1,1.6,4.3L23.9,42c0.7,0.9,1.2,2,1.2,3.1v13.3
	c0,1.6,0.8,3,2,3.9L42.4,73c0.8,0.6,1.7,0.8,2.7,0.8c0.8,0,1.5-0.2,2.2-0.5c1.6-0.8,2.6-2.4,2.6-4.2V45.1c0-1.1,0.4-2.2,1.2-3.1
	l20.2-23.5c1-1.2,1.6-2.8,1.6-4.4V7.9C72.9,4.2,69.9,1.2,66.2,1.2z M7.9,7.9c0-0.5,0.4-0.9,0.9-0.9h57.4c0.5,0,1,0.4,1,0.9v3.8
	c0,0.5-0.4,1-1,1H8.8c-0.5,0-1-0.4-1-1V7.9z M44.2,47.1l0,1.9h-5.7v5.7h5.7l0,1.9h-3.8v5.7h3.8l0,4.9l-13.4-9.3V45.1
	c0-2.5-0.9-4.9-2.5-6.8l-17-19.9h52.5l-17,19.9c-0.8,0.9-1.4,1.9-1.8,3.1h-6.5v5.7H44.2z"/>
</svg>
