<?xml version="1.0" encoding="utf-8"?>
<!-- Generator: Adobe Illustrator 23.0.1, SVG Export Plug-In . SVG Version: 6.00 Build 0)  -->
<svg version="1.1" id="Layer_1" xmlns="http://www.w3.org/2000/svg" xmlns:xlink="http://www.w3.org/1999/xlink" x="0px" y="0px"
	 viewBox="0 0 75 75" style="enable-background:new 0 0 75 75;" xml:space="preserve">
<style type="text/css">
	.st0{fill:#E6E6EE;}
</style>
<path class="st0" d="M57.4,35.3v-12c0-11.1-9-20.1-20.1-20.1c-11.1,0-20.1,9-20.1,20.1v12.7c-2.4,3.8-3.8,8.2-3.8,13
	c0,13.3,10.8,24.1,24.1,24.1S61.6,62.3,61.6,49C61.6,43.9,60.1,39.2,57.4,35.3z M26.8,23.3c0-5.9,4.8-10.7,10.7-10.7
	c5.9,0,10.7,4.8,10.7,10.7v4c-3.2-1.6-6.8-2.5-10.7-2.4c-3.8,0-7.5,0.9-10.7,2.5V23.3z M42.2,50.7v10.8h-9.4V50.8
	c-1.9-1.4-3.1-3.7-3.1-6.2c0-4.3,3.5-7.8,7.8-7.8c4.3-0.3,7.8,3.5,7.8,7.8C45.3,47.1,44.1,49.3,42.2,50.7z"/>
</svg>
