<?xml version="1.0" encoding="utf-8"?>
<!-- Generator: Adobe Illustrator 23.0.2, SVG Export Plug-In . SVG Version: 6.00 Build 0)  -->
<svg version="1.1" xmlns="http://www.w3.org/2000/svg" xmlns:xlink="http://www.w3.org/1999/xlink" x="0px" y="0px"
	 viewBox="0 0 22.2 24.2" enable-background="new 0 0 22.2 24.2" xml:space="preserve">
<g id="Background_Color">
</g>
<g id="Shadow_Color">
</g>
<g id="Stroke_Color">
	<g>
		<linearGradient id="SVGID_1_" gradientUnits="userSpaceOnUse" x1="11.1" y1="20.1001" x2="11.1" y2="3.1001">
			<stop  offset="0" style="stop-color:#FFFFFF;stop-opacity:0"/>
			<stop  offset="1" style="stop-color:#FFFFFF;stop-opacity:0.3"/>
		</linearGradient>
		<polygon fill="url(#SVGID_1_)" points="21.1,20.1 1.1,20.1 4.1,16.6 4.1,7.6 11.1,3.1 18.1,7.6 18.1,16.6 		"/>
		<path fill="#FFFFFF" d="M21.1,21.2h-20c-0.43,0-0.82-0.25-1-0.641c-0.179-0.39-0.115-0.849,0.165-1.175L3,16.193V7.6
			c0-0.375,0.19-0.723,0.505-0.925l7-4.5c0.362-0.233,0.827-0.233,1.189,0l7,4.5C19.01,6.877,19.2,7.226,19.2,7.6v8.593l2.735,3.191
			c0.28,0.326,0.344,0.785,0.165,1.175C21.92,20.95,21.53,21.2,21.1,21.2z M3.492,19h15.217l-1.443-1.684
			C17.094,17.117,17,16.863,17,16.6V8.201l-5.9-3.793L5.2,8.201V16.6c0,0.263-0.094,0.517-0.265,0.716L3.492,19z"/>
	</g>
	<g>
		<path fill="#FFFFFF" d="M11.1,4.2c-0.607,0-1.1-0.493-1.1-1.1v-2C10,0.493,10.493,0,11.1,0s1.1,0.493,1.1,1.1v2
			C12.2,3.708,11.707,4.2,11.1,4.2z"/>
	</g>
	<g>
		<polyline fill="#FFFFFF" points="9.1,20.1 9.1,22.1 11.1,23.1 13.1,22.1 13.1,20.1 		"/>
		<path fill="#FFFFFF" d="M11.1,24.2c-0.168,0-0.337-0.039-0.492-0.116l-2-1C8.235,22.897,8,22.517,8,22.1v-2
			C8,19.493,8.493,19,9.1,19s1.1,0.493,1.1,1.1v1.32l0.9,0.45l0.9-0.45V20.1c0-0.607,0.493-1.1,1.1-1.1s1.1,0.493,1.1,1.1v2
			c0,0.417-0.235,0.797-0.608,0.984l-2,1C11.437,24.162,11.268,24.2,11.1,24.2z"/>
	</g>
</g>
</svg>
