<?xml version="1.0" encoding="utf-8"?>
<!-- Generator: Adobe Illustrator 23.0.1, SVG Export Plug-In . SVG Version: 6.00 Build 0)  -->
<svg version="1.1" id="Layer_1" xmlns="http://www.w3.org/2000/svg" xmlns:xlink="http://www.w3.org/1999/xlink" x="0px" y="0px"
	 viewBox="0 0 30.5 30.5" style="enable-background:new 0 0 30.5 30.5;" xml:space="preserve">
<style type="text/css">
	.st0{fill:#FFFFFF;}
</style>
<path class="st0" d="M15.3,28.8c-7.5,0-13.5-6.1-13.5-13.6c0-7.5,6.1-13.5,13.5-13.5s13.5,6.1,13.5,13.5
	C29,22.8,22.9,28.8,15.3,28.8z M15.3,3.9C9.1,3.9,3.9,9,3.9,15.3s5.2,11.3,11.4,11.3s11.4-5.1,11.4-11.4S21.7,3.9,15.3,3.9z"/>
<path class="st0" d="M15.4,17.4c-2.8,0-5-2.2-5-5s2.2-5,5-5s5,2.2,5,5S18.1,17.4,15.4,17.4z M15.4,9.8c-1.5,0-2.7,1.2-2.7,2.7
	s1.2,2.7,2.7,2.7c1.5,0,2.7-1.2,2.7-2.7S16.9,9.8,15.4,9.8z"/>
<path class="st0" d="M19.3,28.3c-0.6,0-1.2-0.5-1.2-1.2v-3.9c0-1.5-1.2-2.7-2.7-2.7c-1.5,0-2.7,1.2-2.7,2.7v3.9
	c0,0.6-0.5,1.2-1.2,1.2c-0.6,0-1.2-0.5-1.2-1.2v-3.9c0-2.8,2.2-5,5-5s5,2.2,5,5v3.9C20.3,27.8,19.9,28.3,19.3,28.3z"/>
</svg>
