<?xml version="1.0" encoding="utf-8"?>
<!-- Generator: Adobe Illustrator 23.0.3, SVG Export Plug-In . SVG Version: 6.00 Build 0)  -->
<svg version="1.1" id="Layer_1" xmlns="http://www.w3.org/2000/svg" xmlns:xlink="http://www.w3.org/1999/xlink" x="0px" y="0px"
	 viewBox="0 0 75 75" style="enable-background:new 0 0 75 75;" xml:space="preserve">
<g id="Background_Color">
</g>
<g id="Shadow_Color">
</g>
<g>
	<path d="M45.6,20.9V35H31.7c-1,0-1.6,0.6-1.6,1.6s0.8,1.6,1.6,1.6h13.9v13.9c0,1,0.8,1.6,1.6,1.6s1.6-0.8,1.6-1.6V38.1h14.1
		c0.8,0,1.6-0.6,1.6-1.6S63.6,35,62.9,35H48.7V20.9c0-1-0.6-1.6-1.6-1.6S45.6,20.1,45.6,20.9z"/>
	<path d="M72.6,21.1L47.8,7.2c-0.4-0.2-1-0.2-1.4,0L21.5,21.1c-0.6,0.4-0.8,0.8-0.8,1.4v28c0,0.6,0.4,1.2,0.8,1.4L46.4,66
		c0.2,0.2,0.6,0.2,0.8,0.2c0.2,0,0.6-0.2,0.6-0.2l24.9-14.1c0.6-0.4,0.8-0.8,0.8-1.4v-28C73.4,21.9,73,21.3,72.6,21.1z M70.7,49.7
		L47.2,63L23.7,49.7V23.3l23.5-12.9l23.5,12.9V49.7z"/>
	<path d="M29.2,63.2L5.1,49.5V23.3L29.2,9.7c0.8-0.4,1-1.2,0.6-2s-1.2-1-2-0.6L2.9,21.1c-0.6,0.4-0.8,0.8-0.8,1.4v28
		c0,0.6,0.4,1,0.8,1.4L27.8,66c0.2,0.2,0.6,0.2,0.8,0.2c0.6,0,1-0.4,1.2-1C30.1,64.6,29.9,63.6,29.2,63.2z"/>
</g>
</svg>
