<?xml version="1.0" encoding="utf-8"?>
<!-- Generator: Adobe Illustrator 23.0.3, SVG Export Plug-In . SVG Version: 6.00 Build 0)  -->
<svg version="1.1" id="Layer_1" xmlns="http://www.w3.org/2000/svg" xmlns:xlink="http://www.w3.org/1999/xlink" x="0px" y="0px"
	 viewBox="0 0 75 75" style="enable-background:new 0 0 75 75;" xml:space="preserve">
<style type="text/css">
	.st0{fill:#658292;}
</style>
<g>
	<path class="st0" d="M38.6,25.6L30.2,8.9H10.4L2.1,25.6l8.3,16.7h19.8L38.6,25.6z M13.6,37.6l-6.3-12l6.3-12h13.6l6.3,12l-6.3,12
		H13.6z"/>
	<path class="st0" d="M64.1,31.8H44.3L36,48.5l8.3,16.7h19.8l8.3-16.7L64.1,31.8z M61,60.5H47.5l-6.3-12l6.3-12H61l5.7,12L61,60.5z"
		/>
	<path class="st0" d="M39.1,18.8l10.6,5.9L48.5,25c-1,0.5-1.6,1.6-1,2.6c0.5,1,1.6,1.6,2.6,1.6l6.3-2.1c0.5-0.5,1-0.5,1-1
		c0-0.5,0-1,0-1.6l-2.1-6.8c-0.5-1-1.6-1.6-2.6-1c-1,0.5-1.6,1.6-1,2.6l0.9,2.5l-11.9-6.1c-0.5-0.5-2.1-0.5-2.6,0.5
		C37.6,17.2,38.1,18.3,39.1,18.8z"/>
	<path class="st0" d="M25,49.1l1.6-0.5c1-0.5,1.6-1.6,1-2.6c-0.5-1-1.6-1.6-2.6-1l-6.3,2.1c-0.5,0.5-1,0.5-1,1c0,0.5,0,1,0,1.6
		l2.1,6.3c0,1,1,1.6,2.1,1c1,0,1.6-1,1.6-2.1l-0.8-2.3l11.7,6.5c1,0.5,2.1,0,2.6-1c0.5-1,0-2.1-1-3.1L25,49.1z"/>
</g>
</svg>
