<svg xmlns="http://www.w3.org/2000/svg" viewBox="0 0 504.12 473.01"><defs><style>.a{fill:#fff;}</style></defs><title>settings</title><path class="a" d="M486,355.45l18.11-10.24A124.45,124.45,0,0,0,499,325.12H478.13L466.71,305l10.63-18.11a101.85,101.85,0,0,0-14.57-14.57l-18.12,10.24-20.08-11.82V249.9c-.4,0-.79-.4-1.58-.4a142.23,142.23,0,0,0-18.51-5.12L393.85,262.5H370.61l-10.24-18.12a125.5,125.5,0,0,0-20.09,5.12v20.88L320.2,281.8l-18.12-10.64a101.92,101.92,0,0,0-14.57,14.58l10.24,18.11-11.82,20.09H265.06a122.83,122.83,0,0,0-5.51,19.69l18.11,10.63V377.5l-18.11,10.24a124.45,124.45,0,0,0,5.12,20.09h20.87L297,427.91,286.33,446A101.85,101.85,0,0,0,300.9,460.6L319,450.36l20.08,11.82v20.87c.4,0,.79.4,1.58.4a145.46,145.46,0,0,0,18.51,5.12l10.63-18.12h23.24l10.24,18.12a126.84,126.84,0,0,0,20.09-5.12V462.57l20.08-11.42,18.12,10.63a101.33,101.33,0,0,0,14.57-14.57l-10.24-18.12L477.74,409h20.87a123.12,123.12,0,0,0,5.51-19.69L486,378.68ZM382,435c-37.81,0-68.92-30.72-68.92-68.53A69,69,0,0,1,382,297.55c37.81,0,68.92,30.72,68.92,68.53S419.84,435,382,435Z" transform="translate(0 -15.56)"/><path class="a" d="M274.9,240.05a148.63,148.63,0,0,0-1.57-22.84l-22.45-4.73-8.27-24.42L258,170.73a122.58,122.58,0,0,0-12.6-18.9l-22.06,7.48L204,142.38l4.73-22.85a142.33,142.33,0,0,0-20.48-10.24l-15,17.33-25.2-5.12-7.49-22A148.63,148.63,0,0,0,117.76,101L113,123.47l-24.42,8.27L71.29,116.38A122.18,122.18,0,0,0,52.38,129L59.87,151l-16.94,19.3-22.84-4.73A142.33,142.33,0,0,0,9.85,186.09l17.33,15.36-5.12,25.21L0,233.75a147.4,147.4,0,0,0,1.58,22.84l22.84,4.73,8.27,24.42L17.33,303.06A121.47,121.47,0,0,0,29.93,322L52,314.49l19.3,16.93-5.12,22.84A140.8,140.8,0,0,0,86.65,364.5L102,347.17l25.2,5.12,7.48,22.06a147.52,147.52,0,0,0,22.85-1.58l4.72-22.44,24.42-8.28L204,357.41a120.21,120.21,0,0,0,18.9-12.6l-7.48-22.05,16.94-19.3,22.84,4.72a141.81,141.81,0,0,0,10.24-20.48l-17.33-15.36,5.12-25.2,21.66-7.09ZM137.45,312.91a76.41,76.41,0,1,1,76.41-76.41A76.47,76.47,0,0,1,137.45,312.91Z" transform="translate(0 -15.56)"/><path class="a" d="M456.86,125.05l16.54-6.7A136.17,136.17,0,0,0,471,100.63l-17.72-2.37-7.49-18.51,11-14.17A94.86,94.86,0,0,0,446.23,51.4l-16.54,6.69L413.93,45.88l2.37-17.72-1.19-.79a127.42,127.42,0,0,0-15.36-6.3l-11,14.18L369,32.49l-6.69-16.93a133.23,133.23,0,0,0-17.72,2l-2.37,17.72-18.9,7.88-14.18-11A94.86,94.86,0,0,0,295,42.73l6.7,16.54L289.48,75l-17.72-2.37a104.34,104.34,0,0,0-7.09,16.55l14.17,11-2.75,19.7-16.54,6.69a136,136,0,0,0,2.36,17.72l17.72,2.37,7.48,18.51-11,14.18a94.77,94.77,0,0,0,10.63,14.17l16.54-6.69L319,199.09l-2.37,17.72,1.19.79a125.81,125.81,0,0,0,15.36,6.3l11-14.18,19.7,2.76L370.61,229c5.91-.39,11.82-.79,17.72-2.36l2.37-17.72,18.51-7.49,14.18,11a94.77,94.77,0,0,0,14.17-10.63l-6.69-16.54,12.21-15.76,17.72,2.36a104.22,104.22,0,0,0,7.09-16.54l-14.18-11Zm-90.19,58.28a61,61,0,1,1,61.05-61A60.84,60.84,0,0,1,366.67,183.33Z" transform="translate(0 -15.56)"/></svg>