<svg id="Layer_1" enable-background="new 0 0 512 512" height="512" viewBox="0 0 512 512" width="512" xmlns="http://www.w3.org/2000/svg"><path d="m444.365 383.944c-1.284-2.89-4.149-4.753-7.312-4.753h-2.439c-26.419 0-50.222-9.546-70.748-28.373-3.177-2.914-8.09-2.787-11.113.287-25.722 26.165-60.083 40.574-96.753 40.574-74.814 0-135.68-60.865-135.68-135.679s60.866-135.68 135.68-135.68c36.67 0 71.031 14.409 96.752 40.574 3.022 3.074 7.937 3.201 11.113.287 20.526-18.827 44.329-28.373 70.748-28.373h2.439c3.162 0 6.028-1.863 7.312-4.753l11.834-26.647c1.343-3.024.686-6.564-1.655-8.904l-35.05-35.049c-2.34-2.34-5.878-2.997-8.904-1.655l-36.725 16.31c-21.914-14.084-45.824-23.997-71.192-29.513l-14.423-37.471c-1.188-3.088-4.156-5.126-7.466-5.126h-49.567c-3.31 0-6.277 2.038-7.466 5.126l-14.424 37.472c-25.368 5.517-49.278 15.429-71.194 29.513l-36.724-16.31c-3.025-1.343-6.564-.685-8.904 1.655l-35.049 35.05c-2.34 2.34-2.998 5.879-1.655 8.904l16.308 36.721c-14.085 21.91-23.998 45.822-29.515 71.197l-37.467 14.422c-3.088 1.189-5.126 4.157-5.126 7.466v49.567c0 3.31 2.038 6.277 5.126 7.466l37.462 14.419c5.521 25.391 15.434 49.304 29.518 71.211l-16.305 36.711c-1.343 3.024-.686 6.564 1.655 8.904l35.05 35.049c2.34 2.34 5.88 2.998 8.904 1.655l36.725-16.31c21.915 14.084 45.825 23.997 71.192 29.513l14.424 37.472c1.188 3.088 4.156 5.126 7.466 5.126h49.567c3.31 0 6.277-2.038 7.466-5.126l14.419-37.461c25.389-5.521 49.302-15.434 71.21-29.519l36.711 16.305c3.025 1.344 6.564.687 8.904-1.654l35.049-35.049c2.34-2.34 2.998-5.879 1.655-8.904zm-32.3 55.402-35.682-15.848c-2.513-1.115-5.423-.863-7.707.67-22.37 15.023-47.081 25.266-73.446 30.444-2.699.53-4.936 2.41-5.924 4.977l-14.014 36.411h-38.582l-14.02-36.421c-.988-2.566-3.225-4.446-5.924-4.976-26.343-5.174-51.048-15.415-73.43-30.44-2.284-1.533-5.193-1.785-7.706-.669l-35.695 15.853-27.282-27.281 15.848-35.682c1.116-2.513.863-5.424-.67-7.707-15.021-22.369-25.265-47.08-30.444-73.447-.53-2.699-2.41-4.936-4.977-5.924l-36.41-14.015v-38.582l36.417-14.018c2.567-.988 4.447-3.226 4.977-5.924 5.174-26.352 15.416-51.058 30.44-73.434 1.533-2.283 1.786-5.193.67-7.707l-15.851-35.69 27.281-27.282 35.694 15.853c2.513 1.115 5.422.863 7.706-.669 22.382-15.025 47.088-25.266 73.431-30.44 2.699-.53 4.937-2.41 5.924-4.976l14.02-36.422h38.582l14.019 36.421c.988 2.566 3.225 4.446 5.924 4.976 26.344 5.174 51.049 15.416 73.43 30.44 2.283 1.533 5.192 1.784 7.706.669l35.695-15.853 27.282 27.281-7.508 16.906c-26.662.615-51.734 10.099-73.08 27.598-28.077-25.928-64.279-40.118-102.757-40.118-83.636 0-151.68 68.043-151.68 151.68 0 83.636 68.043 151.679 151.68 151.679 38.479 0 74.681-14.19 102.757-40.118 21.346 17.499 46.419 26.983 73.081 27.598l7.508 16.906zm97.592-112.811c3.124 3.124 3.124 8.189 0 11.313l-39.307 39.307c-1.562 1.562-3.609 2.343-5.657 2.343s-4.095-.781-5.657-2.343c-3.124-3.124-3.124-8.189 0-11.313l25.65-25.65h-50.073c-24.368 0-45.214-13.253-61.958-39.39l-19.2-29.971-19.201 29.971c-16.745 26.137-37.59 39.39-61.959 39.39h-31.602c-4.418 0-8-3.582-8-8s3.582-8 8-8h31.602c18.823 0 34.683-10.474 48.486-32.021l23.173-36.171-23.172-36.171c-13.803-21.547-29.663-32.021-48.486-32.021h-31.602c-4.418 0-8-3.582-8-8s3.582-8 8-8h31.602c24.369 0 45.215 13.253 61.959 39.39l19.201 29.971 19.2-29.971c16.744-26.137 37.59-39.39 61.958-39.39h50.073l-25.651-25.651c-3.124-3.124-3.124-8.189 0-11.313s8.189-3.124 11.313 0l39.307 39.307c3.124 3.124 3.124 8.189 0 11.313l-39.307 39.308c-1.562 1.562-3.609 2.343-5.657 2.343s-4.095-.781-5.657-2.343c-3.124-3.124-3.125-8.189 0-11.313l25.65-25.65h-50.072c-18.823 0-34.683 10.474-48.486 32.021l-23.171 36.17 23.172 36.171c13.804 21.547 29.664 32.021 48.486 32.021h50.073l-25.65-25.65c-3.124-3.124-3.124-8.189 0-11.313s8.189-3.124 11.313 0z"/></svg>