<?xml version="1.0" encoding="UTF-8"?>
<svg xmlns="http://www.w3.org/2000/svg" width="512" height="512" viewBox="0 0 128 128"><g><path d="M87.06,58.03H82.936a19.439,19.439,0,0,0-1.328-3.195l2.918-2.919a1.749,1.749,0,0,0,0-2.475l-5.967-5.967a1.749,1.749,0,0,0-2.475,0l-2.919,2.918a19.352,19.352,0,0,0-3.2-1.328V40.94a1.751,1.751,0,0,0-1.75-1.75H59.78a1.75,1.75,0,0,0-1.75,1.75v4.131A19.71,19.71,0,0,0,54.838,46.4l-2.922-2.922a1.749,1.749,0,0,0-2.475,0l-5.967,5.967a1.749,1.749,0,0,0,0,2.475L46.4,54.838a19.8,19.8,0,0,0-1.324,3.192H40.94a1.751,1.751,0,0,0-1.75,1.75v8.44a1.751,1.751,0,0,0,1.75,1.75h4.123a19.443,19.443,0,0,0,1.329,3.2l-2.918,2.919a1.749,1.749,0,0,0,0,2.475l5.967,5.967a1.749,1.749,0,0,0,2.475,0l2.919-2.918a19.352,19.352,0,0,0,3.2,1.328V87.06a1.75,1.75,0,0,0,1.75,1.75h8.44a1.751,1.751,0,0,0,1.75-1.75V82.929A19.71,19.71,0,0,0,73.162,81.6l2.922,2.922a1.749,1.749,0,0,0,2.475,0l5.967-5.967a1.749,1.749,0,0,0,0-2.475L81.6,73.162a19.71,19.71,0,0,0,1.325-3.192H87.06a1.751,1.751,0,0,0,1.75-1.75V59.78A1.751,1.751,0,0,0,87.06,58.03Zm-1.75,8.44H81.6a1.751,1.751,0,0,0-1.7,1.344,16.218,16.218,0,0,1-1.96,4.728,1.749,1.749,0,0,0,.253,2.153l2.626,2.626-3.493,3.494-2.626-2.626a1.749,1.749,0,0,0-2.153-.254A16.243,16.243,0,0,1,67.813,79.9a1.749,1.749,0,0,0-1.343,1.7V85.31H61.53v-3.7a1.75,1.75,0,0,0-1.345-1.7,16.07,16.07,0,0,1-4.726-1.963,1.749,1.749,0,0,0-2.156.251l-2.624,2.624-3.494-3.494L49.809,74.7a1.75,1.75,0,0,0,.251-2.156A16.081,16.081,0,0,1,48.1,67.815a1.75,1.75,0,0,0-1.7-1.345h-3.7V61.53H46.4a1.749,1.749,0,0,0,1.7-1.344,16.248,16.248,0,0,1,1.961-4.728,1.748,1.748,0,0,0-.254-2.153l-2.626-2.626,3.494-3.494,2.626,2.626a1.746,1.746,0,0,0,2.153.254A16.248,16.248,0,0,1,60.186,48.1a1.749,1.749,0,0,0,1.344-1.7V42.69h4.94V46.4a1.75,1.75,0,0,0,1.345,1.7,16.081,16.081,0,0,1,4.726,1.963,1.746,1.746,0,0,0,2.156-.251l2.624-2.624,3.493,3.494L78.191,53.3a1.751,1.751,0,0,0-.252,2.156A16.057,16.057,0,0,1,79.9,60.185a1.75,1.75,0,0,0,1.7,1.345h3.7Z"/><path d="M64,52.44A11.56,11.56,0,1,0,75.56,64,11.573,11.573,0,0,0,64,52.44Zm0,19.62A8.06,8.06,0,1,1,72.06,64,8.07,8.07,0,0,1,64,72.06Z"/><path d="M92.952,80.124a32.886,32.886,0,0,0,2.925-7.054H104a1.749,1.749,0,0,0,1.75-1.75V56.68A1.749,1.749,0,0,0,104,54.93H95.892a32.673,32.673,0,0,0-2.934-7.06l5.74-5.741a1.749,1.749,0,0,0,0-2.475L88.345,29.3a1.8,1.8,0,0,0-2.475,0l-5.739,5.74a32.672,32.672,0,0,0-7.061-2.934V24a1.749,1.749,0,0,0-1.75-1.75H56.68A1.749,1.749,0,0,0,54.93,24v8.123a32.886,32.886,0,0,0-7.054,2.925L42.129,29.3a1.749,1.749,0,0,0-2.475,0L29.3,39.654a1.749,1.749,0,0,0,0,2.475l5.746,5.747a32.886,32.886,0,0,0-2.925,7.054H24a1.749,1.749,0,0,0-1.75,1.75V71.32A1.749,1.749,0,0,0,24,73.07h8.108a32.7,32.7,0,0,0,2.934,7.061l-5.74,5.74a1.749,1.749,0,0,0,0,2.475L39.654,98.7a1.749,1.749,0,0,0,2.475,0l5.74-5.74a32.722,32.722,0,0,0,7.061,2.934V104a1.749,1.749,0,0,0,1.75,1.75H71.32A1.749,1.749,0,0,0,73.07,104V95.877a32.886,32.886,0,0,0,7.054-2.925L85.87,98.7a1.749,1.749,0,0,0,2.475,0L98.7,88.346a1.749,1.749,0,0,0,0-2.475ZM87.107,94.986l-5.463-5.464a1.749,1.749,0,0,0-2.154-.254,29.44,29.44,0,0,1-8.577,3.556,1.752,1.752,0,0,0-1.343,1.7v7.724H58.43V94.54a1.749,1.749,0,0,0-1.345-1.7,29.246,29.246,0,0,1-8.578-3.564,1.749,1.749,0,0,0-2.155.252l-5.46,5.46-7.878-7.878,5.461-5.46a1.751,1.751,0,0,0,.252-2.156,29.175,29.175,0,0,1-3.564-8.577,1.75,1.75,0,0,0-1.7-1.345H25.75V58.43h7.724a1.752,1.752,0,0,0,1.7-1.343,29.44,29.44,0,0,1,3.556-8.577,1.749,1.749,0,0,0-.254-2.154l-5.464-5.464,7.878-7.878,5.464,5.464a1.747,1.747,0,0,0,2.154.254,29.44,29.44,0,0,1,8.577-3.556,1.752,1.752,0,0,0,1.343-1.7V25.75H69.57v7.71a1.749,1.749,0,0,0,1.345,1.7,29.257,29.257,0,0,1,8.578,3.564,1.746,1.746,0,0,0,2.155-.252l5.459-5.46,7.879,7.878-5.461,5.461a1.75,1.75,0,0,0-.252,2.156,29.158,29.158,0,0,1,3.564,8.576,1.749,1.749,0,0,0,1.7,1.345h7.711V69.57H94.526a1.752,1.752,0,0,0-1.7,1.343,29.44,29.44,0,0,1-3.556,8.577,1.75,1.75,0,0,0,.253,2.154l5.465,5.464Z"/><path d="M110.492,17.508a8.756,8.756,0,0,0-11.551-.716A59.108,59.108,0,0,0,49.4,7.085a1.75,1.75,0,0,0,.868,3.391,55.607,55.607,0,0,1,46.394,8.979,8.747,8.747,0,1,0,13.833-1.947Zm-2.474,9.9a5.248,5.248,0,1,1,0-7.425A5.256,5.256,0,0,1,108.018,27.407Z"/><path d="M33.309,17.7a1.741,1.741,0,0,0,.941-.276,55.067,55.067,0,0,1,7.837-4.164A1.75,1.75,0,0,0,40.7,10.052a58.668,58.668,0,0,0-8.335,4.429,1.75,1.75,0,0,0,.946,3.224Z"/><path d="M23.7,25.445a1.746,1.746,0,0,0,1.239-.513c.866-.867,1.773-1.717,2.7-2.527a1.75,1.75,0,0,0-2.307-2.633c-.981.861-1.946,1.765-2.867,2.687A1.749,1.749,0,0,0,23.7,25.445Z"/><path d="M77.734,117.524a55.6,55.6,0,0,1-46.393-8.979,8.757,8.757,0,1,0-2.292,2.671,59.069,59.069,0,0,0,35.075,11.512A58.445,58.445,0,0,0,78.6,120.915a1.75,1.75,0,0,0-.868-3.391Zm-57.752-9.506a5.25,5.25,0,1,1,7.425,0A5.256,5.256,0,0,1,19.982,108.018Z"/><path d="M93.75,110.571a54.965,54.965,0,0,1-7.837,4.164,1.75,1.75,0,1,0,1.389,3.213,58.722,58.722,0,0,0,8.335-4.429,1.75,1.75,0,0,0-1.887-2.948Z"/><path d="M103.066,103.068c-.868.87-1.776,1.719-2.7,2.527a1.75,1.75,0,0,0,2.307,2.633c.979-.859,1.944-1.762,2.868-2.687a1.75,1.75,0,1,0-2.477-2.473Z"/></g></svg>
