<svg id="Capa_1" enable-background="new 0 0 517.545 517.545" height="512" viewBox="0 0 517.545 517.545" width="512" xmlns="http://www.w3.org/2000/svg"><g><g><path d="m441.18 181.038c-4.142 0-7.5 3.358-7.5 7.5v271.835c0 14.132-11.498 25.63-25.63 25.63h-291.39c-14.133 0-25.63-11.498-25.63-25.63v-.43h42.112c4.142 0 7.5-3.358 7.5-7.5v-110.911c0-4.142-3.358-7.5-7.5-7.5h-72.991c-7.525 0-13.646-6.122-13.646-13.646s6.122-13.646 13.646-13.646h72.991c4.142 0 7.5-3.358 7.5-7.5v-215.877c0-4.142-3.358-7.5-7.5-7.5h-93.912c-21.631 0-39.23 17.599-39.23 39.23v304.22c0 22.403 18.227 40.63 40.63 40.63h35.4v.43c0 22.403 18.227 40.63 40.63 40.63h291.39c22.404 0 40.63-18.227 40.63-40.63v-271.835c0-4.142-3.358-7.5-7.5-7.5zm-426.18 238.275v-304.22c0-13.36 10.87-24.23 24.23-24.23h86.412v200.876h-65.491c-15.796 0-28.646 12.851-28.646 28.646s12.851 28.646 28.646 28.646h65.491v95.911h-85.012c-14.132.001-25.63-11.496-25.63-25.629z"/><path d="m287.668 419.536v-37.884c0-4.142-3.358-7.5-7.5-7.5s-7.5 3.358-7.5 7.5v37.884c0 4.142 3.358 7.5 7.5 7.5s7.5-3.358 7.5-7.5z"/><path d="m258.684 419.536v-61.789c0-4.142-3.358-7.5-7.5-7.5s-7.5 3.358-7.5 7.5v61.789c0 4.142 3.358 7.5 7.5 7.5s7.5-3.358 7.5-7.5z"/><path d="m214.698 419.536c0 4.142 3.358 7.5 7.5 7.5s7.5-3.358 7.5-7.5v-24.718c0-4.142-3.358-7.5-7.5-7.5s-7.5 3.358-7.5 7.5z"/><path d="m200.713 419.536v-78.833c0-4.142-3.358-7.5-7.5-7.5s-7.5 3.358-7.5 7.5v78.833c0 4.142 3.358 7.5 7.5 7.5s7.5-3.358 7.5-7.5z"/><path d="m481.524 16.542h-72.193c-19.862 0-36.021 16.159-36.021 36.021v23.3h-203.68c-4.142 0-7.5 3.358-7.5 7.5s3.358 7.5 7.5 7.5h203.68v33.893c0 19.862 16.159 36.021 36.021 36.021h72.193c19.862 0 36.021-16.159 36.021-36.021v-72.193c0-19.862-16.159-36.021-36.021-36.021zm21.021 108.214c0 11.591-9.43 21.021-21.021 21.021h-72.193c-11.591 0-21.021-9.43-21.021-21.021v-41.383c0-.003 0-.006 0-.01s0-.006 0-.01v-30.79c0-11.591 9.43-21.021 21.021-21.021h72.193c11.591 0 21.021 9.43 21.021 21.021z"/><path d="m168.085 203.889c0 10.938 8.899 19.838 19.838 19.838h94.483c10.938 0 19.838-8.899 19.838-19.838v-18.458c0-10.938-8.899-19.838-19.838-19.838h-94.483c-10.938 0-19.838 8.899-19.838 19.838zm15-18.457c0-2.667 2.17-4.838 4.838-4.838h94.483c2.667 0 4.838 2.17 4.838 4.838v18.458c0 2.667-2.17 4.838-4.838 4.838h-94.483c-2.667 0-4.838-2.17-4.838-4.838z"/><path d="m412.422 185.432c0-10.938-8.899-19.838-19.838-19.838h-47.266c-10.938 0-19.838 8.899-19.838 19.838v86.586c0 10.938 8.899 19.838 19.838 19.838h47.266c10.938 0 19.838-8.899 19.838-19.838zm-15 86.586c0 2.667-2.17 4.838-4.838 4.838h-47.266c-2.667 0-4.838-2.17-4.838-4.838v-86.586c0-2.667 2.17-4.838 4.838-4.838h47.266c2.667 0 4.838 2.17 4.838 4.838z"/><path d="m168.085 272.018c0 10.938 8.899 19.838 19.838 19.838h94.483c10.938 0 19.838-8.899 19.838-19.838v-18.458c0-10.938-8.899-19.838-19.838-19.838h-94.483c-10.938 0-19.838 8.899-19.838 19.838zm15-18.457c0-2.667 2.17-4.838 4.838-4.838h94.483c2.667 0 4.838 2.17 4.838 4.838v18.458c0 2.667-2.17 4.838-4.838 4.838h-94.483c-2.667 0-4.838-2.17-4.838-4.838z"/><path d="m330.026 411.865c2.899.938 7.395.165 9.547-4.547.411-1.082 4.374-10.563 16.913-10.563h.319c9.724.006 20.698.001 29.728-4.096 11.414-5.179 17.202-15.549 17.202-30.821 0-4.142-3.358-7.5-7.5-7.5s-7.5 3.358-7.5 7.5c0 11.833-4.489 15.387-8.399 17.161-6 2.723-14.729 2.756-23.21 2.756-.106 0-.213 0-.318 0h-.32c-23.556 0-30.739 19.668-31.034 20.505-1.375 3.908.665 8.231 4.572 9.605z"/><path d="m332.981 441.912c-4.142 0-7.5 3.358-7.5 7.5s3.358 7.5 7.5 7.5h71.941c4.142 0 7.5-3.358 7.5-7.5s-3.358-7.5-7.5-7.5z"/><path d="m175.978 449.412c0 4.142 3.358 7.5 7.5 7.5h111.266c4.142 0 7.5-3.358 7.5-7.5s-3.358-7.5-7.5-7.5h-111.266c-4.143 0-7.5 3.358-7.5 7.5z"/><ellipse cx="39.005" cy="122.042" rx="7.379" ry="7.379" transform="matrix(.973 -.23 .23 .973 -26.996 12.226)"/><path d="m67.441 129.542h36.654c4.142 0 7.5-3.358 7.5-7.5s-3.358-7.5-7.5-7.5h-36.654c-4.142 0-7.5 3.358-7.5 7.5s3.358 7.5 7.5 7.5z"/><ellipse cx="39.005" cy="165.747" rx="7.379" ry="7.379" transform="matrix(.707 -.707 .707 .707 -105.777 76.127)"/><path d="m67.441 173.247h36.654c4.142 0 7.5-3.358 7.5-7.5s-3.358-7.5-7.5-7.5h-36.654c-4.142 0-7.5 3.358-7.5 7.5s3.358 7.5 7.5 7.5z"/><ellipse cx="39.005" cy="209.453" rx="7.379" ry="7.379" transform="matrix(.987 -.16 .16 .987 -33.047 8.953)"/><path d="m67.441 216.952h36.654c4.142 0 7.5-3.358 7.5-7.5s-3.358-7.5-7.5-7.5h-36.654c-4.142 0-7.5 3.358-7.5 7.5s3.358 7.5 7.5 7.5z"/><ellipse cx="39.005" cy="253.158" rx="7.379" ry="7.379" transform="matrix(.973 -.23 .23 .973 -57.121 15.734)"/><path d="m67.441 260.658h36.654c4.142 0 7.5-3.358 7.5-7.5s-3.358-7.5-7.5-7.5h-36.654c-4.142 0-7.5 3.358-7.5 7.5s3.358 7.5 7.5 7.5z"/><ellipse cx="39.005" cy="378.863" rx="7.379" ry="7.379" transform="matrix(.973 -.23 .23 .973 -86.001 19.096)"/><path d="m111.596 378.863c0-4.142-3.358-7.5-7.5-7.5h-36.655c-4.142 0-7.5 3.358-7.5 7.5s3.358 7.5 7.5 7.5h36.654c4.143 0 7.501-3.358 7.501-7.5z"/><path d="m210.384 129.542c4.142 0 7.5-3.358 7.5-7.5s-3.358-7.5-7.5-7.5h-34.799c-4.142 0-7.5 3.358-7.5 7.5s3.358 7.5 7.5 7.5z"/><path d="m466.364 83.38c3.727-4.617 5.966-10.484 5.966-16.867 0-14.834-12.068-26.902-26.902-26.902s-26.902 12.068-26.902 26.902c0 6.382 2.238 12.249 5.966 16.867-12.758 6.426-22.223 18.588-24.803 33.492-.668 3.864.392 7.795 2.911 10.787 2.502 2.972 6.166 4.677 10.052 4.677h65.555c3.886 0 7.55-1.705 10.052-4.677 2.519-2.992 3.579-6.923 2.911-10.787-2.583-14.903-12.048-27.065-24.806-33.492zm-32.839-16.867c0-6.563 5.339-11.902 11.902-11.902s11.902 5.339 11.902 11.902-5.339 11.902-11.902 11.902-11.902-5.339-11.902-11.902zm-18.622 50.824c3.401-13.983 15.914-23.921 30.524-23.921s27.123 9.938 30.524 23.921z"/><ellipse cx="222.198" cy="361.747" rx="7.379" ry="7.379" transform="matrix(.973 -.23 .23 .973 -77.169 60.728)"/></g></g></svg>