<?xml version="1.0" encoding="UTF-8"?>
<svg xmlns="http://www.w3.org/2000/svg" id="outline" viewBox="0 0 512 512" width="512" height="512"><path d="M488,272H460.94409l-36-72H436a36,36,0,0,0,0-72H380l-4.7998-6.3999A64.30587,64.30587,0,0,0,324,96H296a24.03853,24.03853,0,0,0-16-22.62378V40a24,24,0,0,0-48,0V73.37622A24.03853,24.03853,0,0,0,216,96H188a64.30681,64.30681,0,0,0-51.2002,25.59961L132,128H76a36,36,0,0,0,0,72H87.05591l-36,72H24a8.00008,8.00008,0,0,0-8,8v16a64.07239,64.07239,0,0,0,64,64h64a64.07239,64.07239,0,0,0,64-64V280a8.00008,8.00008,0,0,0-8-8H172.94409l-48-96H152a8.00229,8.00229,0,0,0,6.40039-3.2002l14.40039-19.20019A24.1139,24.1139,0,0,1,192,144h24a8.00008,8.00008,0,0,0,8,8h8V381.57764l-12.28271,18.42444A39.78212,39.78212,0,0,0,184,422.11133L179.05591,432H152a56.06322,56.06322,0,0,0-56,56,8.00008,8.00008,0,0,0,8,8H408a8.00008,8.00008,0,0,0,8-8,56.06322,56.06322,0,0,0-56-56H332.94434L328,422.11084a39.78255,39.78255,0,0,0-35.71729-22.10876L280,381.57764V152h8a8.00008,8.00008,0,0,0,8-8h24a24.1139,24.1139,0,0,1,19.19922,9.59961l14.40039,19.20019A8.00229,8.00229,0,0,0,360,176h27.05591l-48,96H312a8.00008,8.00008,0,0,0-8,8v16a64.07239,64.07239,0,0,0,64,64h64a64.07239,64.07239,0,0,0,64-64V280A8.00008,8.00008,0,0,0,488,272ZM256,32a8.00917,8.00917,0,0,1,8,8V72H248V40A8.00917,8.00917,0,0,1,256,32ZM192,296a48.054,48.054,0,0,1-48,48H80a48.054,48.054,0,0,1-48-48v-8H192ZM68.94409,272,112,185.88818,155.05591,272ZM192,128a40.19106,40.19106,0,0,0-32,16l-12,16H72v16H99.05591l-4,8H76a20,20,0,0,1,0-40h60a8.00229,8.00229,0,0,0,6.40039-3.2002l7.2002-9.60009A48.22589,48.22589,0,0,1,188,112h28v16ZM399.19629,480H112.80371A40.07061,40.07061,0,0,1,152,448H360A40.07061,40.07061,0,0,1,399.19629,480Zm-85.50684-50.7334L315.05615,432H196.94409l1.36646-2.73291A23.86955,23.86955,0,0,1,219.77734,416h72.44532A23.87,23.87,0,0,1,313.68945,429.2666Zm-48.3457-40.8291L273.052,400H238.948l7.70825-11.5625A7.99983,7.99983,0,0,0,248,384V152h16V384A7.99983,7.99983,0,0,0,265.34375,388.4375ZM280,136H232V96a8.00917,8.00917,0,0,1,8-8h32a8.00917,8.00917,0,0,1,8,8Zm72,8a40.19106,40.19106,0,0,0-32-16H296V112h28a48.225,48.225,0,0,1,38.39941,19.2002l7.2002,9.5996A8.00229,8.00229,0,0,0,376,144h60a20,20,0,0,1,0,40H416.94409l-4-8H440V160H364Zm48,41.88818L443.05591,272H356.94409ZM480,296a48.054,48.054,0,0,1-48,48H368a48.054,48.054,0,0,1-48-48v-8H480Z"/></svg>
