<?xml version="1.0" encoding="iso-8859-1"?>
<!-- Generator: Adobe Illustrator 19.0.0, SVG Export Plug-In . SVG Version: 6.00 Build 0)  -->
<svg version="1.1" id="Capa_1" xmlns="http://www.w3.org/2000/svg" xmlns:xlink="http://www.w3.org/1999/xlink" x="0px" y="0px"
	 viewBox="0 0 512 512" style="enable-background:new 0 0 512 512;" xml:space="preserve">
<g>
	<g>
		<path d="M511.853,247.702c0.263-2.162,0.151-4.341-0.285-6.458c-3.547-62.831-29.692-121.406-74.548-166.264
			C388.667,26.629,324.38,0,256,0S123.333,26.629,74.98,74.98C26.629,123.333,0,187.62,0,256c0,37.254,7.921,73.286,22.936,106.196
			c0.224,0.554,0.472,1.091,0.74,1.616c12.49,26.872,29.727,51.63,51.304,73.208C123.333,485.371,187.62,512,256,512
			c46.813,0,92.618-12.758,132.462-36.894c9.448-5.724,12.467-18.021,6.744-27.469c-5.723-9.448-18.022-12.467-27.468-6.744
			C334.144,461.244,295.506,472,256,472c-86.335,0-160.99-50.923-195.54-124.303c-2.584-14.713,0.115-28.618,7.408-37.615
			C73.292,303.391,80.607,300,89.614,300c0.082,0,0.166,0,0.248,0.001c21.813,0.149,49.194,19.803,75.145,53.947
			c30.051,39.401,63.881,68.068,100.549,85.205c2.739,1.279,5.619,1.886,8.455,1.886c7.526,0,14.735-4.269,18.132-11.537
			c4.676-10.007,0.355-21.91-9.651-26.587c-30.758-14.374-59.584-39.011-85.659-73.197C153.273,272.402,114.769,260.17,90.137,260
			c-18.948-0.13-36.025,6.884-48.813,19.856c-0.84-7.612-1.291-15.34-1.315-23.167c3.279-46.438,33.966-80.336,73.171-80.69
			c0.209-0.002,0.417-0.003,0.626-0.003c17.927,0,37.621,6.91,57.002,20.006c24.049,16.251,47.427,41.482,69.486,74.994
			c3.843,5.839,10.221,9.006,16.724,9.006c3.774,0,7.59-1.066,10.978-3.296c9.227-6.073,11.783-18.476,5.709-27.702
			c-65.162-98.996-128.753-113.295-160.886-113.003c-11.267,0.102-22.241,1.957-32.657,5.439C100.051,114.851,137.133,99,162,99
			c32.495,0,86.375,30.811,133.497,99.644C340.996,265.105,378.707,291,430,291c9.247,0,24.921-2.67,40.336-8.417
			c-0.117,0.932-0.241,1.862-0.37,2.792c-7.585,31.893-36.219,54.282-70.169,54.626c-21.643,0.214-44.768-8.852-68.744-26.96
			c-8.814-6.659-21.356-4.909-28.013,3.905c-6.657,8.814-4.909,21.356,3.906,28.013c30.795,23.26,61.766,35.046,92.075,35.046
			c0.394,0,0.788-0.002,1.181-0.006c12.798-0.129,25.104-2.327,36.583-6.269c-0.469,0.719-0.934,1.439-1.412,2.154
			c-6.139,9.183-3.672,21.604,5.511,27.742c9.184,6.139,21.603,3.673,27.742-5.51c21.443-32.073,35.24-67.975,40.705-105.408
			c0.022-0.101,0.05-0.199,0.072-0.3c0.219-1.01,0.331-2.016,0.393-3.017C511.257,278.368,512,267.219,512,256
			C512,253.226,511.94,250.461,511.853,247.702z M452.357,166.051c-21.576,4.508-38.821-14.386-70.635-55.904
			c-13.843-18.065-29.004-37.849-46.956-55.276C386.832,75.332,429.087,115.457,452.357,166.051z M430,251
			c-25.393,0-54.147-5.787-101.497-74.952c-23.838-34.821-51.838-64.147-80.972-84.808c-27.821-19.729-55.495-30.756-80.407-32.099
			c1.707-0.773,3.426-1.523,5.156-2.253c1.289-0.137,2.583-0.397,3.868-0.799C193.163,50.772,209.626,46,224,46
			c58.175,0,92.641,44.979,125.971,88.476c17.14,22.367,33.329,43.494,52.235,57.115c14.137,10.185,28.769,15.283,43.761,15.282
			c6.499,0,13.066-0.964,19.688-2.882c2.719,10.956,4.599,22.237,5.568,33.775C461.039,244.839,440.001,251,430,251z"/>
	</g>
</g>
<g>
</g>
<g>
</g>
<g>
</g>
<g>
</g>
<g>
</g>
<g>
</g>
<g>
</g>
<g>
</g>
<g>
</g>
<g>
</g>
<g>
</g>
<g>
</g>
<g>
</g>
<g>
</g>
<g>
</g>
</svg>
