<svg id="Layer_1" height="512" viewBox="0 0 100 100" width="512" xmlns="http://www.w3.org/2000/svg"><path d="m73.333 39.996v-6.66c0-7.361-5.97-13.336-13.333-13.336v6.67c3.679 0 6.667 2.986 6.667 6.666v6.66c0 4.006 1.803 7.559 4.6 10.004-2.797 2.444-4.6 5.992-4.6 10v6.666c0 3.682-2.988 6.667-6.67 6.667v6.667c7.359 0 13.336-5.967 13.336-13.334v-6.666c0-3.682 2.988-6.667 6.667-6.667v-6.67c-3.685 0-6.667-2.986-6.667-6.667z"/><path d="m33.337 40v-6.667c0-3.682 2.988-6.667 6.67-6.667v-6.666c-7.363 0-13.337 5.967-13.337 13.333l-.003 6.667c0 3.682-2.985 6.666-6.667 6.666v6.667l.003.003c3.682 0 6.667 2.985 6.667 6.667v6.66c0 7.36 5.967 13.337 13.333 13.337v-6.67c-3.682 0-6.666-2.985-6.666-6.667v-6.66c0-4.007-1.804-7.559-4.6-10.003 2.796-2.445 4.6-5.995 4.6-10z"/></svg>