<svg height="480pt" viewBox="0 0 480 480" width="480pt" xmlns="http://www.w3.org/2000/svg"><path d="m392 48c-22.054688 0-40 17.945312-40 40s17.945312 40 40 40 40-17.945312 40-40-17.945312-40-40-40zm0 64c-13.230469 0-24-10.769531-24-24s10.769531-24 24-24 24 10.769531 24 24-10.769531 24-24 24zm0 0"/><path d="m474.511719 67.039062-13.617188-4.503906c-.664062-1.792968-1.40625-3.566406-2.214843-5.320312l5.726562-12.054688c1.242188-2.617187.976562-5.703125-.710938-8.070312-5.734374-8.058594-12.726562-15.050782-20.785156-20.785156-2.375-1.6875-5.46875-1.945313-8.070312-.710938l-12.054688 5.726562c-1.753906-.816406-3.527344-1.550781-5.320312-2.214843l-4.503906-13.617188c-1.089844-3.28125-4.136719-5.488281-7.59375-5.488281h-26.734376c-3.457031 0-6.503906 2.207031-7.59375 5.488281l-4.605468 13.925781-4.921875 2.050782-12.351563-5.863282c-2.59375-1.234374-5.695312-.976562-8.070312.710938-8.074219 5.742188-15.066406 12.734375-20.792969 20.792969-1.679687 2.359375-1.945313 5.445312-.703125 8.0625l5.863281 12.351562-2.050781 4.921875-13.925781 4.605469c-3.273438 1.082031-5.480469 4.128906-5.480469 7.585937v26.726563c0 3.449219 2.207031 6.503906 5.488281 7.59375l13.925781 4.613281 2.050782 4.921875-5.863282 12.351563c-1.242187 2.617187-.976562 5.703125.710938 8.070312 5.734375 8.058594 12.726562 15.050782 20.785156 20.785156 2.375 1.6875 5.46875 1.945313 8.070313.710938l12.351562-5.863281 4.921875 2.050781 4.605469 13.925781c1.082031 3.273438 4.128906 5.480469 7.585937 5.480469h26.734376c3.457031 0 6.503906-2.207031 7.59375-5.488281l4.503906-13.617188c1.792968-.664062 3.566406-1.40625 5.320312-2.214843l12.054688 5.726562c2.609375 1.242188 5.695312.976562 8.070312-.710938 8.058594-5.734374 15.050782-12.726562 20.785156-20.785156 1.6875-2.367187 1.953126-5.453125.710938-8.070312l-5.726562-12.054688c.816406-1.753906 1.550781-3.527344 2.214843-5.320312l13.617188-4.511719c3.28125-1.089844 5.488281-4.144531 5.488281-7.59375v-26.726563c0-3.457031-2.207031-6.503906-5.488281-7.59375zm-10.511719 28.546876-11.910156 3.941406c-2.464844.816406-4.386719 2.777344-5.136719 5.257812-1.058594 3.460938-2.480469 6.878906-4.226563 10.167969-1.183593 2.230469-1.246093 4.902344-.167968 7.183594l5.304687 11.167969c-3.152343 3.871093-6.679687 7.40625-10.550781 10.550781l-11.167969-5.304688c-2.28125-1.085937-4.953125-1.03125-7.183593.167969-3.28125 1.753906-6.703126 3.167969-10.167969 4.226562-2.488281.757813-4.449219 2.671876-5.257813 5.132813l-3.949218 11.921875h-15.171876l-3.941406-11.910156c-.730468-2.203125-2.382812-3.984375-4.519531-4.875l-11.59375-4.816406c-2.085937-.855469-4.449219-.804688-6.496094.167968l-11.167969 5.304688c-3.871093-3.152344-7.40625-6.679688-10.550781-10.550782l5.304688-11.167968c.964843-2.046875 1.03125-4.410156.167969-6.496094l-4.816407-11.585938c-.890625-2.140624-2.671875-3.796874-4.871093-4.519531l-11.929688-3.964843v-15.171876l11.910156-3.941406c2.203125-.730468 3.984375-2.382812 4.875-4.519531l4.816406-11.59375c.863282-2.09375.804688-4.457031-.167968-6.496094l-5.304688-11.167969c3.144532-3.871093 6.671875-7.40625 10.550782-10.550781l11.167968 5.304688c2.054688.976562 4.417969 1.03125 6.496094.167969l11.585938-4.816407c2.140624-.890625 3.796874-2.671875 4.519531-4.871093l3.964843-11.929688h15.171876l3.941406 11.910156c.816406 2.464844 2.777344 4.378906 5.257812 5.136719 3.460938 1.058594 6.878906 2.480469 10.167969 4.226563 2.230469 1.183593 4.902344 1.238281 7.183594.167968l11.167969-5.304687c3.871093 3.152343 7.40625 6.679687 10.550781 10.550781l-5.296875 11.167969c-1.085938 2.28125-1.023438 4.953125.167968 7.183593 1.753907 3.28125 3.167969 6.703126 4.226563 10.167969.757813 2.488281 2.671875 4.449219 5.136719 5.257813l11.910156 3.949218zm0 0"/><path d="m88 432c22.054688 0 40-17.945312 40-40s-17.945312-40-40-40-40 17.945312-40 40 17.945312 40 40 40zm0-64c13.230469 0 24 10.769531 24 24s-10.769531 24-24 24-24-10.769531-24-24 10.769531-24 24-24zm0 0"/><path d="m5.488281 412.953125 13.925781 4.613281 2.050782 4.921875-5.863282 12.351563c-1.242187 2.617187-.976562 5.703125.710938 8.070312 5.734375 8.058594 12.726562 15.050782 20.785156 20.785156 2.375 1.6875 5.46875 1.945313 8.070313.710938l12.351562-5.863281 4.921875 2.050781 4.605469 13.925781c1.082031 3.273438 4.128906 5.480469 7.585937 5.480469h26.734376c3.457031 0 6.503906-2.207031 7.59375-5.488281l4.503906-13.617188c1.792968-.664062 3.566406-1.40625 5.320312-2.214843l12.054688 5.726562c2.609375 1.242188 5.703125.984375 8.070312-.710938 8.058594-5.734374 15.050782-12.726562 20.785156-20.785156 1.6875-2.367187 1.953126-5.453125.710938-8.070312l-5.726562-12.054688c.816406-1.753906 1.550781-3.527344 2.214843-5.320312l13.617188-4.511719c3.28125-1.089844 5.488281-4.144531 5.488281-7.59375v-26.726563c0-3.457031-2.207031-6.503906-5.488281-7.59375l-13.617188-4.503906c-.664062-1.792968-1.40625-3.566406-2.214843-5.320312l5.726562-12.054688c1.242188-2.617187.976562-5.703125-.710938-8.070312-5.734374-8.058594-12.726562-15.050782-20.785156-20.785156-2.375-1.695313-5.46875-1.945313-8.070312-.710938l-12.054688 5.726562c-1.753906-.816406-3.527344-1.550781-5.320312-2.214843l-4.503906-13.617188c-1.089844-3.28125-4.136719-5.488281-7.59375-5.488281h-26.734376c-3.457031 0-6.503906 2.207031-7.59375 5.488281l-4.605468 13.925781-4.921875 2.050782-12.351563-5.863282c-2.59375-1.234374-5.6875-.976562-8.070312.710938-8.074219 5.742188-15.066406 12.734375-20.792969 20.792969-1.679687 2.359375-1.945313 5.445312-.703125 8.0625l5.863281 12.351562-2.050781 4.921875-13.917969 4.597656c-3.28125 1.089844-5.488281 4.136719-5.488281 7.59375v26.726563c0 3.449219 2.207031 6.503906 5.488281 7.59375zm10.511719-28.539063 11.910156-3.941406c2.203125-.730468 3.984375-2.382812 4.875-4.519531l4.816406-11.59375c.863282-2.09375.804688-4.457031-.167968-6.496094l-5.304688-11.167969c3.144532-3.871093 6.671875-7.40625 10.550782-10.550781l11.167968 5.304688c2.054688.976562 4.410156 1.039062 6.496094.167969l11.585938-4.816407c2.140624-.890625 3.796874-2.671875 4.519531-4.871093l3.964843-11.929688h15.171876l3.941406 11.910156c.816406 2.464844 2.777344 4.378906 5.257812 5.136719 3.460938 1.058594 6.878906 2.480469 10.167969 4.226563 2.230469 1.183593 4.902344 1.238281 7.183594.167968l11.167969-5.304687c3.871093 3.152343 7.40625 6.679687 10.550781 10.550781l-5.304688 11.167969c-1.085937 2.28125-1.023437 4.953125.167969 7.183593 1.753906 3.28125 3.167969 6.703126 4.226562 10.167969.757813 2.488281 2.671876 4.449219 5.132813 5.257813l11.921875 3.949218v15.171876l-11.910156 3.941406c-2.464844.816406-4.386719 2.777344-5.136719 5.257812-1.058594 3.460938-2.480469 6.878906-4.226563 10.167969-1.183593 2.230469-1.246093 4.902344-.167968 7.183594l5.304687 11.167969c-3.152343 3.871093-6.679687 7.40625-10.550781 10.550781l-11.167969-5.304688c-2.28125-1.09375-4.953125-1.03125-7.183593.167969-3.28125 1.753906-6.703126 3.167969-10.167969 4.226562-2.488281.757813-4.449219 2.671876-5.257813 5.132813l-3.949218 11.921875h-15.171876l-3.941406-11.910156c-.730468-2.203125-2.382812-3.984375-4.519531-4.875l-11.59375-4.816406c-2.09375-.863282-4.449219-.796876-6.496094.167968l-11.167969 5.304688c-3.871093-3.152344-7.40625-6.679688-10.550781-10.550782l5.304688-11.167968c.964843-2.046875 1.03125-4.410156.167969-6.496094l-4.816407-11.585938c-.890625-2.140624-2.671875-3.796874-4.871093-4.519531l-11.929688-3.964843zm0 0"/><path d="m392 352c-22.054688 0-40 17.945312-40 40s17.945312 40 40 40 40-17.945312 40-40-17.945312-40-40-40zm0 64c-13.230469 0-24-10.769531-24-24s10.769531-24 24-24 24 10.769531 24 24-10.769531 24-24 24zm0 0"/><path d="m474.511719 371.039062-13.925781-4.605468-2.050782-4.921875 5.863282-12.351563c1.242187-2.617187.976562-5.703125-.710938-8.070312-5.742188-8.074219-12.734375-15.066406-20.792969-20.792969-2.359375-1.671875-5.460937-1.9375-8.0625-.703125l-12.351562 5.863281-4.921875-2.050781-4.605469-13.925781c-1.082031-3.273438-4.128906-5.480469-7.585937-5.480469h-26.726563c-3.449219 0-6.503906 2.207031-7.59375 5.488281l-4.613281 13.925781-4.921875 2.050782-12.351563-5.863282c-2.59375-1.234374-5.695312-.976562-8.070312.710938-8.058594 5.734375-15.050782 12.726562-20.785156 20.785156-1.6875 2.367188-1.953126 5.453125-.710938 8.070313l5.863281 12.351562-2.050781 4.921875-13.925781 4.605469c-3.273438 1.082031-5.480469 4.128906-5.480469 7.585937v26.734376c0 3.457031 2.207031 6.503906 5.488281 7.59375l13.617188 4.503906c.664062 1.792968 1.40625 3.566406 2.214843 5.320312l-5.726562 12.054688c-1.242188 2.617187-.976562 5.703125.710938 8.070312 5.734374 8.058594 12.726562 15.050782 20.785156 20.785156 2.375 1.6875 5.46875 1.945313 8.070312.710938l12.054688-5.726562c1.753906.816406 3.527344 1.550781 5.320312 2.214843l4.511719 13.617188c1.089844 3.28125 4.144531 5.488281 7.59375 5.488281h26.726563c3.457031 0 6.503906-2.207031 7.59375-5.488281l4.503906-13.617188c1.792968-.664062 3.566406-1.40625 5.320312-2.214843l12.054688 5.726562c2.609375 1.242188 5.695312.984375 8.070312-.710938 8.058594-5.734374 15.050782-12.726562 20.785156-20.785156 1.6875-2.367187 1.953126-5.453125.710938-8.070312l-5.726562-12.054688c.816406-1.753906 1.550781-3.527344 2.214843-5.320312l13.617188-4.503906c3.28125-1.089844 5.488281-4.136719 5.488281-7.59375v-26.734376c0-3.457031-2.207031-6.503906-5.488281-7.59375zm-10.511719 28.546876-11.910156 3.941406c-2.464844.816406-4.378906 2.777344-5.136719 5.257812-1.058594 3.460938-2.480469 6.878906-4.226563 10.167969-1.183593 2.230469-1.246093 4.902344-.167968 7.183594l5.304687 11.167969c-3.152343 3.871093-6.679687 7.40625-10.550781 10.550781l-11.167969-5.304688c-2.28125-1.09375-4.953125-1.03125-7.183593.167969-3.28125 1.753906-6.703126 3.167969-10.167969 4.226562-2.488281.757813-4.449219 2.671876-5.257813 5.132813l-3.949218 11.921875h-15.171876l-3.941406-11.910156c-.816406-2.464844-2.777344-4.386719-5.257812-5.136719-3.460938-1.058594-6.878906-2.480469-10.167969-4.226563-2.230469-1.191406-4.902344-1.253906-7.183594-.167968l-11.167969 5.304687c-3.871093-3.152343-7.40625-6.679687-10.550781-10.550781l5.304688-11.167969c1.085937-2.28125 1.023437-4.953125-.167969-7.183593-1.753906-3.28125-3.167969-6.703126-4.226562-10.167969-.757813-2.488281-2.671876-4.449219-5.132813-5.257813l-11.921875-3.949218v-15.171876l11.910156-3.941406c2.203125-.730468 3.984375-2.382812 4.875-4.519531l4.816406-11.585937c.863282-2.09375.804688-4.457032-.167968-6.496094l-5.304688-11.167969c3.152344-3.871094 6.679688-7.40625 10.550782-10.550781l11.167968 5.304687c2.054688.976563 4.417969 1.039063 6.496094.167969l11.585938-4.816406c2.140624-.886719 3.796874-2.671875 4.519531-4.871094l3.964843-11.9375h15.171876l3.941406 11.910156c.730468 2.203125 2.382812 3.984375 4.519531 4.875l11.585937 4.816406c2.101563.871094 4.457032.8125 6.496094-.167968l11.167969-5.304688c3.871094 3.144532 7.40625 6.671875 10.550781 10.550782l-5.304687 11.167968c-.96875 2.046875-1.03125 4.410156-.167969 6.496094l4.816406 11.585938c.886719 2.140624 2.671875 3.796874 4.871094 4.519531l11.9375 3.964843zm0 0"/><path d="m88 128c22.054688 0 40-17.945312 40-40s-17.945312-40-40-40-40 17.945312-40 40 17.945312 40 40 40zm0-64c13.230469 0 24 10.769531 24 24s-10.769531 24-24 24-24-10.769531-24-24 10.769531-24 24-24zm0 0"/><path d="m5.488281 108.960938 13.617188 4.503906c.664062 1.792968 1.40625 3.566406 2.214843 5.320312l-5.726562 12.054688c-1.242188 2.617187-.976562 5.703125.710938 8.070312 5.734374 8.058594 12.726562 15.050782 20.785156 20.785156 2.375 1.6875 5.46875 1.945313 8.070312.710938l12.054688-5.726562c1.753906.816406 3.527344 1.550781 5.320312 2.214843l4.511719 13.617188c1.089844 3.28125 4.144531 5.488281 7.59375 5.488281h26.726563c3.457031 0 6.503906-2.207031 7.59375-5.488281l4.503906-13.617188c1.792968-.664062 3.566406-1.40625 5.320312-2.214843l12.054688 5.726562c2.609375 1.242188 5.703125.976562 8.070312-.710938 8.058594-5.734374 15.050782-12.726562 20.785156-20.785156 1.6875-2.367187 1.953126-5.453125.710938-8.070312l-5.726562-12.054688c.816406-1.753906 1.550781-3.527344 2.214843-5.320312l13.617188-4.503906c3.28125-1.089844 5.488281-4.136719 5.488281-7.59375v-26.734376c0-3.457031-2.207031-6.503906-5.488281-7.59375l-13.925781-4.605468-2.050782-4.921875 5.863282-12.351563c1.242187-2.617187.976562-5.703125-.710938-8.070312-5.742188-8.074219-12.734375-15.066406-20.792969-20.792969-2.359375-1.679687-5.460937-1.9375-8.0625-.703125l-12.351562 5.863281-4.921875-2.050781-4.597656-13.917969c-1.089844-3.28125-4.136719-5.488281-7.59375-5.488281h-26.726563c-3.449219 0-6.503906 2.207031-7.59375 5.488281l-4.613281 13.925781-4.929688 2.050782-12.34375-5.871094c-2.601562-1.234375-5.6875-.976562-8.070312.710938-8.058594 5.734374-15.050782 12.726562-20.785156 20.785156-1.6875 2.367187-1.953126 5.445312-.710938 8.070312l5.863281 12.351563-2.042969 4.921875-13.925781 4.605468c-3.28125 1.089844-5.488281 4.136719-5.488281 7.59375v26.734376c0 3.457031 2.207031 6.503906 5.488281 7.59375zm10.511719-28.546876 11.910156-3.941406c2.203125-.730468 3.984375-2.382812 4.875-4.519531l4.816406-11.59375c.871094-2.09375.804688-4.457031-.160156-6.503906l-5.304687-11.167969c3.144531-3.871094 6.679687-7.40625 10.550781-10.550781l11.167969 5.304687c2.054687.972656 4.410156 1.03125 6.503906.160156l11.585937-4.816406c2.144532-.890625 3.796876-2.671875 4.519532-4.875l3.949218-11.910156h15.171876l3.941406 11.910156c.730468 2.203125 2.382812 3.984375 4.519531 4.875l11.59375 4.816406c2.101563.863282 4.457031.8125 6.496094-.167968l11.167969-5.304688c3.871093 3.144532 7.40625 6.671875 10.550781 10.550782l-5.296875 11.175781c-.964844 2.046875-1.03125 4.410156-.167969 6.496093l4.816406 11.585938c.890625 2.140625 2.671875 3.796875 4.871094 4.519531l11.921875 3.957031v15.171876l-11.910156 3.941406c-2.464844.816406-4.378906 2.777344-5.136719 5.257812-1.058594 3.460938-2.480469 6.878906-4.226563 10.167969-1.183593 2.230469-1.246093 4.902344-.167968 7.183594l5.304687 11.167969c-3.152343 3.871093-6.679687 7.40625-10.550781 10.550781l-11.167969-5.304688c-2.28125-1.085937-4.953125-1.03125-7.183593.167969-3.28125 1.753906-6.703126 3.167969-10.167969 4.226562-2.488281.757813-4.449219 2.671876-5.257813 5.132813l-3.949218 11.921875h-15.171876l-3.941406-11.910156c-.816406-2.464844-2.777344-4.386719-5.257812-5.136719-3.460938-1.058594-6.878906-2.480469-10.167969-4.226563-2.238281-1.191406-4.902344-1.246093-7.183594-.167968l-11.167969 5.304687c-3.871093-3.152343-7.40625-6.679687-10.550781-10.550781l5.304688-11.167969c1.085937-2.28125 1.023437-4.953125-.167969-7.183593-1.753906-3.28125-3.167969-6.703126-4.226562-10.167969-.757813-2.488281-2.671876-4.449219-5.132813-5.257813l-11.921875-3.949218zm0 0"/><path d="m200 88h16v16h-16zm0 0"/><path d="m232 88h16v16h-16zm0 0"/><path d="m264 88h16v16h-16zm0 0"/><path d="m200 384h16v16h-16zm0 0"/><path d="m232 384h16v16h-16zm0 0"/><path d="m264 384h16v16h-16zm0 0"/><path d="m392 200h16v16h-16zm0 0"/><path d="m392 232h16v16h-16zm0 0"/><path d="m392 264h16v16h-16zm0 0"/><path d="m72 200h16v16h-16zm0 0"/><path d="m72 232h16v16h-16zm0 0"/><path d="m72 264h16v16h-16zm0 0"/><path d="m280 224h-24.574219l-7.753906-26.265625c-1-3.398437-4.128906-5.734375-7.671875-5.734375s-6.671875 2.335938-7.671875 5.734375l-7.753906 26.265625h-24.574219c-3.488281 0-6.566406 2.257812-7.625 5.574219-1.054688 3.328125.167969 6.945312 3.015625 8.960937l19.96875 14.097656-7.71875 25.007813c-1.03125 3.320313.207031 6.925781 3.0625 8.917969 2.839844 1.984375 6.65625 1.914062 9.441406-.199219l19.855469-15.175781 19.855469 15.167968c1.441406 1.105469 3.152343 1.648438 4.863281 1.648438 1.601562 0 3.203125-.480469 4.578125-1.441406 2.847656-1.992188 4.09375-5.597656 3.0625-8.917969l-7.71875-25.007813 19.96875-14.097656c2.847656-2.015625 4.070313-5.632812 3.015625-8.960937-1.058594-3.316407-4.136719-5.574219-7.625-5.574219zm-29.328125 18.902344c-2.832031 2-4.054687 5.59375-3.03125 8.898437l2.046875 6.648438-4.832031-3.695313c-1.441407-1.097656-3.152344-1.640625-4.855469-1.640625s-3.425781.542969-4.855469 1.640625l-4.832031 3.695313 2.046875-6.648438c1.023437-3.304687-.191406-6.898437-3.03125-8.898437l-4.121094-2.902344h5.34375c3.546875 0 6.671875-2.335938 7.671875-5.734375l1.777344-6.007813 1.777344 6.007813c1 3.398437 4.117187 5.734375 7.671875 5.734375h5.34375zm0 0"/><path d="m328 240c0-48.519531-39.480469-88-88-88s-88 39.480469-88 88 39.480469 88 88 88 88-39.480469 88-88zm-88 72c-39.703125 0-72-32.296875-72-72s32.296875-72 72-72 72 32.296875 72 72-32.296875 72-72 72zm0 0"/><path d="m352 232h16v16h-16zm0 0"/><path d="m104 232h16v16h-16zm0 0"/><path d="m232 120h16v16h-16zm0 0"/><path d="m232 352h16v16h-16zm0 0"/></svg>