<?xml version="1.0" encoding="iso-8859-1"?>
<!-- Generator: Adobe Illustrator 19.0.0, SVG Export Plug-In . SVG Version: 6.00 Build 0)  -->
<svg version="1.1" id="Layer_1" xmlns="http://www.w3.org/2000/svg" xmlns:xlink="http://www.w3.org/1999/xlink" x="0px" y="0px"
	 viewBox="0 0 512 512" style="enable-background:new 0 0 512 512;" xml:space="preserve">
<g>
	<g>
		<g>
			<path d="M348.902,256c0-51.305-41.595-92.905-92.902-92.905s-92.902,41.6-92.902,92.905c0,51.313,41.595,92.902,92.902,92.902
				S348.902,307.313,348.902,256z M179.614,256c0-42.122,34.266-76.388,76.385-76.388c42.122,0,76.388,34.266,76.388,76.388
				c0,22.065-9.413,41.962-24.422,55.92c-1.747-4.464-4.408-8.566-7.908-12.064c-6.679-6.635-15.514-10.291-24.86-10.291h-38.397
				c-9.4,0-18.237,3.661-24.858,10.304c-3.495,3.491-6.158,7.59-7.906,12.052C189.027,297.963,179.614,278.065,179.614,256z
				 M218.302,322.397c0.511-4.087,2.341-7.875,5.319-10.85c3.515-3.523,8.197-5.466,13.179-5.466h38.397
				c4.959,0,9.654,1.948,13.199,5.473c2.967,2.964,4.792,6.754,5.301,10.843c-11.132,6.345-23.993,9.99-37.698,9.99
				C242.295,332.388,229.433,328.742,218.302,322.397z"/>
			<path d="M256.002,277.248c20.001,0,36.275-16.282,36.273-36.288c0-20.006-16.271-36.285-36.273-36.285
				c-20.009,0-36.285,16.279-36.285,36.285C219.717,260.969,235.993,277.248,256.002,277.248z M256.002,221.189
				c10.895,0,19.758,8.868,19.755,19.771c0,10.906-8.863,19.771-19.755,19.771c-10.901,0-19.771-8.868-19.771-19.771
				C236.231,230.057,245.101,221.189,256.002,221.189z"/>
			<path d="M468.413,209.971l-16.143,3.484c1.195,5.563,2.168,11.241,2.885,16.883l16.389-2.086
				C470.766,222.149,469.711,216,468.413,209.971z"/>
			<path d="M473.29,255.982c-0.003-3.105-0.067-6.195-0.197-9.27l-16.499,0.701c0.12,2.844,0.177,5.706,0.182,8.573
				c0,2.865-0.056,5.719-0.179,8.558l16.502,0.701C473.226,262.18,473.29,259.09,473.29,255.982z"/>
			<path d="M471.544,283.712l-16.387-2.084c-0.719,5.67-1.692,11.356-2.885,16.875l16.143,3.489
				C469.708,296.008,470.76,289.859,471.544,283.712z"/>
			<path d="M339.74,55.455c-5.673-2.373-11.523-4.539-17.39-6.423l-5.059,15.721c5.42,1.741,10.821,3.743,16.061,5.942
				L339.74,55.455z"/>
			<path d="M363.699,86.554l8.86-13.944c-2.593-1.641-5.233-3.241-7.933-4.8c-2.693-1.549-5.399-3.034-8.125-4.46l-7.642,14.638
				c2.527,1.318,5.033,2.703,7.521,4.129C358.858,83.551,361.302,85.025,363.699,86.554z"/>
			<path d="M402.035,95.04c-4.534-4.114-9.336-8.102-14.264-11.85l-9.999,13.148c4.557,3.461,8.988,7.14,13.176,10.939
				L402.035,95.04z"/>
			<path d="M194.672,64.768l-5.053-15.721c-5.827,1.871-11.679,4.035-17.39,6.428l6.385,15.235
				C183.892,68.495,189.291,66.496,194.672,64.768z"/>
			<path d="M155.606,82.13c2.481-1.434,4.982-2.811,7.498-4.122l-7.642-14.646c-2.724,1.426-5.427,2.911-8.123,4.465
				c-2.685,1.556-5.33,3.156-7.926,4.81l8.855,13.937C150.673,85.048,153.123,83.564,155.606,82.13z"/>
			<path d="M134.197,96.358L124.193,83.21c-4.892,3.722-9.687,7.706-14.257,11.843l11.085,12.245
				C125.24,103.475,129.676,99.799,134.197,96.358z"/>
			<path d="M59.732,298.545c-1.201-5.563-2.166-11.249-2.885-16.883l-16.389,2.086c0.781,6.1,1.833,12.25,3.131,18.273
				L59.732,298.545z"/>
			<path d="M38.709,256.021c0.008,3.105,0.069,6.195,0.202,9.262l16.497-0.701c-0.118-2.839-0.179-5.706-0.182-8.573
				c0-2.867,0.059-5.722,0.179-8.561l-16.502-0.701C38.773,249.82,38.709,252.905,38.709,256.021z"/>
			<path d="M59.727,213.491l-16.143-3.484c-1.293,5.985-2.345,12.137-3.126,18.278l16.384,2.086
				C57.566,224.694,58.534,219.018,59.727,213.491z"/>
			<path d="M172.264,456.538c5.67,2.381,11.52,4.539,17.388,6.423l5.059-15.721c-5.42-1.741-10.821-3.748-16.061-5.934
				L172.264,456.538z"/>
			<path d="M148.3,425.441l-8.86,13.942c2.596,1.649,5.233,3.246,7.933,4.805c2.691,1.546,5.399,3.036,8.125,4.457l7.642-14.638
				c-2.524-1.318-5.033-2.693-7.521-4.129C153.139,428.447,150.696,426.97,148.3,425.441z"/>
			<path d="M109.964,416.96c4.534,4.106,9.334,8.095,14.267,11.843l9.999-13.141c-4.557-3.469-8.991-7.148-13.176-10.936
				L109.964,416.96z"/>
			<path d="M377.802,415.634l10.007,13.148c4.895-3.722,9.684-7.708,14.257-11.843l-11.09-12.245
				C386.759,408.522,382.323,412.191,377.802,415.634z"/>
			<path d="M356.395,429.87c-2.481,1.426-4.984,2.808-7.498,4.122l7.639,14.638c2.729-1.418,5.43-2.911,8.131-4.465
				c2.68-1.554,5.325-3.154,7.921-4.803l-8.852-13.942C361.328,426.944,358.878,428.429,356.395,429.87z"/>
			<path d="M317.327,447.224l5.053,15.729c5.827-1.879,11.676-4.042,17.388-6.438l-6.382-15.232
				C328.107,443.497,322.708,445.496,317.327,447.224z"/>
			<rect x="247.731" y="106.954" width="16.515" height="44.042"/>
			<path d="M255.999,93.934c25.899,0,46.968-21.064,46.968-46.966S281.899,0,255.999,0c-25.9,0-46.968,21.064-46.968,46.966
				S230.1,93.934,255.999,93.934z M255.999,16.517c16.791,0,30.454,13.66,30.454,30.451c0,16.794-13.663,30.451-30.454,30.451
				c-16.789,0-30.451-13.658-30.451-30.451C225.548,30.177,239.211,16.517,255.999,16.517z"/>
			<rect x="123.939" y="184.22" transform="matrix(-0.866 -0.5 0.5 -0.866 176.1254 432.1473)" width="44.044" height="16.514"/>
			<path d="M51.491,192.161c7.132,4.119,15.24,6.298,23.442,6.298c16.745,0,32.346-9.001,40.717-23.493
				c12.943-22.426,5.233-51.205-17.19-64.164c-7.142-4.116-15.252-6.298-23.455-6.298c-16.745,0-32.343,9.004-40.707,23.496
				c-6.275,10.865-7.941,23.521-4.695,35.638C32.849,175.757,40.624,185.889,51.491,192.161z M48.601,136.259
				c5.422-9.398,15.542-15.237,26.401-15.237c5.309,0,10.568,1.416,15.199,4.088c14.538,8.397,19.533,27.062,11.144,41.603
				c-5.427,9.398-15.544,15.232-26.411,15.232c-5.307,0-10.557-1.413-15.183-4.083c-7.048-4.073-12.088-10.639-14.193-18.499
				C43.453,151.506,44.533,143.301,48.601,136.259z"/>
			
				<rect x="137.718" y="297.502" transform="matrix(-0.5001 -0.866 0.866 -0.5001 -57.7261 605.726)" width="16.515" height="44.046"/>
			<path d="M115.642,337.034c-8.369-14.492-23.969-23.493-40.712-23.493c-8.202,0-16.31,2.179-23.45,6.298
				C29.058,332.787,21.345,361.569,34.291,384c8.364,14.487,23.964,23.488,40.712,23.488c8.205,0,16.315-2.181,23.45-6.298
				C120.875,388.242,128.586,359.465,115.642,337.034z M90.196,386.885c-4.634,2.675-9.884,4.088-15.194,4.088
				c-10.867,0-20.982-5.837-26.406-15.229c-8.394-14.543-3.395-33.206,11.146-41.603c4.631-2.67,9.882-4.083,15.191-4.083
				c10.859,0,20.979,5.834,26.406,15.232C109.734,359.834,104.734,378.491,90.196,386.885z"/>
			<rect x="247.731" y="361.011" width="16.517" height="44.045"/>
			<path d="M255.992,418.063c-25.9,0-46.968,21.066-46.968,46.968c0,25.902,21.069,46.968,46.966,46.968h0.018
				c12.544,0,24.333-4.885,33.203-13.755c8.868-8.873,13.747-20.669,13.747-33.213C302.957,439.14,281.891,418.071,255.992,418.063z
				 M277.529,486.571c-5.752,5.747-13.391,8.917-21.522,8.917h-0.013c-16.791,0-30.454-13.66-30.454-30.454
				c0-16.794,13.663-30.454,30.449-30.454c16.794,0.008,30.456,13.668,30.454,30.456
				C286.443,473.172,283.279,480.817,277.529,486.571z"/>
			<rect x="343.984" y="311.243" transform="matrix(0.866 0.5 -0.5 0.866 208.7914 -140.2002)" width="44.044" height="16.514"/>
			<path d="M460.5,319.844c-7.137-4.119-15.245-6.3-23.445-6.3c-16.742,0-32.34,9.001-40.717,23.491
				c-12.938,22.436-5.225,51.215,17.195,64.159c7.14,4.127,15.255,6.305,23.455,6.305c0.003,0,0.008,0,0.008,0
				c16.737,0,32.333-9.004,40.701-23.491c6.272-10.867,7.939-23.521,4.69-35.643C479.139,336.243,471.367,326.113,460.5,319.844z
				 M463.393,375.752c-5.425,9.393-15.539,15.232-26.394,15.232h-0.005c-5.309,0-10.563-1.416-15.199-4.091
				c-14.538-8.394-19.535-27.057-11.149-41.597c5.427-9.395,15.549-15.235,26.411-15.235c5.304,0,10.555,1.416,15.188,4.091
				c7.045,4.065,12.088,10.634,14.193,18.488C468.548,360.497,467.466,368.704,463.393,375.752z"/>
			<rect x="357.748" y="170.472" transform="matrix(0.5 0.866 -0.866 0.5 349.7029 -220.7226)" width="16.514" height="44.044"/>
			<path d="M396.349,174.979c8.369,14.487,23.967,23.488,40.709,23.488c8.205,0,16.312-2.181,23.452-6.3
				c10.867-6.275,18.639-16.402,21.885-28.521c3.249-12.117,1.58-24.771-4.695-35.638c-8.358-14.492-23.956-23.496-40.701-23.496
				c-8.207,0-16.32,2.181-23.455,6.308C391.119,123.763,383.405,152.54,396.349,174.979z M421.8,125.123
				c4.634-2.678,9.884-4.093,15.196-4.093c10.86,0,20.977,5.839,26.401,15.235c4.065,7.045,5.146,15.25,3.046,23.107
				c-2.107,7.854-7.148,14.42-14.195,18.488c-4.631,2.675-9.887,4.091-15.194,4.091c-10.859,0-20.977-5.839-26.404-15.229
				C402.26,152.177,407.26,133.517,421.8,125.123z"/>
		</g>
	</g>
</g>
<g>
</g>
<g>
</g>
<g>
</g>
<g>
</g>
<g>
</g>
<g>
</g>
<g>
</g>
<g>
</g>
<g>
</g>
<g>
</g>
<g>
</g>
<g>
</g>
<g>
</g>
<g>
</g>
<g>
</g>
</svg>
