<svg id="Capa_1" enable-background="new 0 0 512 512" height="512" viewBox="0 0 512 512" width="512" xmlns="http://www.w3.org/2000/svg"><g><path d="m171.061 193.722h-158.14c-7.125 0-12.921 5.796-12.921 12.921v61.397c0 4.143 3.358 7.5 7.5 7.5s7.5-3.357 7.5-7.5v-59.318h41.54v56.971c0 3.743 2.078 7.113 5.422 8.795 3.346 1.682 7.29 1.338 10.295-.895l19.733-14.67 19.734 14.67c3.009 2.237 6.951 2.574 10.294.895 3.345-1.682 5.422-5.052 5.422-8.795v-56.971h41.54v130.168h-153.98v-35.85c0-4.143-3.358-7.5-7.5-7.5s-7.5 3.357-7.5 7.5v37.929c0 7.125 5.796 12.921 12.921 12.921h158.14c7.125 0 12.921-5.796 12.921-12.921v-134.326c0-7.125-5.796-12.921-12.921-12.921zm-58.619 61.713-14.579-10.837c-3.512-2.611-8.231-2.609-11.745 0l-14.578 10.837v-46.713h40.902z"/><path d="m300.207 315.828c-49.91 0-90.516 40.605-90.516 90.516s40.605 90.516 90.516 90.516 90.516-40.605 90.516-90.516-40.605-90.516-90.516-90.516zm0 166.033c-41.64 0-75.516-33.877-75.516-75.516s33.876-75.516 75.516-75.516 75.516 33.877 75.516 75.516-33.876 75.516-75.516 75.516z"/><path d="m337.292 369.259c-2.929-2.928-7.678-2.928-10.606 0l-26.478 26.478-26.478-26.478c-2.929-2.928-7.678-2.928-10.606 0-2.929 2.93-2.929 7.678 0 10.607l26.478 26.478-26.478 26.478c-2.929 2.93-2.929 7.678 0 10.607 1.464 1.464 3.384 2.196 5.303 2.196s3.839-.732 5.303-2.196l26.478-26.478 26.478 26.478c1.464 1.464 3.384 2.196 5.303 2.196s3.839-.732 5.303-2.196c2.929-2.93 2.929-7.678 0-10.607l-26.478-26.478 26.478-26.478c2.929-2.929 2.929-7.677 0-10.607z"/><path d="m511.857 283.635c-.724-4.871-4.083-8.844-8.769-10.368l-13.422-4.361c1.403-10.143 2.114-20.5 2.114-30.815 0-16.66-1.845-33.266-5.484-49.354-.914-4.04-4.928-6.576-8.97-5.661-4.04.914-6.574 4.93-5.661 8.97 3.395 15.006 5.115 30.498 5.115 46.046 0 10.198-.744 20.436-2.211 30.432-.912 6.222 2.777 12.151 8.773 14.101l11.089 3.604-62.437 43.51-24.942-71.897 16.364 5.315c3.771 1.225 7.828.662 11.126-1.538 3.312-2.211 5.395-5.76 5.713-9.734.375-4.651.564-9.291.564-13.791 0-39.315-13.177-76.741-37.408-107.091 0 0 10.031.152 10.105.152 8.447 0 14.633-8.002 12.451-16.206l-4.902-18.46c17.068 18.353 30.807 39.715 40.294 62.86 1.574 3.839 5.959 5.664 9.784 4.095 3.832-1.571 5.666-5.951 4.095-9.784-13.382-32.647-34.652-61.974-61.562-84.996l-9.04-34.043c-1.271-4.764-5.061-8.334-9.893-9.318-4.826-.984-9.707.816-12.735 4.695l-8.683 11.115c-31.98-16.994-68.07-25.969-104.497-25.969-38.546 0-76.444 9.984-109.77 28.884l-34.979-3.139c-4.913-.447-9.561 1.895-12.141 6.094-2.58 4.2-2.56 9.404.052 13.583l7.5 12.004c-27.06 24.429-47.876 55.288-60.259 89.357-.835 2.299-.498 4.861.906 6.864 1.404 2.004 3.696 3.197 6.143 3.197h55.422c2.838 0 5.433-1.603 6.705-4.14 6.983-13.933 16.002-26.727 26.832-38.07l9.92 15.876c2.612 4.179 7.278 6.479 12.187 6.001 4.905-.478 9.042-3.636 10.798-8.24l18.942-49.677c19.537-8.378 40.29-12.634 61.742-12.634 21.913 0 43.082 4.425 62.968 13.157l-11.558 14.795c-3.035 3.886-3.601 9.06-1.476 13.504 2.125 4.445 6.508 7.255 11.442 7.333l53.108.805c27.431 29.21 42.506 67.222 42.506 107.396 0 3.256-.109 6.598-.326 9.967l-17.823-5.789c-4.686-1.523-9.743-.288-13.196 3.228-3.452 3.518-4.596 8.597-2.981 13.263l27.239 78.515c1.331 3.845 4.312 6.774 8.179 8.036 1.325.433 2.682.646 4.028.646 2.587 0 5.137-.788 7.349-2.322l68.197-47.524c4.039-2.827 6.097-7.606 5.373-12.479zm-336.218-149.523-9.098-14.56c-2.106-3.371-5.582-5.556-9.536-5.993-3.928-.436-7.776.925-10.549 3.732-11.68 11.825-21.526 25.161-29.311 39.693h-39.852c12.014-28.299 30.364-53.857 53.51-74.412 4.708-4.179 5.697-11.097 2.352-16.45l-6.198-9.919 75.796 6.802zm171.995-43.721c-.941-3.859-3.557-7.026-7.175-8.687-22.557-10.354-46.657-15.604-71.629-15.604-18.775 0-37.065 2.979-54.582 8.857l3.51-9.206c3.047-7.992-2.372-16.671-10.896-17.438l-19.158-1.719c25.522-10.811 53.139-16.455 81.127-16.455 34.546 0 68.761 8.649 98.939 25.01 5.536 3.009 12.382 1.58 16.282-3.402l7.176-9.186 19.532 73.549-76.095-1.153 10.613-13.587c2.435-3.129 3.295-7.13 2.356-10.979z"/></g></svg>