<svg id="Capa_1" enable-background="new 0 0 511.884 511.884" height="512" viewBox="0 0 511.884 511.884" width="512" xmlns="http://www.w3.org/2000/svg"><g><g><path d="m492.597 354.04c-5.386-8.946-13.933-15.251-24.066-17.755-10.117-2.5-20.599-.908-29.514 4.483-2.566 1.545-4.907 3.358-7.011 5.387l-29.588-17.809v-149.42l29.59-17.831c2.103 2.027 4.442 3.839 7.006 5.383 6.163 3.727 13.072 5.638 20.093 5.638 3.138 0 6.299-.382 9.424-1.154 10.133-2.504 18.68-8.81 24.053-17.734 5.4-8.92 6.996-19.409 4.494-29.534-2.504-10.134-8.81-18.681-17.734-24.054-8.92-5.4-19.408-6.997-29.533-4.494-10.134 2.504-18.681 8.81-24.054 17.735-5.399 8.92-6.996 19.408-4.494 29.533.129.522.274 1.037.423 1.55l-29.269 17.638-126.481-76.207v-51.276l17.283 17.283c1.953 1.953 4.512 2.929 7.071 2.929s5.119-.977 7.071-2.929c3.905-3.905 3.906-10.237 0-14.142l-34.353-34.354c-3.656-3.656-10.568-4.087-14.145 0l-34.378 34.352c-3.907 3.904-3.909 10.235-.005 14.142s10.235 3.909 14.142.005l17.314-17.3v51.291l-126.481 76.206-29.298-17.654c2.935-10.104 1.818-21.353-4.03-31.046-5.381-8.939-13.922-15.243-24.049-17.75-10.132-2.509-20.633-.916-29.565 4.481-18.429 11.119-24.378 35.155-13.258 53.587 5.397 8.935 13.941 15.234 24.057 17.738 3.129.775 6.294 1.158 9.438 1.158 7.024 0 13.941-1.912 20.113-5.64 2.581-1.557 4.908-3.376 6.987-5.389l29.605 17.84v29.783c0 5.523 4.477 10 10 10s10-4.477 10-10v-17.736l116.481 70.157v77.544 59.829l-116.481-70.157v-29.81c0-5.523-4.477-10-10-10s-10 4.477-10 10v29.807l-29.602 17.818c-2.08-2.015-4.408-3.834-6.99-5.392-8.935-5.396-19.429-6.99-29.551-4.482-10.116 2.504-18.659 8.804-24.06 17.744-11.117 18.426-5.168 42.463 13.256 53.579 6.174 3.73 13.094 5.644 20.123 5.644 3.146 0 6.316-.384 9.449-1.159 10.126-2.507 18.667-8.812 24.043-17.743 5.85-9.697 6.969-20.945 4.035-31.049l29.295-17.633 126.483 76.181v55.981l-17.311-17.312c-3.904-3.905-10.237-3.905-14.142 0s-3.906 10.237 0 14.142l34.381 34.383c4.157 4.156 9.902 3.394 14.147-.002l34.354-34.384c3.903-3.907 3.901-10.238-.006-14.142-3.906-3.903-10.239-3.901-14.142.006l-17.28 17.295v-55.967l126.484-76.181 29.266 17.616c-.148.512-.294 1.025-.422 1.545-2.502 10.125-.906 20.614 4.481 29.513 5.386 8.946 13.933 15.251 24.066 17.755 3.127.773 6.288 1.155 9.428 1.155 7.024 0 13.935-1.913 20.085-5.636 8.945-5.386 15.251-13.933 17.755-24.066 2.5-10.126.904-20.614-4.483-29.513zm-423.604 29.99c-2.623 4.357-6.786 7.43-11.721 8.652-4.94 1.225-10.061.447-14.427-2.192-8.987-5.422-11.888-17.142-6.471-26.121 2.638-4.367 6.809-7.444 11.743-8.666 1.524-.377 3.064-.563 4.595-.563 3.425 0 6.8.934 9.813 2.753.001.001.003.002.005.003 8.987 5.421 11.888 17.141 6.463 26.134zm373.887-260.813c2.625-4.361 6.791-7.435 11.729-8.655 1.521-.376 3.058-.562 4.584-.562 3.424 0 6.797.935 9.815 2.762 4.36 2.625 7.434 6.791 8.654 11.729 1.218 4.93.442 10.036-2.2 14.399-2.625 4.361-6.791 7.435-11.729 8.655-4.932 1.22-10.037.441-14.378-2.187-.007-.004-.014-.008-.021-.012-4.361-2.625-7.434-6.792-8.655-11.73-1.217-4.93-.441-10.037 2.201-14.399zm-186.944 60.06c5.523 0 10-4.477 10-10v-64.531l107.102 64.53-117.102 70.531-117.102-70.531 107.102-64.53v64.531c0 5.523 4.477 10 10 10zm-193.406-33.926c-.001.001-.003.001-.005.002-4.358 2.634-9.475 3.413-14.408 2.19-4.935-1.222-9.106-4.299-11.741-8.661-2.623-4.348-3.394-9.461-2.172-14.399 1.223-4.938 4.291-9.103 8.645-11.73 3.013-1.82 6.389-2.754 9.817-2.754 1.534 0 3.078.187 4.604.565 4.935 1.222 9.098 4.294 11.726 8.66 5.422 8.985 2.521 20.705-6.466 26.127zm319.888 178.996-116.482 70.157v-59.829-77.544l116.482-70.157zm95.245 50.408c-1.221 4.939-4.294 9.104-8.676 11.743-4.341 2.629-9.448 3.408-14.378 2.187-4.938-1.22-9.104-4.294-11.742-8.675-2.628-4.343-3.405-9.449-2.187-14.379 1.221-4.938 4.294-9.104 8.655-11.729.007-.004.014-.008.021-.012 3.002-1.817 6.369-2.75 9.79-2.75 1.528 0 3.067.186 4.589.562 4.938 1.22 9.104 4.294 11.742 8.676 2.627 4.34 3.403 9.447 2.186 14.377z"/><path d="m119.455 263.652c5.523 0 10-4.491 10-10.014s-4.477-10-10-10-10 4.477-10 10v.028c0 5.523 4.477 9.986 10 9.986z"/></g></g></svg>