<svg viewBox="0 -66 512 512" xmlns="http://www.w3.org/2000/svg"><path d="m432 300c-11.050781 0-20 8.949219-20 20s8.949219 20 20 20 20-8.949219 20-20-8.949219-20-20-20zm0 0"/><path d="m422 220c-5.519531 0-10 4.480469-10 10s4.480469 10 10 10 10-4.480469 10-10-4.480469-10-10-10zm0 0"/><path d="m126 300c-11.050781 0-20 8.949219-20 20s8.949219 20 20 20 20-8.949219 20-20-8.949219-20-20-20zm0 0"/><path d="m469.96875 180.640625-17.242188-68.96875c6.128907-5.863281 9.273438-13.640625 9.273438-21.671875 0-16.542969-13.457031-30-30-30h-80v-30c0-16.542969-13.457031-30-30-30h-292c-16.542969 0-30 13.457031-30 30v260c0 16.542969 13.457031 30 30 30h36c0 33.085938 26.914062 60 60 60s60-26.914062 60-60h186c0 33.085938 26.914062 60 60 60s60-26.914062 60-60c0-.570312-.027344-1.136719-.042969-1.707031 11.660157-4.113281 20.042969-15.242188 20.042969-28.292969v-60c0-24.859375-18.234375-45.53125-42.03125-49.359375zm-35.777344-60.640625 15 60h-83.050781l22.929687-22.929688c3.90625-3.90625 3.90625-10.234374 0-14.140624s-10.234374-3.90625-14.140624 0l-22.929688 22.925781v-45.855469zm7.808594-30c0 5.519531-4.480469 10-10 10h-80v-20h80c5.515625 0 10 4.484375 10 10zm-316 270c-22.054688 0-40-17.945312-40-40 0-22.355469 18.269531-40 40-40 21.78125 0 40 17.691406 40 40 0 22.054688-17.945312 40-40 40zm56.566406-60c-8.351562-23.597656-30.957031-40-56.566406-40-25.621094 0-48.234375 16.414062-56.570312 40h-39.429688c-5.515625 0-10-4.484375-10-10v-260c0-5.515625 4.484375-10 10-10h292c5.515625 0 10 4.484375 10 10v270zm249.433594 60c-22.054688 0-40-17.945312-40-40 0-22.355469 18.269531-40 40-40 21.78125 0 40 17.691406 40 40 0 22.054688-17.945312 40-40 40zm55.855469-61.910156c-8.871094-22.570313-30.941407-38.089844-55.855469-38.089844-25.621094 0-48.234375 16.414062-56.570312 40h-23.429688v-100h110c13.035156 0 24.152344 8.359375 28.28125 20h-28.28125c-5.523438 0-10 4.476562-10 10s4.476562 10 10 10h30v50c0 3.324219-1.640625 6.269531-4.144531 8.089844zm0 0"/><path d="m176 60c-49.625 0-90 40.375-90 90s40.375 90 90 90 90-40.375 90-90-40.375-90-90-90zm0 160c-38.597656 0-70-31.402344-70-70s31.402344-70 70-70 70 31.402344 70 70-31.402344 70-70 70zm0 0"/><path d="m216 140h-30v-30c0-5.523438-4.476562-10-10-10s-10 4.476562-10 10v40c0 5.523438 4.476562 10 10 10h40c5.523438 0 10-4.476562 10-10s-4.476562-10-10-10zm0 0"/></svg>