<?xml version="1.0" encoding="iso-8859-1"?>
<!-- Generator: Adobe Illustrator 19.0.0, SVG Export Plug-In . SVG Version: 6.00 Build 0)  -->
<svg version="1.1" id="Layer_1" xmlns="http://www.w3.org/2000/svg" xmlns:xlink="http://www.w3.org/1999/xlink" x="0px" y="0px"
	 viewBox="0 0 512 512" style="enable-background:new 0 0 512 512;" xml:space="preserve">
<g>
	<g>
		<g>
			<path d="M150.861,241.101c1.323-4.523-1.271-9.259-5.794-10.59c-4.514-1.34-9.259,1.271-10.59,5.786
				c-6.34,21.649-26.556,36.77-49.143,36.77c-28.237,0-51.2-22.963-51.2-51.2c0-24.312,17.271-45.414,41.062-50.185
				c2.833-0.572,5.171-2.517,6.246-5.188c1.075-2.671,0.734-5.7-0.922-8.064c-8.013-11.503-12.254-24.977-12.254-38.963
				c0-37.641,30.626-68.267,68.267-68.267c22.793,0,43.989,11.307,56.721,30.251c2.62,3.9,7.919,4.949,11.836,2.321
				c3.908-2.628,4.949-7.927,2.33-11.836c-15.906-23.672-42.402-37.803-70.886-37.803c-47.053,0-85.333,38.281-85.333,85.333
				c0,13.602,3.208,26.82,9.353,38.784c-25.771,10.052-43.486,35.191-43.486,63.616c0,37.641,30.626,68.267,68.267,68.267
				C115.447,290.133,142.404,269.969,150.861,241.101z"/>
			<path d="M203.401,307.319c-4.651,0.768-7.791,5.171-7.014,9.813c0.077,0.512,8.414,51.26,8.414,109.534
				c0,33.323-11.136,48.512-19.285,55.159c-7.305-20.284-31.181-29.56-48.981-29.56c-15.42,0-29.995,7.151-39.646,19.081
				c-3.669-1.331-7.569-2.014-11.554-2.014c-18.825,0-34.133,15.309-34.133,34.133c0,4.71,3.814,8.533,8.533,8.533
				s8.533-3.823,8.533-8.533c0-9.412,7.654-17.067,17.067-17.067c3.43,0,6.741,1.015,9.566,2.935
				c1.963,1.331,4.403,1.801,6.699,1.263c2.321-0.529,4.309-1.997,5.495-4.045c6.212-10.786,17.22-17.22,29.44-17.22
				c10.692,0,34.133,6.443,34.133,25.6c0,2.628,1.212,5.111,3.285,6.724c2.074,1.621,4.77,2.185,7.313,1.553
				c1.655-0.418,40.602-10.906,40.602-76.544c0-59.75-8.303-110.217-8.653-112.341C212.446,309.683,208.051,306.56,203.401,307.319z
				"/>
			<path d="M197.222,35.703c17.34-12.194,37.666-18.637,58.778-18.637s41.438,6.443,58.778,18.637
				c1.485,1.05,3.209,1.553,4.898,1.553c2.68,0,5.325-1.263,6.989-3.627c2.714-3.857,1.784-9.182-2.074-11.887
				C304.367,7.518,280.644,0,256,0s-48.367,7.518-68.591,21.743c-3.857,2.705-4.787,8.03-2.074,11.887
				C188.058,37.478,193.365,38.417,197.222,35.703z"/>
			<path d="M248.414,243.558c-11.776,22.886-35.029,37.094-60.681,37.094c-10.667,0-20.881-2.415-30.362-7.168
				c-4.207-2.108-9.335-0.41-11.443,3.806c-2.116,4.216-0.418,9.336,3.797,11.452c11.878,5.956,24.653,8.977,38.008,8.977
				c27.23,0,52.309-12.817,68.267-34.193c15.957,21.376,41.037,34.193,68.267,34.193c13.329,0,26.103-3.012,37.956-8.951
				c4.207-2.108,5.922-7.236,3.806-11.443c-2.116-4.215-7.211-5.939-11.452-3.814c-9.463,4.736-19.661,7.142-30.31,7.142
				c-25.651,0-48.905-14.208-60.681-37.094C260.668,237.884,251.332,237.884,248.414,243.558z"/>
			<path d="M451.447,158.251c6.144-11.964,9.353-25.182,9.353-38.784c0-47.053-38.281-85.333-85.333-85.333
				c-28.655,0-55.253,14.268-71.134,38.17c-2.611,3.925-1.545,9.225,2.381,11.827c3.942,2.603,9.233,1.545,11.836-2.381
				c12.706-19.132,33.98-30.549,56.917-30.549c37.641,0,68.267,30.626,68.267,68.267c0,13.986-4.241,27.46-12.262,38.963
				c-1.647,2.364-1.988,5.393-0.913,8.064c1.075,2.671,3.413,4.617,6.246,5.188c23.791,4.77,41.062,25.873,41.062,50.185
				c0,28.237-22.963,51.2-51.2,51.2c-22.699,0-42.394-14.575-48.99-36.275c-1.374-4.506-6.127-7.066-10.65-5.675
				c-4.514,1.365-7.049,6.135-5.683,10.641c8.806,28.937,35.055,48.375,65.323,48.375c37.641,0,68.267-30.626,68.267-68.267
				C494.933,193.442,477.218,168.303,451.447,158.251z"/>
			<path d="M256,290.133c-4.719,0-8.533,3.823-8.533,8.533V486.4c0,4.71,3.814,8.533,8.533,8.533c4.719,0,8.533-3.823,8.533-8.533
				V298.667C264.533,293.956,260.719,290.133,256,290.133z"/>
			<path d="M426.667,469.333c-3.985,0-7.885,0.683-11.563,2.014c-9.643-11.93-24.218-19.081-39.637-19.081
				c-17.809,0-41.711,9.284-48.998,29.602c-8.141-6.613-19.268-21.769-19.268-55.202c0-58.274,8.337-109.022,8.414-109.534
				c0.776-4.642-2.364-9.045-7.014-9.813c-4.659-0.768-9.045,2.364-9.813,7.006c-0.35,2.125-8.653,52.591-8.653,112.341
				c0,65.638,38.938,76.126,40.602,76.544c2.551,0.64,5.248,0.077,7.313-1.553c2.074-1.613,3.285-4.096,3.285-6.724
				c0-19.157,23.441-25.6,34.133-25.6c12.22,0,23.228,6.434,29.44,17.22c1.186,2.048,3.174,3.516,5.495,4.045
				c2.304,0.538,4.736,0.068,6.699-1.263c2.825-1.92,6.135-2.935,9.566-2.935c9.412,0,17.067,7.654,17.067,17.067
				c0,4.71,3.814,8.533,8.533,8.533s8.533-3.823,8.533-8.533C460.8,484.642,445.491,469.333,426.667,469.333z"/>
		</g>
	</g>
</g>
<g>
</g>
<g>
</g>
<g>
</g>
<g>
</g>
<g>
</g>
<g>
</g>
<g>
</g>
<g>
</g>
<g>
</g>
<g>
</g>
<g>
</g>
<g>
</g>
<g>
</g>
<g>
</g>
<g>
</g>
</svg>
