<?xml version="1.0" encoding="utf-8"?>
<!-- Generator: Adobe Illustrator 23.0.3, SVG Export Plug-In . SVG Version: 6.00 Build 0)  -->
<svg version="1.1" id="Layer_1" xmlns="http://www.w3.org/2000/svg" xmlns:xlink="http://www.w3.org/1999/xlink" x="0px" y="0px"
	 viewBox="0 0 75 75" style="enable-background:new 0 0 75 75;" xml:space="preserve">
<style type="text/css">
	.st0{fill:#0C0506;}
</style>
<g>
	<path class="st0" d="M48.8,39.9c0.5-1.5,0.5-3,0.5-5.4v-3c0-2.5,0-3.9-1.5-5.4c-1.5-1-3-1.5-5.4-1.5H27.6v24.7h6.9v-7.4h4.9
		l3.9,7.4h6.4l-4.4-7.4C46.8,41.4,47.8,41.4,48.8,39.9z M43.3,33.5c0,1.5-0.5,3-2,3h-6.9V29h6.4c1.5,0,2.5,1,2.5,2.5V33.5z"/>
	<path class="st0" d="M61.5,37.4c0-13.3-10.8-24.1-24.1-24.1S13.3,24.1,13.3,37.4s10.8,24.1,24.1,24.1S61.5,50.7,61.5,37.4z
		 M37.4,60.7c-12.9,0-23.3-10.5-23.3-23.3s10.5-23.3,23.3-23.3s23.3,10.5,23.3,23.3S50.3,60.7,37.4,60.7z"/>
	<path class="st0" d="M39.9,7.2c14.6,1,26.8,13.2,27.8,27.9c0,0.2,0.2,0.3,0.4,0.3l0,0c0.2,0,0.4-0.2,0.3-0.4
		c-0.9-13.4-11-24.8-23.7-27.8h22.4L63.3,11c-0.1,0.1-0.1,0.4,0,0.5s0.2,0.1,0.3,0.1s0.2,0,0.3-0.1L68.3,7c0.1-0.1,0.1-0.4,0-0.5
		l-4.4-4.4c-0.1-0.1-0.4-0.1-0.5,0c-0.1,0.1-0.1,0.4,0,0.5l3.8,3.8H39.9c-0.2,0-0.4,0.2-0.4,0.4S39.7,7.1,39.9,7.2z"/>
	<path class="st0" d="M6.4,35c0,0.2,0.2,0.4,0.4,0.4l0,0c0.2,0,0.4-0.1,0.4-0.3C8.2,20.4,20.4,8.2,35,7.2c0.2,0,0.4-0.2,0.3-0.4
		c0-0.2-0.2-0.3-0.4-0.3c-13.4,0.9-24.8,11-27.8,23.8V7.7l3.9,3.9c0.1,0.1,0.4,0.1,0.5,0s0.1-0.4,0-0.5L7.1,6.5
		C7,6.5,6.9,6.4,6.8,6.4s-0.2,0-0.3,0.1L2.1,11c-0.1,0.1-0.1,0.4,0,0.5c0.1,0.1,0.2,0.1,0.3,0.1s0.2,0,0.3-0.1l3.8-3.9L6.4,35
		L6.4,35z"/>
	<path class="st0" d="M35,67.6c-14.6-1-26.9-13.2-27.9-27.8c0-0.2-0.2-0.3-0.4-0.3c-0.2,0-0.4,0.2-0.3,0.4
		c0.9,13.3,11,24.7,23.7,27.7H7.7l3.9-3.8c0.1-0.1,0.1-0.4,0-0.5s-0.4-0.1-0.5,0l-4.5,4.4c-0.1,0.1-0.1,0.2-0.1,0.3s0,0.2,0.1,0.3
		l4.5,4.4c0.1,0.1,0.2,0.1,0.3,0.1s0.2,0,0.3-0.1s0.1-0.4,0-0.5l-3.9-3.8H35c0.2,0,0.4-0.2,0.4-0.4S35.2,67.7,35,67.6z"/>
	<path class="st0" d="M72.7,63.3c-0.1-0.1-0.4-0.1-0.5,0l-3.8,3.8V39.9c0-0.2-0.2-0.4-0.4-0.4l0,0c-0.2,0-0.3,0.1-0.4,0.3
		c-1,14.6-13.2,26.8-27.8,27.8c-0.2,0-0.4,0.2-0.3,0.4c0,0.2,0.2,0.3,0.4,0.3l0,0c13.3-0.9,24.7-10.9,27.7-23.7V67l-3.8-3.8
		c-0.1-0.1-0.4-0.1-0.5,0s-0.1,0.4,0,0.5l4.4,4.4c0.1,0.1,0.2,0.1,0.3,0.1s0.2,0,0.3-0.1l4.4-4.4C72.8,63.7,72.8,63.5,72.7,63.3z"/>
</g>
</svg>
