<?xml version="1.0" encoding="iso-8859-1"?>
<!-- Generator: Adobe Illustrator 19.0.0, SVG Export Plug-In . SVG Version: 6.00 Build 0)  -->
<svg version="1.1" id="Capa_1" xmlns="http://www.w3.org/2000/svg" xmlns:xlink="http://www.w3.org/1999/xlink" x="0px" y="0px"
	 viewBox="0 0 480.255 480.255" style="enable-background:new 0 0 480.255 480.255;" xml:space="preserve">
<g>
	<g>
		<path d="M479.231,432.124c-4.418-17.112-21.872-27.402-38.984-22.984c-11.272,2.91-20.074,11.712-22.984,22.984H270.992
			c-2.927-11.195-11.669-19.937-22.864-22.864v-49.136h192c22.08-0.026,39.974-17.92,40-40v-48c-0.035-12.64-6.064-24.513-16.248-32
			c10.184-7.487,16.213-19.36,16.248-32v-48c-0.035-12.64-6.064-24.513-16.248-32c10.184-7.487,16.213-19.36,16.248-32v-48
			c-0.026-22.08-17.92-39.974-40-40h-400c-22.08,0.026-39.974,17.92-40,40v48c0.035,12.64,6.064,24.513,16.248,32
			c-10.184,7.487-16.213,19.36-16.248,32v48c0.035,12.64,6.064,24.513,16.248,32c-10.184,7.487-16.213,19.36-16.248,32v48
			c0.026,22.08,17.92,39.974,40,40h192v49.136c-11.195,2.927-19.937,11.669-22.864,22.864H62.992
			c-4.418-17.112-21.872-27.402-38.984-22.984s-27.402,21.872-22.984,38.984c4.418,17.112,21.872,27.402,38.984,22.984
			c11.272-2.91,20.074-11.712,22.984-22.984h146.272c4.339,17.046,21.674,27.347,38.719,23.009
			c11.304-2.877,20.131-11.704,23.009-23.009h146.272c4.418,17.112,21.872,27.402,38.984,22.984S483.65,449.236,479.231,432.124z
			 M32.128,456.124c-8.837,0-16-7.163-16-16s7.163-16,16-16s16,7.163,16,16S40.964,456.124,32.128,456.124z M16.128,96.124v-48
			c0-13.255,10.745-24,24-24h400c13.255,0,24,10.745,24,24v48c0,13.255-10.745,24-24,24h-400
			C26.873,120.124,16.128,109.379,16.128,96.124z M16.128,208.124v-48c0-13.255,10.745-24,24-24h400c13.255,0,24,10.745,24,24v48
			c0,13.255-10.745,24-24,24h-400C26.873,232.124,16.128,221.379,16.128,208.124z M40.128,344.124c-13.255,0-24-10.745-24-24v-48
			c0-13.255,10.745-24,24-24h400c13.255,0,24,10.745,24,24v48c0,13.255-10.745,24-24,24H40.128z M240.128,456.124
			c-8.837,0-16-7.163-16-16s7.163-16,16-16s16,7.163,16,16S248.964,456.124,240.128,456.124z M448.128,456.124
			c-8.837,0-16-7.163-16-16s7.163-16,16-16s16,7.163,16,16S456.964,456.124,448.128,456.124z"/>
	</g>
</g>
<g>
	<g>
		<path d="M96.128,48.124h-40c-4.418,0-8,3.582-8,8v32c0,4.418,3.582,8,8,8h40c4.418,0,8-3.582,8-8v-32
			C104.128,51.706,100.546,48.124,96.128,48.124z M88.128,80.124h-24v-16h24V80.124z"/>
	</g>
</g>
<g>
	<g>
		<path d="M96.128,160.124h-40c-4.418,0-8,3.582-8,8v32c0,4.418,3.582,8,8,8h40c4.418,0,8-3.582,8-8v-32
			C104.128,163.706,100.546,160.124,96.128,160.124z M88.128,192.124h-24v-16h24V192.124z"/>
	</g>
</g>
<g>
	<g>
		<path d="M96.128,272.124h-40c-4.418,0-8,3.582-8,8v32c0,4.418,3.582,8,8,8h40c4.418,0,8-3.582,8-8v-32
			C104.128,275.706,100.546,272.124,96.128,272.124z M88.128,304.124h-24v-16h24V304.124z"/>
	</g>
</g>
<g>
	<g>
		<path d="M424.128,40.124h-80c-4.418,0-8,3.582-8,8s3.582,8,8,8h80c4.418,0,8-3.582,8-8S428.546,40.124,424.128,40.124z"/>
	</g>
</g>
<g>
	<g>
		<path d="M424.128,72.124h-80c-4.418,0-8,3.582-8,8s3.582,8,8,8h80c4.418,0,8-3.582,8-8S428.546,72.124,424.128,72.124z"/>
	</g>
</g>
<g>
	<g>
		<path d="M424.128,152.124h-80c-4.418,0-8,3.582-8,8s3.582,8,8,8h80c4.418,0,8-3.582,8-8S428.546,152.124,424.128,152.124z"/>
	</g>
</g>
<g>
	<g>
		<path d="M424.128,184.124h-80c-4.418,0-8,3.582-8,8s3.582,8,8,8h80c4.418,0,8-3.582,8-8S428.546,184.124,424.128,184.124z"/>
	</g>
</g>
<g>
	<g>
		<path d="M424.128,264.124h-80c-4.418,0-8,3.582-8,8s3.582,8,8,8h80c4.418,0,8-3.582,8-8S428.546,264.124,424.128,264.124z"/>
	</g>
</g>
<g>
	<g>
		<path d="M424.128,296.124h-80c-4.418,0-8,3.582-8,8s3.582,8,8,8h80c4.418,0,8-3.582,8-8S428.546,296.124,424.128,296.124z"/>
	</g>
</g>
<g>
</g>
<g>
</g>
<g>
</g>
<g>
</g>
<g>
</g>
<g>
</g>
<g>
</g>
<g>
</g>
<g>
</g>
<g>
</g>
<g>
</g>
<g>
</g>
<g>
</g>
<g>
</g>
<g>
</g>
</svg>
