<svg id="Icon" enable-background="new 0 0 100 100" height="512" viewBox="0 0 100 100" width="512" xmlns="http://www.w3.org/2000/svg"><path id="Customize" d="m80 47h-10.461c-1.277-4.053-5.07-7-9.539-7s-8.262 2.947-9.539 7h-30.461v6h30.461c1.277 4.053 5.07 7 9.539 7s8.262-2.947 9.539-7h10.461zm-20 7c-2.206 0-4-1.794-4-4s1.794-4 4-4 4 1.794 4 4-1.794 4-4 4zm20 13h-30.461c-1.277-4.053-5.07-7-9.539-7s-8.262 2.947-9.539 7h-10.461v6h10.461c1.277 4.053 5.07 7 9.539 7s8.262-2.947 9.539-7h30.461zm-40 7c-2.206 0-4-1.794-4-4s1.794-4 4-4 4 1.794 4 4-1.794 4-4 4zm40-47h-30.461c-1.277-4.053-5.07-7-9.539-7s-8.262 2.947-9.539 7h-10.461v6h10.461c1.277 4.053 5.07 7 9.539 7s8.262-2.947 9.539-7h30.461zm-40 7c-2.206 0-4-1.794-4-4s1.794-4 4-4 4 1.794 4 4-1.794 4-4 4z"/></svg>