<svg height="512" viewBox="0 0 64 64" width="512" xmlns="http://www.w3.org/2000/svg"><g id="finger_print" fill="rgb(0,0,0)" data-name="finger print"><path d="m42.4 46a1 1 0 0 0 -1.27.63c-.07.22-.15.44-.24.65a1 1 0 0 0 .53 1.31.91.91 0 0 0 .39.08 1 1 0 0 0 .92-.61c.11-.27.21-.53.3-.79a1 1 0 0 0 -.63-1.27z"/><path d="m45 30a12.92 12.92 0 0 0 -3.91-9.29 1 1 0 1 0 -1.4 1.44 10.86 10.86 0 0 1 3.31 7.85v6.22a29 29 0 0 1 -1 7.61 1 1 0 0 0 .71 1.23h.26a1 1 0 0 0 1-.74 31.3 31.3 0 0 0 1-8.13z"/><path d="m17.43 42.6a1 1 0 0 0 .71-.29l.58-.59a7.76 7.76 0 0 0 2.28-5.5v-6.22a11 11 0 0 1 15.75-9.93 1 1 0 1 0 .86-1.8 13 13 0 0 0 -18.61 11.73v6.22a5.74 5.74 0 0 1 -1.7 4.09l-.58.58a1 1 0 0 0 0 1.42 1 1 0 0 0 .71.29z"/><path d="m41 33a1 1 0 0 0 -2 0v3.22a25.54 25.54 0 0 1 -4 13.78 1 1 0 0 0 .3 1.38 1 1 0 0 0 .54.16 1 1 0 0 0 .84-.46 27.51 27.51 0 0 0 4.32-14.86z"/><path d="m24 34a1 1 0 0 0 1-1v-3a7 7 0 0 1 14-.87 1 1 0 0 0 2-.26 9 9 0 0 0 -18 1.13v3a1 1 0 0 0 1 1z"/><path d="m24 36a1 1 0 0 0 -1.07.93 9.77 9.77 0 0 1 -2.84 6.21l-1.21 1.26a1 1 0 1 0 1.42 1.4l1.25-1.25a11.77 11.77 0 0 0 3.45-7.48 1 1 0 0 0 -1-1.07z"/><path d="m35.71 40a1 1 0 0 0 -1.18.78 21.58 21.58 0 0 1 -4.69 9.55 1 1 0 0 0 1.52 1.3 23.65 23.65 0 0 0 5.13-10.44 1 1 0 0 0 -.78-1.19z"/><path d="m29 30a3 3 0 1 1 6 0v6.22.7a1 1 0 0 0 2 .16c0-.29 0-.57 0-.86v-6.22a5 5 0 0 0 -10 0v6.22a13.65 13.65 0 0 1 -4 9.78 1 1 0 0 0 0 1.42 1 1 0 0 0 1.42 0 15.69 15.69 0 0 0 4.58-11.2z"/><path d="m26.65 47.87c-.27.32-.56.62-.86.92a1 1 0 0 0 0 1.42 1 1 0 0 0 1.42 0c.34-.34.65-.68 1-1a1 1 0 0 0 -1.52-1.3z"/><path d="m30 46.69a19.7 19.7 0 0 0 3-10.47v-6.22a1 1 0 0 0 -2 0v6.22a17.66 17.66 0 0 1 -2.7 9.41 1 1 0 0 0 1.7 1.06z"/><path d="m18.59 21.2a1 1 0 0 0 1.41-.2 15 15 0 0 1 27 9v5a1 1 0 0 0 2 0v-5a17 17 0 0 0 -30.61-10.2 1 1 0 0 0 .2 1.4z"/><path d="m17 30a15.13 15.13 0 0 1 1.15-5.78 1 1 0 0 0 -1.84-.76 16.86 16.86 0 0 0 -1.31 6.54v5a1 1 0 0 0 2 0z"/><path d="m7 19a1 1 0 0 0 1-1v-10h10a1 1 0 0 0 0-2h-11a1 1 0 0 0 -1 1v11a1 1 0 0 0 1 1z"/><path d="m57 6h-11a1 1 0 0 0 0 2h10v10a1 1 0 0 0 2 0v-11a1 1 0 0 0 -1-1z"/><path d="m57 45a1 1 0 0 0 -1 1v10h-10a1 1 0 0 0 0 2h11a1 1 0 0 0 1-1v-11a1 1 0 0 0 -1-1z"/><path d="m18 56h-10v-10a1 1 0 0 0 -2 0v11a1 1 0 0 0 1 1h11a1 1 0 0 0 0-2z"/></g></svg>