<svg id="Layer_1" enable-background="new 0 0 512 512" height="512" viewBox="0 0 512 512" width="512" xmlns="http://www.w3.org/2000/svg"><g><path d="m306.01 322.648c6.337 0 12.264-2.498 16.689-7.034l39.311-40.304c8.972-9.2 8.786-23.984-.415-32.957-9.201-8.971-23.988-8.785-32.96.414l-23.061 23.642-4.04-3.928c-9.214-8.956-24-8.751-32.961.462-8.958 9.213-8.751 23.997.463 32.956l20.726 20.152c4.375 4.254 10.146 6.597 16.248 6.597zm-26.659-49.227c3.184-3.274 8.437-3.342 11.706-.163l9.419 9.159c2.972 2.891 7.724 2.826 10.62-.141l28.3-29.014c3.188-3.269 8.439-3.332 11.705-.148 3.268 3.187 3.333 8.437.148 11.704l-39.311 40.303c-3.038 3.249-8.572 3.318-11.697.156l-20.726-20.152c-3.271-3.182-3.346-8.433-.164-11.704z"/><path d="m247.915 327.763c-2.5-3.313-7.211-3.973-10.527-1.473-3.314 2.5-3.972 7.212-1.473 10.525 2.737 3.627 5.765 7.105 8.997 10.337 18.479 18.477 43.048 28.652 69.181 28.652s50.701-10.175 69.18-28.652c18.48-18.476 28.656-43.042 28.656-69.171 0-26.13-10.177-50.695-28.656-69.171-38.147-38.141-100.214-38.14-138.361 0-26.007 26.003-35.21 63.936-24.017 98.996 1.262 3.954 5.494 6.134 9.445 4.874 3.954-1.262 6.137-5.491 4.874-9.444-9.475-29.678-1.686-61.788 20.328-83.798 32.284-32.281 84.818-32.281 117.102 0 15.64 15.638 24.254 36.429 24.254 58.544s-8.614 42.906-24.254 58.544c-15.639 15.637-36.433 24.25-58.551 24.25-22.117 0-42.912-8.612-58.552-24.25-2.742-2.744-5.308-5.691-7.626-8.763z"/><path d="m501.66 415.271-47.415-47.409c-2.936-2.934-7.694-2.935-10.63 0l-.29.29-18.247-18.244c12.266-18.91 19.574-40.759 21.012-63.562.261-4.142-2.886-7.711-7.028-7.973-4.139-.252-7.711 2.886-7.974 7.027-1.795 28.469-13.906 55.269-34.102 75.462-22.824 22.822-52.797 34.246-82.779 34.275-.038-.001-.075-.006-.114-.006h-.597c-29.82-.15-59.594-11.57-82.296-34.269-22.142-22.138-34.336-51.573-34.336-82.882s12.194-60.744 34.336-82.882c45.707-45.702 120.079-45.702 165.786 0 17.024 17.022 28.258 38.493 32.489 62.094.733 4.085 4.641 6.799 8.724 6.071 4.086-.732 6.804-4.637 6.072-8.723-4.776-26.637-17.451-50.867-36.656-70.07-9.516-9.515-20.136-17.268-31.449-23.271v-60.566c-.006-1.978-.805-3.914-2.201-5.314l-93.13-93.118c-1.401-1.394-3.336-2.196-5.316-2.201h-252.972c-12.432 0-22.547 10.113-22.547 22.544v63.163c0 4.15 3.364 7.515 7.516 7.515 4.151 0 7.516-3.364 7.516-7.515v-63.163c0-4.144 3.371-7.515 7.516-7.515h245.458v70.575c0 12.431 10.115 22.544 22.547 22.544h70.584v46.245c-14.664-5.556-30.124-8.41-45.609-8.577-.074-.01-.146-.025-.223-.025h-167.8c-4.151 0-7.516 3.365-7.516 7.515s3.365 7.515 7.516 7.515h105.226c-10.721 5.606-20.827 12.782-29.979 21.525h-75.247c-4.151 0-7.516 3.365-7.516 7.515s3.365 7.515 7.516 7.515h61.72c-12.268 15.891-20.652 34.193-24.665 53.73h-37.054c-4.151 0-7.516 3.365-7.516 7.515s3.365 7.515 7.516 7.515h34.859c-.346 3.917-.529 7.867-.529 11.846 0 3.264.119 6.51.352 9.733h-34.681c-4.151 0-7.516 3.365-7.516 7.515s3.365 7.515 7.516 7.515h36.64c3.833 20.341 12.379 39.401 25.101 55.87h-61.741c-4.151 0-7.516 3.364-7.516 7.515s3.365 7.515 7.516 7.515h75.275c9.139 8.727 19.229 15.891 29.931 21.49h-105.21c-4.151 0-7.516 3.365-7.516 7.515s3.365 7.515 7.516 7.515h166.59c15.962-.002 31.925-2.869 47.042-8.596v87.891c0 4.143-3.371 7.515-7.516 7.515h-331.072c-4.144 0-7.516-3.371-7.516-7.515v-373.69c0-4.15-3.365-7.515-7.516-7.515s-7.516 3.364-7.516 7.515v373.69c.001 12.427 10.116 22.54 22.548 22.54h331.073c12.432 0 22.547-10.113 22.547-22.544v-94.697c3.354-1.78 6.646-3.716 9.867-5.804l18.243 18.24c-3.157 2.756-3.326 8.008-.291 10.918l47.416 47.41c13.227 13.785 37.031 13.784 50.257 0 13.788-13.226 13.787-37.027.001-50.252zm-211.108-322.152c-4.144 0-7.516-3.371-7.516-7.515v-59.947l67.471 67.462zm107.742 286.839c3.207-2.651 6.321-5.469 9.321-8.468 2.982-2.982 5.804-6.095 8.468-9.32l16.612 16.609-17.79 17.787zm92.737 74.937c-7.632 7.955-21.367 7.953-29 0l-42.102-42.096 29.001-28.997 42.102 42.096c7.954 7.633 7.955 21.365-.001 28.997z"/><path d="m68.204 204.803h32.88c9.27 0 16.812-7.54 16.812-16.808v-32.876c0-9.269-7.541-16.809-16.812-16.809h-32.88c-9.269 0-16.811 7.54-16.811 16.809v32.876c0 9.268 7.542 16.808 16.811 16.808zm-1.779-49.684c0-.981.799-1.779 1.779-1.779h32.88c.982 0 1.78.798 1.78 1.779v32.876c0 .981-.799 1.779-1.78 1.779h-32.88c-.981 0-1.779-.798-1.779-1.779z"/><path d="m51.393 293.362c0 9.268 7.541 16.808 16.811 16.808h32.88c9.27 0 16.812-7.54 16.812-16.808v-32.876c0-9.268-7.541-16.808-16.812-16.808h-32.88c-9.269 0-16.811 7.54-16.811 16.808zm15.032-32.876c0-.981.799-1.779 1.779-1.779h32.88c.982 0 1.78.798 1.78 1.779v32.876c0 .981-.799 1.779-1.78 1.779h-32.88c-.981 0-1.779-.798-1.779-1.779z"/><path d="m51.393 400.87c0 9.268 7.541 16.808 16.811 16.808h32.88c9.27 0 16.812-7.54 16.812-16.808v-32.876c0-9.269-7.541-16.809-16.812-16.809h-32.88c-9.269 0-16.811 7.54-16.811 16.809zm15.032-32.876c0-.981.799-1.779 1.779-1.779h32.88c.982 0 1.78.798 1.78 1.779v32.876c0 .981-.799 1.779-1.78 1.779h-32.88c-.981 0-1.779-.798-1.779-1.779z"/></g></svg>