<svg id="Capa_1" enable-background="new 0 0 512 512" height="512" viewBox="0 0 512 512" width="512" xmlns="http://www.w3.org/2000/svg"><g><path id="XMLID_320_" d="m493.767 182.257h-107.879v-55.027h62.425l-5.406 5.408c-5.857 5.858-5.856 15.356.002 21.213 2.929 2.928 6.767 4.392 10.605 4.392s7.679-1.465 10.607-4.395l30.746-30.753c5.856-5.857 5.856-15.354 0-21.211l-30.746-30.752c-5.856-5.859-15.354-5.859-21.213-.002-5.858 5.857-5.859 15.355-.002 21.213l4.886 4.887h-76.904c-8.284 0-15 6.716-15 15v70.027h-84.888v-131.039l5.139 5.14c5.855 5.859 15.354 5.859 21.213.002 5.858-5.857 5.859-15.355.002-21.213l-30.747-30.752c-2.812-2.814-6.628-4.395-10.607-4.395s-7.795 1.581-10.607 4.395l-30.746 30.753c-5.857 5.858-5.856 15.356.002 21.213 2.929 2.928 6.768 4.392 10.605 4.392 3.839 0 7.679-1.465 10.607-4.395l5.139-5.14v131.039h-84.888v-70.027c0-8.284-6.716-15-15-15h-76.904l4.886-4.887c5.857-5.858 5.856-15.356-.002-21.213-5.857-5.856-15.355-5.856-21.213.002l-30.746 30.752c-5.856 5.857-5.856 15.354 0 21.211l30.746 30.753c2.929 2.93 6.768 4.395 10.607 4.395 3.838 0 7.677-1.464 10.605-4.392 5.858-5.857 5.859-15.355.002-21.213l-5.406-5.408h62.425v55.027h-107.879c-8.284 0-15 6.716-15 15v117.517c0 8.284 6.716 15 15 15h107.879v55.19h-62.424l5.406-5.407c5.857-5.858 5.856-15.356-.002-21.213-5.857-5.856-15.355-5.856-21.213.002l-30.746 30.752c-5.856 5.857-5.856 15.354 0 21.211l30.746 30.752c2.929 2.93 6.768 4.395 10.607 4.395 3.838 0 7.677-1.464 10.605-4.392 5.858-5.857 5.859-15.355.002-21.213l-4.886-4.887h76.904c8.284 0 15-6.716 15-15v-70.19h84.889v131.007l-5.139-5.14c-5.855-5.859-15.354-5.859-21.213-.002-5.858 5.857-5.859 15.355-.002 21.213l30.746 30.753c2.813 2.814 6.629 4.395 10.608 4.395s7.795-1.581 10.607-4.395l30.746-30.752c5.857-5.858 5.856-15.356-.002-21.213-5.857-5.856-15.355-5.856-21.213.002l-5.139 5.14v-131.008h84.888v70.19c0 8.284 6.716 15 15 15h76.904l-4.886 4.887c-5.857 5.858-5.856 15.356.002 21.213 2.929 2.928 6.768 4.392 10.605 4.392 3.839 0 7.679-1.465 10.607-4.395l30.746-30.752c5.856-5.857 5.856-15.354 0-21.211l-30.746-30.752c-5.856-5.859-15.354-5.859-21.213-.002-5.858 5.857-5.859 15.355-.002 21.213l5.406 5.407h-62.425v-55.19h107.879c8.284 0 15-6.716 15-15v-117.517c.003-8.284-6.713-15-14.997-15zm-15 117.517h-445.534v-87.517h445.533v87.517z"/><ellipse id="XMLID_319_" cx="68.466" cy="256.016" rx="15.24" ry="15.243" transform="matrix(1 -.004 .004 1 -1.113 .3)"/><ellipse id="XMLID_318_" cx="120.601" cy="256.016" rx="15.24" ry="15.243" transform="matrix(1 -.004 .004 1 -1.112 .527)"/><ellipse id="XMLID_317_" cx="172.735" cy="256.016" rx="15.24" ry="15.243" transform="matrix(1 -.004 .004 1 -1.112 .754)"/><path id="XMLID_316_" d="m443.534 271.259c8.417 0 15.24-6.825 15.24-15.243s-6.823-15.243-15.24-15.243-15.24 6.825-15.24 15.243 6.823 15.243 15.24 15.243z"/></g></svg>