<svg id="Capa_1" enable-background="new 0 0 512 512" height="512" viewBox="0 0 512 512" width="512" xmlns="http://www.w3.org/2000/svg"><g><g><path d="m148.042 236.722h42.958c4.143 0 7.5-3.358 7.5-7.5s-3.357-7.5-7.5-7.5h-42.958c-4.143 0-7.5 3.358-7.5 7.5s3.357 7.5 7.5 7.5z"/><path d="m148.042 273.07h174.47c4.143 0 7.5-3.358 7.5-7.5s-3.357-7.5-7.5-7.5h-174.47c-4.143 0-7.5 3.358-7.5 7.5s3.357 7.5 7.5 7.5z"/><path d="m322.512 294.417h-46.512c-4.143 0-7.5 3.358-7.5 7.5s3.357 7.5 7.5 7.5h46.512c4.143 0 7.5-3.358 7.5-7.5s-3.358-7.5-7.5-7.5z"/><path d="m490.875 50.354-97.078-48.517c-4.899-2.449-10.748-2.449-15.647 0l-97.08 48.517c-.001 0-.001 0-.001 0-5.968 2.983-9.676 8.981-9.676 15.654v13.957h-105.393c-4.143 0-7.5 3.358-7.5 7.5s3.357 7.5 7.5 7.5h105.394v22.809c0 10.94.82 21.34 2.461 31.252h-125.813c-4.143 0-7.5 3.358-7.5 7.5s3.357 7.5 7.5 7.5h129.023c1.966 7.4 4.452 14.507 7.455 21.348h-136.478c-4.143 0-7.5 3.358-7.5 7.5s3.357 7.5 7.5 7.5h144.146c2.634 4.477 5.519 8.832 8.663 13.072 2.07 2.792 4.258 5.547 6.573 8.276h-86.424c-4.143 0-7.5 3.358-7.5 7.5s3.357 7.5 7.5 7.5h100.732c14.14 13.307 32.012 26.408 55.089 40.53 2.822 1.727 5.986 2.59 9.151 2.59s6.329-.863 9.152-2.59c.767-.469 1.519-.936 2.274-1.402v182.134h-196.23v-13.984c0-4.142-3.357-7.5-7.5-7.5s-7.5 3.358-7.5 7.5v50.5c0 1.378-1.121 2.5-2.5 2.5h-154.72c-1.379 0-2.5-1.122-2.5-2.5v-108.027c0-1.378 1.121-2.5 2.5-2.5h154.72c1.379 0 2.5 1.122 2.5 2.5v22.527c0 4.142 3.357 7.5 7.5 7.5s7.5-3.358 7.5-7.5v-22.527c0-1.507-.212-2.963-.572-4.359h121.916c4.143 0 7.5-3.358 7.5-7.5s-3.357-7.5-7.5-7.5h-145.444v-21.348h145.443c4.143 0 7.5-3.358 7.5-7.5s-3.357-7.5-7.5-7.5h-145.757c-.693-7.515-2.56-14.693-5.426-21.348h77.672c4.143 0 7.5-3.358 7.5-7.5s-3.357-7.5-7.5-7.5h-86.467c-12.941-16.923-33.325-27.867-56.225-27.867-11.975 0-23.258 3-33.155 8.273v-179.859h57.847c4.143 0 7.5-3.358 7.5-7.5s-3.357-7.5-7.5-7.5h-60.347c-6.893 0-12.5 5.607-12.5 12.5v193.064c-13.893 12.928-22.605 31.353-22.605 51.782v31.661h-6.6c-9.649 0-17.5 7.851-17.5 17.5v108.028c0 9.649 7.851 17.5 17.5 17.5h154.72c9.649 0 17.5-7.851 17.5-17.5v-21.517h198.731c6.893 0 12.5-5.607 12.5-12.5v-194.268c26.696-17.865 45.179-34.541 58.695-52.769 19.821-26.73 29.457-58.025 29.457-95.671v-51.767c.001-6.672-3.707-12.67-9.676-15.654zm-358.806 318.619h-51.521v-31.661c0-14.205 11.557-25.761 25.761-25.761s25.761 11.556 25.761 25.761v31.661zm-81.521-31.661c0-30.747 25.015-55.761 55.761-55.761s55.76 25.014 55.76 55.761v31.661h-14.999v-31.661c0-22.476-18.285-40.761-40.761-40.761s-40.761 18.285-40.761 40.761v31.661h-15zm435.004-219.537c0 72.076-37.596 109.562-98.256 146.682-.806.493-1.844.492-2.646 0-60.661-37.121-98.257-74.606-98.257-146.682v-51.767c0-.954.53-1.811 1.383-2.237l97.079-48.518c.699-.35 1.534-.35 2.235 0l97.078 48.517c.853.426 1.383 1.283 1.383 2.237v51.768z"/><path d="m385.522 52.13c-41.85 0-75.896 34.047-75.896 75.896s34.047 75.896 75.896 75.896c32.017 0 60.75-20.26 71.498-50.415 1.391-3.901-.645-8.192-4.546-9.583s-8.192.645-9.583 4.546c-8.625 24.195-31.68 40.451-57.369 40.451-33.578 0-60.896-27.318-60.896-60.896s27.318-60.896 60.896-60.896c29.564 0 54.771 21.101 59.935 50.172.725 4.078 4.62 6.801 8.696 6.073 4.078-.724 6.797-4.618 6.073-8.696-6.438-36.243-37.855-62.548-74.704-62.548z"/><path d="m411.537 107.502-29.551 29.551-17.183-17.184c-2.929-2.929-7.677-2.93-10.607 0-2.929 2.929-2.929 7.678 0 10.606l22.486 22.487c1.407 1.407 3.314 2.197 5.304 2.197s3.896-.79 5.304-2.197l34.854-34.854c2.929-2.929 2.929-7.678 0-10.606s-7.677-2.928-10.607 0z"/></g></g></svg>