<?xml version="1.0" encoding="iso-8859-1"?>
<!-- Generator: Adobe Illustrator 19.0.0, SVG Export Plug-In . SVG Version: 6.00 Build 0)  -->
<svg version="1.1" id="Capa_1" xmlns="http://www.w3.org/2000/svg" xmlns:xlink="http://www.w3.org/1999/xlink" x="0px" y="0px"
	 viewBox="0 0 480 480" style="enable-background:new 0 0 480 480;" xml:space="preserve">
<g>
	<g>
		<path d="M456,144c13.255,0,24-10.745,24-24V24c0-13.255-10.745-24-24-24H24C10.745,0,0,10.745,0,24v96c0,13.255,10.745,24,24,24
			h24v24H24c-13.255,0-24,10.745-24,24v96c0,13.255,10.745,24,24,24h24v24H24c-13.255,0-24,10.745-24,24v96
			c0,13.255,10.745,24,24,24h432c13.255,0,24-10.745,24-24v-96c0-13.255-10.745-24-24-24h-24v-24h24c13.255,0,24-10.745,24-24v-96
			c0-13.255-10.745-24-24-24h-24v-24H456z M456,352c4.418,0,8,3.582,8,8v96c0,4.418-3.582,8-8,8H24c-4.418,0-8-3.582-8-8v-96
			c0-4.418,3.582-8,8-8H456z M64,336v-24h16v24H64z M96,336v-24h288v24H96z M400,336v-24h16v24H400z M456,184c4.418,0,8,3.582,8,8
			v96c0,4.418-3.582,8-8,8H24c-4.418,0-8-3.582-8-8v-96c0-4.418,3.582-8,8-8H456z M64,168v-24h16v24H64z M96,168v-24h288v24H96z
			 M400,168v-24h16v24H400z M24,128c-4.418,0-8-3.582-8-8V24c0-4.418,3.582-8,8-8h432c4.418,0,8,3.582,8,8v96c0,4.418-3.582,8-8,8
			H24z"/>
	</g>
</g>
<g>
	<g>
		<path d="M256,64H94.528C90.11,51.503,76.397,44.954,63.901,49.373S44.855,67.503,49.273,80s18.131,19.046,30.627,14.627
			C86.735,92.211,92.112,86.835,94.528,80H256c4.418,0,8-3.582,8-8S260.418,64,256,64z M72,80c-4.418,0-8-3.582-8-8s3.582-8,8-8
			s8,3.582,8,8S76.418,80,72,80z"/>
	</g>
</g>
<g>
	<g>
		<rect x="352" y="32" width="16" height="16"/>
	</g>
</g>
<g>
	<g>
		<rect x="384" y="32" width="16" height="16"/>
	</g>
</g>
<g>
	<g>
		<rect x="416" y="32" width="16" height="16"/>
	</g>
</g>
<g>
	<g>
		<rect x="320" y="32" width="16" height="16"/>
	</g>
</g>
<g>
	<g>
		<rect x="288" y="32" width="16" height="16"/>
	</g>
</g>
<g>
	<g>
		<rect x="352" y="64" width="16" height="16"/>
	</g>
</g>
<g>
	<g>
		<rect x="384" y="64" width="16" height="16"/>
	</g>
</g>
<g>
	<g>
		<rect x="416" y="64" width="16" height="16"/>
	</g>
</g>
<g>
	<g>
		<rect x="320" y="64" width="16" height="16"/>
	</g>
</g>
<g>
	<g>
		<rect x="288" y="64" width="16" height="16"/>
	</g>
</g>
<g>
	<g>
		<rect x="352" y="96" width="16" height="16"/>
	</g>
</g>
<g>
	<g>
		<rect x="384" y="96" width="16" height="16"/>
	</g>
</g>
<g>
	<g>
		<rect x="416" y="96" width="16" height="16"/>
	</g>
</g>
<g>
	<g>
		<rect x="320" y="96" width="16" height="16"/>
	</g>
</g>
<g>
	<g>
		<rect x="288" y="96" width="16" height="16"/>
	</g>
</g>
<g>
	<g>
		<path d="M256,232H94.528c-4.418-12.497-18.131-19.046-30.627-14.627S44.855,235.503,49.273,248s18.131,19.046,30.627,14.627
			c6.835-2.416,12.211-7.793,14.627-14.627H256c4.418,0,8-3.582,8-8S260.418,232,256,232z M72,248c-4.418,0-8-3.582-8-8s3.582-8,8-8
			s8,3.582,8,8S76.418,248,72,248z"/>
	</g>
</g>
<g>
	<g>
		<rect x="352" y="200" width="16" height="16"/>
	</g>
</g>
<g>
	<g>
		<rect x="384" y="200" width="16" height="16"/>
	</g>
</g>
<g>
	<g>
		<rect x="416" y="200" width="16" height="16"/>
	</g>
</g>
<g>
	<g>
		<rect x="320" y="200" width="16" height="16"/>
	</g>
</g>
<g>
	<g>
		<rect x="288" y="200" width="16" height="16"/>
	</g>
</g>
<g>
	<g>
		<rect x="352" y="232" width="16" height="16"/>
	</g>
</g>
<g>
	<g>
		<rect x="384" y="232" width="16" height="16"/>
	</g>
</g>
<g>
	<g>
		<rect x="416" y="232" width="16" height="16"/>
	</g>
</g>
<g>
	<g>
		<rect x="320" y="232" width="16" height="16"/>
	</g>
</g>
<g>
	<g>
		<rect x="288" y="232" width="16" height="16"/>
	</g>
</g>
<g>
	<g>
		<rect x="352" y="264" width="16" height="16"/>
	</g>
</g>
<g>
	<g>
		<rect x="384" y="264" width="16" height="16"/>
	</g>
</g>
<g>
	<g>
		<rect x="416" y="264" width="16" height="16"/>
	</g>
</g>
<g>
	<g>
		<rect x="320" y="264" width="16" height="16"/>
	</g>
</g>
<g>
	<g>
		<rect x="288" y="264" width="16" height="16"/>
	</g>
</g>
<g>
	<g>
		<path d="M256,400H94.528c-4.418-12.497-18.131-19.046-30.627-14.627S44.855,403.503,49.273,416s18.131,19.046,30.627,14.627
			c6.835-2.416,12.211-7.793,14.627-14.627H256c4.418,0,8-3.582,8-8S260.418,400,256,400z M72,416c-4.418,0-8-3.582-8-8s3.582-8,8-8
			s8,3.582,8,8S76.418,416,72,416z"/>
	</g>
</g>
<g>
	<g>
		<rect x="352" y="368" width="16" height="16"/>
	</g>
</g>
<g>
	<g>
		<rect x="384" y="368" width="16" height="16"/>
	</g>
</g>
<g>
	<g>
		<rect x="416" y="368" width="16" height="16"/>
	</g>
</g>
<g>
	<g>
		<rect x="320" y="368" width="16" height="16"/>
	</g>
</g>
<g>
	<g>
		<rect x="288" y="368" width="16" height="16"/>
	</g>
</g>
<g>
	<g>
		<rect x="352" y="400" width="16" height="16"/>
	</g>
</g>
<g>
	<g>
		<rect x="384" y="400" width="16" height="16"/>
	</g>
</g>
<g>
	<g>
		<rect x="416" y="400" width="16" height="16"/>
	</g>
</g>
<g>
	<g>
		<rect x="320" y="400" width="16" height="16"/>
	</g>
</g>
<g>
	<g>
		<rect x="288" y="400" width="16" height="16"/>
	</g>
</g>
<g>
	<g>
		<rect x="352" y="432" width="16" height="16"/>
	</g>
</g>
<g>
	<g>
		<rect x="384" y="432" width="16" height="16"/>
	</g>
</g>
<g>
	<g>
		<rect x="416" y="432" width="16" height="16"/>
	</g>
</g>
<g>
	<g>
		<rect x="320" y="432" width="16" height="16"/>
	</g>
</g>
<g>
	<g>
		<rect x="288" y="432" width="16" height="16"/>
	</g>
</g>
<g>
</g>
<g>
</g>
<g>
</g>
<g>
</g>
<g>
</g>
<g>
</g>
<g>
</g>
<g>
</g>
<g>
</g>
<g>
</g>
<g>
</g>
<g>
</g>
<g>
</g>
<g>
</g>
<g>
</g>
</svg>
