<?xml version="1.0" encoding="utf-8"?>
<!-- Generator: Adobe Illustrator 23.0.3, SVG Export Plug-In . SVG Version: 6.00 Build 0)  -->
<svg version="1.1" id="Layer_1" xmlns="http://www.w3.org/2000/svg" xmlns:xlink="http://www.w3.org/1999/xlink" x="0px" y="0px"
	 viewBox="0 0 75 75" style="enable-background:new 0 0 75 75;" xml:space="preserve">
<style type="text/css">
	.st0{fill:#658292;}
</style>
<path class="st0" d="M37.8,42.8c2.8,0,5-2.3,5-5c0-1.2-0.4-2.2-1.1-3.1l13.9-13.9c0.2-0.2,0.2-0.6,0-0.8s-0.6-0.2-0.8,0L40.8,33.8
	c-0.9-0.7-1.9-1.1-3.1-1.1c-2.8,0-5,2.3-5,5S35,42.8,37.8,42.8z M37.8,33.9c0.9,0,1.8,0.4,2.4,0.9c0,0.1,0.1,0.2,0.2,0.3
	c0.1,0.1,0.2,0.1,0.3,0.2c0.6,0.7,0.9,1.5,0.9,2.4c0,2.1-1.7,3.8-3.8,3.8c-2.1,0-3.8-1.7-3.8-3.8C33.9,35.7,35.7,33.9,37.8,33.9z"/>
<path class="st0" d="M16.7,39.2c0-0.3-0.3-0.6-0.6-0.6h-5.8c-0.3,0-0.6,0.3-0.6,0.6s0.3,0.6,0.6,0.6h5.8
	C16.5,39.8,16.7,39.5,16.7,39.2z"/>
<path class="st0" d="M65.2,38.6h-5.8c-0.3,0-0.6,0.3-0.6,0.6s0.3,0.6,0.6,0.6h5.8c0.3,0,0.6-0.3,0.6-0.6S65.5,38.6,65.2,38.6z"/>
<path class="st0" d="M57.8,30c0.1,0,0.1,0,0.2,0l5.4-2.1c0.3-0.1,0.5-0.5,0.3-0.8s-0.5-0.5-0.8-0.3l-5.4,2.1
	c-0.3,0.1-0.5,0.5-0.3,0.8C57.3,29.8,57.5,30,57.8,30z"/>
<path class="st0" d="M45.9,18.3c0.1,0,0.1,0,0.2,0c0.2,0,0.5-0.1,0.6-0.4l2.1-5.4c0.1-0.3,0-0.7-0.3-0.8s-0.7,0-0.8,0.3l-2.1,5.4
	C45.5,17.8,45.6,18.2,45.9,18.3z"/>
<path class="st0" d="M37.8,16.7c0.3,0,0.6-0.3,0.6-0.6v-5.8c0-0.3-0.3-0.6-0.6-0.6s-0.6,0.3-0.6,0.6v5.8
	C37.2,16.5,37.4,16.7,37.8,16.7z"/>
<path class="st0" d="M28.8,18c0.1,0.2,0.3,0.4,0.6,0.4c0.1,0,0.1,0,0.2,0c0.3-0.1,0.5-0.5,0.3-0.8l-2.1-5.4
	c-0.1-0.3-0.5-0.5-0.8-0.3s-0.5,0.5-0.3,0.8L28.8,18z"/>
<path class="st0" d="M22,22.8c0.1,0.1,0.3,0.2,0.4,0.2s0.3-0.1,0.4-0.2c0.2-0.2,0.2-0.6,0-0.8l-4-4c-0.2-0.2-0.6-0.2-0.8,0
	s-0.2,0.6,0,0.8L22,22.8z"/>
<path class="st0" d="M12.2,27.8l5.4,2.1c0.1,0,0.1,0,0.2,0c0.2,0,0.5-0.1,0.6-0.4c0.1-0.3,0-0.7-0.3-0.8l-5.4-2.1
	c-0.3-0.1-0.7,0-0.8,0.3C11.7,27.4,11.9,27.7,12.2,27.8z"/>
<path class="st0" d="M37.8,2.5C18.3,2.5,2.5,18.3,2.5,37.8C2.5,57.2,18.3,73,37.8,73C57.2,73,73,57.2,73,37.8
	C73,18.3,57.2,2.5,37.8,2.5z M37.8,71.8C19,71.8,3.7,56.5,3.7,37.8C3.7,19,19,3.7,37.8,3.7c18.8,0,34.1,15.3,34.1,34.1
	C71.8,56.5,56.5,71.8,37.8,71.8z"/>
<path class="st0" d="M60.6,50.3c-0.3-0.2-0.7-0.1-0.8,0.2c-4.2,7.7-12.9,12.7-22,12.7c-9.4,0-18-5.2-22-13.2
	c-0.1-0.3-0.5-0.4-0.8-0.3c-0.3,0.1-0.4,0.5-0.3,0.8c4.2,8.4,13.3,13.8,23.1,13.8c9.6,0,18.7-5.2,23.1-13.3
	C61,50.8,60.9,50.4,60.6,50.3z"/>
</svg>
