<?xml version="1.0" encoding="iso-8859-1"?>
<!-- Generator: Adobe Illustrator 16.0.0, SVG Export Plug-In . SVG Version: 6.00 Build 0)  -->
<!DOCTYPE svg PUBLIC "-//W3C//DTD SVG 1.1//EN" "http://www.w3.org/Graphics/SVG/1.1/DTD/svg11.dtd">
<svg version="1.1" id="Capa_1" xmlns="http://www.w3.org/2000/svg" xmlns:xlink="http://www.w3.org/1999/xlink" x="0px" y="0px"
	 width="29.938px" height="29.938px" viewBox="0 0 29.938 29.938" style="enable-background:new 0 0 29.938 29.938;"
	 xml:space="preserve">
<g>
	<path d="M7.129,15.683h1.427v1.427h1.426v1.426H2.853v-1.426h1.426v-2.853h2.853v1.426H7.129z M25.664,28.513h1.424v-1.426h-1.424
		V28.513z M8.555,15.683h1.426v-1.426H8.555V15.683z M28.512,28.513h1.427v-1.426h-1.427V28.513z M11.408,29.938h2.85v-1.426h-2.85
		V29.938z M24.237,29.938v-1.426h-1.427v1.426H24.237z M18.535,29.938h1.426v-2.852h-1.426V29.938z M7.129,11.406v1.426h4.277
		v-1.426H7.129z M5.705,12.831v-1.426H2.852v2.852h1.426v-1.426H5.705z M9.981,9.979H0.002V0.001h9.979V9.979z M8.555,1.427H1.426
		v7.127h7.129V1.427z M2.852,27.087h4.276V22.81H2.852V27.087z M17.108,25.66v1.427h1.428V25.66H17.108z M7.129,2.853H2.853v4.275
		h4.276V2.853z M29.938,0.001v9.979h-9.979V0.001H29.938z M28.512,1.427h-7.127v7.127h7.127V1.427z M0,19.957h9.98v9.979H0V19.957z
		 M1.427,28.513h7.129v-7.129H1.427V28.513z M1.427,11.406H0v7.129h1.427V11.406z M19.959,18.533v1.424h1.426v-1.424H19.959z
		 M15.682,24.236V22.81h-1.425v1.427h-2.85v2.853h2.85v1.426h1.425v-2.853h1.427v-1.426H15.682L15.682,24.236z M11.408,5.704h2.85
		V4.276h-2.85V5.704z M22.811,17.109h2.854v1.426h1.425v-4.276h-1.425v-2.853h-1.428v4.277h-4.274v1.427h1.426v1.426h1.426v-1.426
		H22.811z M24.237,21.384h-1.427v-1.427h-1.426v2.853h-4.276v1.427h2.854v2.853h1.426v1.426h1.426v-2.853h5.701v-1.426h-4.276
		v-2.853H24.237z M24.237,21.384h1.428v-2.851h-1.428V21.384z M12.832,21.384v-1.427h1.424v-1.424h1.425v-1.426h1.427v-2.853h4.276
		v-2.853h-1.426v1.426h-1.426V7.125h-1.426V4.272h1.426V0h-1.426v2.852h-1.426V0h-4.276v2.852h1.426V1.426h1.424v2.85h1.426v4.277
		h1.426v1.426h-1.426v2.852h-1.426V9.979h-1.424V8.554h-1.426v2.852h1.426v1.426h-1.426v4.278h1.426v-2.853h1.424v2.853h-1.424
		v1.426h-1.426v4.274h2.85v-1.426H12.832z M28.512,22.81v-1.426h-2.85v1.426H28.512z M27.086,2.853h-4.275v4.275h4.275V2.853z
		 M15.682,21.384h2.854v-1.427h-1.428v-1.424h-1.427V21.384z M18.535,18.533v-1.426h-1.428v1.426H18.535z M27.086,12.831h2.853
		v-1.426h-2.853V12.831z M28.512,24.236h1.427V22.81h-1.427V24.236z M28.512,15.683h1.427v-1.426h-1.427V15.683z M15.682,8.554
		h-1.425v1.426h1.425V8.554z"/>
</g>
<g>
</g>
<g>
</g>
<g>
</g>
<g>
</g>
<g>
</g>
<g>
</g>
<g>
</g>
<g>
</g>
<g>
</g>
<g>
</g>
<g>
</g>
<g>
</g>
<g>
</g>
<g>
</g>
<g>
</g>
</svg>
